<?xml version="1.0" encoding="UTF-8" standalone="no" ?>
<!DOCTYPE svg PUBLIC "-//W3C//DTD SVG 1.1//EN" "http://www.w3.org/Graphics/SVG/1.1/DTD/svg11.dtd">
<svg xmlns="http://www.w3.org/2000/svg" xmlns:xlink="http://www.w3.org/1999/xlink" version="1.1" width="1080" height="1080" viewBox="0 0 1080 1080" xml:space="preserve">
<desc>Created with Fabric.js 5.2.4</desc>
<defs>
</defs>
<g transform="matrix(1 0 0 1 540 540)" id="7a80e027-0f30-435a-b494-eb17ebbb242d"  >
<rect style="stroke: none; stroke-width: 1; stroke-dasharray: none; stroke-linecap: butt; stroke-dashoffset: 0; stroke-linejoin: miter; stroke-miterlimit: 4; fill: rgb(255,255,255); fill-rule: nonzero; opacity: 1; visibility: hidden;" vector-effect="non-scaling-stroke"  x="-540" y="-540" rx="0" ry="0" width="1080" height="1080" />
</g>
<g transform="matrix(1 0 0 1 540 540)" id="d2b981e7-e76a-46ea-a146-e2f2326a3fe5"  >
</g>
<g transform="matrix(1 0 0 1 540 540)"  >
<g style="" vector-effect="non-scaling-stroke"   >
		<g transform="matrix(1.33 0 0 1.33 -209 0)" clip-path="url(#CLIPPATH_3)"  >
<clipPath id="CLIPPATH_3" >
	<path transform="matrix(1 0 0 1 0 -0.42) translate(-231.98, -392)" id="741" d="M 141.609375 301 L 322.359375 301 L 322.359375 483 L 141.609375 483 Z M 141.609375 301" stroke-linecap="round" />
</clipPath>
<path style="stroke: none; stroke-width: 1; stroke-dasharray: none; stroke-linecap: butt; stroke-dashoffset: 0; stroke-linejoin: miter; stroke-miterlimit: 4; fill: rgb(0,0,0); fill-rule: nonzero; opacity: 1;" vector-effect="non-scaling-stroke"  transform=" translate(-231.98, -392.42)" d="M 296.539062 301.90625 C 310.78125 301.90625 322.359375 313.503906 322.359375 327.769531 L 322.359375 457.078125 C 322.359375 471.34375 310.78125 482.941406 296.539062 482.941406 L 167.433594 482.941406 C 153.191406 482.941406 141.609375 471.34375 141.609375 457.078125 L 141.609375 327.769531 C 141.609375 313.503906 153.191406 301.90625 167.433594 301.90625 Z M 184.015625 364.542969 C 168.398438 364.542969 155.730469 377.191406 155.730469 392.828125 C 155.730469 408.464844 168.398438 421.113281 184.015625 421.113281 C 194.019531 421.113281 202.773438 415.941406 207.820312 408.101562 L 208.019531 407.820312 L 207.859375 407.578125 C 205.234375 403.292969 203.742188 398.242188 203.742188 392.828125 C 203.742188 387.332031 205.316406 382.199219 208.019531 377.835938 C 203.015625 369.835938 194.140625 364.542969 184.015625 364.542969 Z M 231.984375 364.542969 C 221.980469 364.542969 213.226562 369.714844 208.179688 377.554688 L 207.980469 377.835938 L 208.140625 378.078125 C 210.761719 382.363281 212.257812 387.414062 212.257812 392.828125 C 212.257812 398.324219 210.683594 403.457031 207.980469 407.820312 C 212.984375 415.78125 221.859375 421.113281 231.984375 421.113281 C 241.992188 421.113281 250.746094 415.941406 255.789062 408.101562 L 255.992188 407.820312 L 255.832031 407.578125 C 253.207031 403.292969 251.714844 398.242188 251.714844 392.828125 C 251.714844 387.332031 253.289062 382.199219 255.992188 377.835938 C 250.988281 369.875 242.113281 364.542969 231.984375 364.542969 Z M 279.957031 364.542969 C 269.953125 364.542969 261.195312 369.714844 256.152344 377.554688 L 255.949219 377.835938 L 256.113281 378.078125 C 258.734375 382.363281 260.226562 387.414062 260.226562 392.828125 C 260.226562 398.324219 258.65625 403.457031 255.949219 407.820312 C 260.953125 415.820312 269.832031 421.113281 279.957031 421.113281 C 295.570312 421.113281 308.238281 408.464844 308.238281 392.828125 C 308.238281 377.191406 295.570312 364.542969 279.957031 364.542969 Z M 279.957031 364.542969" stroke-linecap="round" />
</g>
		<g transform="matrix(1.33 0 0 1.33 -25.85 1.77)"  >
<path style="stroke: none; stroke-width: 1; stroke-dasharray: none; stroke-linecap: butt; stroke-dashoffset: 0; stroke-linejoin: miter; stroke-miterlimit: 4; fill: rgb(0,0,0); fill-rule: nonzero; opacity: 1;" vector-effect="non-scaling-stroke"  transform=" translate(-20.88, 24.88)" d="M 39.03125 -15.59375 C 38.875 -13.082031 38.332031 -10.820312 37.40625 -8.8125 C 36.488281 -6.8125 35.253906 -5.101562 33.703125 -3.6875 C 32.148438 -2.28125 30.300781 -1.191406 28.15625 -0.421875 C 26.019531 0.335938 23.65625 0.71875 21.0625 0.71875 C 18.113281 0.71875 15.5 0.175781 13.21875 -0.90625 C 10.945312 -1.988281 9.035156 -3.503906 7.484375 -5.453125 C 5.929688 -7.398438 4.742188 -9.738281 3.921875 -12.46875 C 3.109375 -15.207031 2.703125 -18.21875 2.703125 -21.5 L 2.703125 -28.203125 C 2.703125 -31.503906 3.132812 -34.519531 4 -37.25 C 4.863281 -39.988281 6.09375 -42.335938 7.6875 -44.296875 C 9.28125 -46.253906 11.210938 -47.773438 13.484375 -48.859375 C 15.753906 -49.941406 18.300781 -50.484375 21.125 -50.484375 C 23.851562 -50.484375 26.28125 -50.09375 28.40625 -49.3125 C 30.539062 -48.539062 32.359375 -47.4375 33.859375 -46 C 35.367188 -44.570312 36.554688 -42.816406 37.421875 -40.734375 C 38.285156 -38.660156 38.832031 -36.328125 39.0625 -33.734375 L 29.5 -33.734375 C 29.40625 -35.210938 29.179688 -36.507812 28.828125 -37.625 C 28.472656 -38.75 27.957031 -39.679688 27.28125 -40.421875 C 26.613281 -41.160156 25.773438 -41.71875 24.765625 -42.09375 C 23.753906 -42.46875 22.539062 -42.65625 21.125 -42.65625 C 19.644531 -42.65625 18.359375 -42.335938 17.265625 -41.703125 C 16.171875 -41.066406 15.265625 -40.128906 14.546875 -38.890625 C 13.828125 -37.660156 13.296875 -36.148438 12.953125 -34.359375 C 12.609375 -32.578125 12.4375 -30.546875 12.4375 -28.265625 L 12.4375 -21.5 C 12.4375 -16.601562 13.125 -12.976562 14.5 -10.625 C 15.882812 -8.28125 18.070312 -7.109375 21.0625 -7.109375 C 23.5625 -7.109375 25.539062 -7.773438 27 -9.109375 C 28.457031 -10.441406 29.265625 -12.601562 29.421875 -15.59375 Z M 39.03125 -15.59375" stroke-linecap="round" />
</g>
		<g transform="matrix(1.33 0 0 1.33 30.77 10.77)"  >
<path style="stroke: none; stroke-width: 1; stroke-dasharray: none; stroke-linecap: butt; stroke-dashoffset: 0; stroke-linejoin: miter; stroke-miterlimit: 4; fill: rgb(0,0,0); fill-rule: nonzero; opacity: 1;" vector-effect="non-scaling-stroke"  transform=" translate(-21.34, 18.13)" d="M 28.40625 -5.203125 C 27.15625 -3.347656 25.644531 -1.894531 23.875 -0.84375 C 22.101562 0.195312 20.171875 0.71875 18.078125 0.71875 C 16.160156 0.71875 14.40625 0.421875 12.8125 -0.171875 C 11.21875 -0.765625 9.847656 -1.703125 8.703125 -2.984375 C 7.566406 -4.273438 6.6875 -5.914062 6.0625 -7.90625 C 5.4375 -9.90625 5.125 -12.304688 5.125 -15.109375 L 5.125 -36.984375 L 14.625 -36.984375 L 14.625 -15.046875 C 14.625 -13.535156 14.734375 -12.265625 14.953125 -11.234375 C 15.171875 -10.210938 15.519531 -9.390625 16 -8.765625 C 16.476562 -8.140625 17.101562 -7.6875 17.875 -7.40625 C 18.644531 -7.132812 19.59375 -7 20.71875 -7 C 22.601562 -7 24.140625 -7.359375 25.328125 -8.078125 C 26.515625 -8.796875 27.414062 -9.785156 28.03125 -11.046875 L 28.03125 -36.984375 L 37.5625 -36.984375 L 37.5625 0 L 28.953125 0 Z M 28.40625 -5.203125" stroke-linecap="round" />
</g>
		<g transform="matrix(1.33 0 0 1.33 87.1 0.41)"  >
<path style="stroke: none; stroke-width: 1; stroke-dasharray: none; stroke-linecap: butt; stroke-dashoffset: 0; stroke-linejoin: miter; stroke-miterlimit: 4; fill: rgb(0,0,0); fill-rule: nonzero; opacity: 1;" vector-effect="non-scaling-stroke"  transform=" translate(-21.59, 25.91)" d="M 38.140625 -18.109375 C 38.140625 -15.359375 37.835938 -12.832031 37.234375 -10.53125 C 36.628906 -8.226562 35.722656 -6.242188 34.515625 -4.578125 C 33.304688 -2.910156 31.800781 -1.613281 30 -0.6875 C 28.207031 0.226562 26.113281 0.6875 23.71875 0.6875 C 21.550781 0.6875 19.675781 0.28125 18.09375 -0.53125 C 16.507812 -1.34375 15.148438 -2.476562 14.015625 -3.9375 L 13.5625 0 L 5.03125 0 L 5.03125 -52.5 L 14.53125 -52.5 L 14.53125 -33.640625 C 15.625 -34.910156 16.914062 -35.898438 18.40625 -36.609375 C 19.894531 -37.316406 21.644531 -37.671875 23.65625 -37.671875 C 26.070312 -37.671875 28.179688 -37.203125 29.984375 -36.265625 C 31.796875 -35.328125 33.304688 -34.023438 34.515625 -32.359375 C 35.722656 -30.703125 36.628906 -28.71875 37.234375 -26.40625 C 37.835938 -24.09375 38.140625 -21.566406 38.140625 -18.828125 Z M 28.640625 -18.828125 C 28.640625 -20.335938 28.523438 -21.765625 28.296875 -23.109375 C 28.066406 -24.453125 27.671875 -25.628906 27.109375 -26.640625 C 26.554688 -27.660156 25.800781 -28.460938 24.84375 -29.046875 C 23.882812 -29.640625 22.691406 -29.9375 21.265625 -29.9375 C 19.523438 -29.9375 18.113281 -29.570312 17.03125 -28.84375 C 15.957031 -28.113281 15.125 -27.113281 14.53125 -25.84375 L 14.53125 -11.109375 C 15.125 -9.828125 15.957031 -8.820312 17.03125 -8.09375 C 18.113281 -7.363281 19.546875 -7 21.328125 -7 C 22.765625 -7 23.945312 -7.28125 24.875 -7.84375 C 25.8125 -8.40625 26.554688 -9.179688 27.109375 -10.171875 C 27.671875 -11.160156 28.066406 -12.332031 28.296875 -13.6875 C 28.523438 -15.039062 28.640625 -16.515625 28.640625 -18.109375 Z M 28.640625 -18.828125" stroke-linecap="round" />
</g>
		<g transform="matrix(1.33 0 0 1.33 142.58 10.29)"  >
<path style="stroke: none; stroke-width: 1; stroke-dasharray: none; stroke-linecap: butt; stroke-dashoffset: 0; stroke-linejoin: miter; stroke-miterlimit: 4; fill: rgb(0,0,0); fill-rule: nonzero; opacity: 1;" vector-effect="non-scaling-stroke"  transform=" translate(-21.2, 18.49)" d="M 22.765625 0.6875 C 19.910156 0.6875 17.320312 0.21875 15 -0.71875 C 12.675781 -1.65625 10.679688 -2.925781 9.015625 -4.53125 C 7.359375 -6.132812 6.078125 -8.023438 5.171875 -10.203125 C 4.273438 -12.378906 3.828125 -14.707031 3.828125 -17.1875 L 3.828125 -18.5625 C 3.828125 -21.382812 4.269531 -23.960938 5.15625 -26.296875 C 6.050781 -28.640625 7.296875 -30.648438 8.890625 -32.328125 C 10.484375 -34.015625 12.375 -35.328125 14.5625 -36.265625 C 16.75 -37.203125 19.128906 -37.671875 21.703125 -37.671875 C 24.367188 -37.671875 26.742188 -37.226562 28.828125 -36.34375 C 30.910156 -35.46875 32.675781 -34.234375 34.125 -32.640625 C 35.570312 -31.046875 36.671875 -29.125 37.421875 -26.875 C 38.179688 -24.632812 38.5625 -22.160156 38.5625 -19.453125 L 38.5625 -15.421875 L 13.46875 -15.421875 C 13.644531 -14.160156 14.015625 -13.007812 14.578125 -11.96875 C 15.140625 -10.9375 15.851562 -10.046875 16.71875 -9.296875 C 17.582031 -8.546875 18.570312 -7.960938 19.6875 -7.546875 C 20.800781 -7.140625 22.019531 -6.9375 23.34375 -6.9375 C 24.28125 -6.9375 25.207031 -7.023438 26.125 -7.203125 C 27.050781 -7.390625 27.9375 -7.660156 28.78125 -8.015625 C 29.625 -8.367188 30.410156 -8.804688 31.140625 -9.328125 C 31.867188 -9.859375 32.503906 -10.472656 33.046875 -11.171875 L 37.796875 -6.046875 C 37.210938 -5.203125 36.445312 -4.375 35.5 -3.5625 C 34.550781 -2.757812 33.429688 -2.046875 32.140625 -1.421875 C 30.859375 -0.796875 29.429688 -0.289062 27.859375 0.09375 C 26.285156 0.488281 24.585938 0.6875 22.765625 0.6875 Z M 21.640625 -29.96875 C 20.566406 -29.96875 19.582031 -29.78125 18.6875 -29.40625 C 17.800781 -29.03125 17.019531 -28.488281 16.34375 -27.78125 C 15.675781 -27.082031 15.113281 -26.242188 14.65625 -25.265625 C 14.207031 -24.285156 13.867188 -23.191406 13.640625 -21.984375 L 29.21875 -21.984375 L 29.21875 -22.734375 C 29.175781 -23.734375 28.984375 -24.675781 28.640625 -25.5625 C 28.296875 -26.457031 27.804688 -27.226562 27.171875 -27.875 C 26.535156 -28.519531 25.753906 -29.03125 24.828125 -29.40625 C 23.910156 -29.78125 22.847656 -29.96875 21.640625 -29.96875 Z M 21.640625 -29.96875" stroke-linecap="round" />
</g>
		<g transform="matrix(1.33 0 0 1.33 254.95 1.77)"  >
<path style="stroke: none; stroke-width: 1; stroke-dasharray: none; stroke-linecap: butt; stroke-dashoffset: 0; stroke-linejoin: miter; stroke-miterlimit: 4; fill: rgb(0,0,0); fill-rule: nonzero; opacity: 1;" vector-effect="non-scaling-stroke"  transform=" translate(-21.46, 24.88)" d="M 28.953125 -10.390625 L 14.015625 -10.390625 L 11.078125 0 L 0.953125 0 L 17.265625 -49.765625 L 25.984375 -49.765625 L 41.96875 0 L 31.859375 0 Z M 16.375 -18.5625 L 26.6875 -18.5625 L 21.609375 -36.875 Z M 16.375 -18.5625" stroke-linecap="round" />
</g>
		<g transform="matrix(1.33 0 0 1.33 310.32 1.77)"  >
<path style="stroke: none; stroke-width: 1; stroke-dasharray: none; stroke-linecap: butt; stroke-dashoffset: 0; stroke-linejoin: miter; stroke-miterlimit: 4; fill: rgb(0,0,0); fill-rule: nonzero; opacity: 1;" vector-effect="non-scaling-stroke"  transform=" translate(-20.98, 24.88)" d="M 6.59375 -49.765625 L 35.375 -49.765625 L 35.375 -42 L 25.671875 -42 L 25.671875 -7.71875 L 35.375 -7.71875 L 35.375 0 L 6.59375 0 L 6.59375 -7.71875 L 16.0625 -7.71875 L 16.0625 -42 L 6.59375 -42 Z M 6.59375 -49.765625" stroke-linecap="round" />
</g>
</g>
</g>
</svg>