<?xml version="1.0" encoding="UTF-8" standalone="no" ?>
<!DOCTYPE svg PUBLIC "-//W3C//DTD SVG 1.1//EN" "http://www.w3.org/Graphics/SVG/1.1/DTD/svg11.dtd">
<svg xmlns="http://www.w3.org/2000/svg" xmlns:xlink="http://www.w3.org/1999/xlink" version="1.1" width="1080" height="430" viewBox="0 0 1080 430" xml:space="preserve">
<desc>Created with Fabric.js 5.2.4</desc>
<defs>
</defs>
<g transform="matrix(1 0 0 1 540 215)" id="f4a11bfb-81c1-4fb0-8329-3371306064ea"  >
<rect style="stroke: none; stroke-width: 1; stroke-dasharray: none; stroke-linecap: butt; stroke-dashoffset: 0; stroke-linejoin: miter; stroke-miterlimit: 4; fill: rgb(255,255,255); fill-rule: nonzero; opacity: 1; visibility: hidden;" vector-effect="non-scaling-stroke"  x="-540" y="-215" rx="0" ry="0" width="1080" height="430" />
</g>
<g transform="matrix(Infinity NaN NaN Infinity 0 0)" id="6ac41e0a-7aa7-4863-912d-23965d338fc8"  >
</g>
<g transform="matrix(1.02 0 0 1.02 540.62 214.81)"  >
<g style="" vector-effect="non-scaling-stroke"   >
		<g transform="matrix(1.33 0 0 1.33 -331.48 0)" clip-path="url(#CLIPPATH_3)"  >
<clipPath id="CLIPPATH_3" >
	<path transform="matrix(1 0 0 1 0 -0.28) translate(-152.81, -391)" id="5" d="M 18.5625 256 L 287.0625 256 L 287.0625 526 L 18.5625 526 Z M 18.5625 256" stroke-linecap="round" />
</clipPath>
<path style="stroke: none; stroke-width: 1; stroke-dasharray: none; stroke-linecap: butt; stroke-dashoffset: 0; stroke-linejoin: miter; stroke-miterlimit: 4; fill: rgb(0,0,0); fill-rule: nonzero; opacity: 1;" vector-effect="non-scaling-stroke"  transform=" translate(-152.81, -391.28)" d="M 248.707031 256.820312 C 269.863281 256.820312 287.0625 274.050781 287.0625 295.238281 L 287.0625 487.328125 C 287.0625 508.515625 269.863281 525.746094 248.707031 525.746094 L 56.921875 525.746094 C 35.765625 525.746094 18.5625 508.515625 18.5625 487.328125 L 18.5625 295.238281 C 18.5625 274.050781 35.765625 256.820312 56.921875 256.820312 Z M 81.554688 349.863281 C 58.359375 349.863281 39.539062 368.652344 39.539062 391.882812 C 39.539062 415.113281 58.359375 433.902344 81.554688 433.902344 C 96.417969 433.902344 109.421875 426.21875 116.914062 414.574219 L 117.214844 414.152344 L 116.972656 413.792969 C 113.078125 407.429688 110.859375 399.925781 110.859375 391.882812 C 110.859375 383.71875 113.199219 376.097656 117.214844 369.613281 C 109.78125 357.726562 96.597656 349.863281 81.554688 349.863281 Z M 152.8125 349.863281 C 137.949219 349.863281 124.945312 357.546875 117.453125 369.191406 L 117.152344 369.613281 L 117.394531 369.972656 C 121.289062 376.335938 123.507812 383.839844 123.507812 391.882812 C 123.507812 400.046875 121.167969 407.671875 117.152344 414.152344 C 124.585938 425.980469 137.769531 433.902344 152.8125 433.902344 C 167.675781 433.902344 180.683594 426.21875 188.171875 414.574219 L 188.472656 414.152344 L 188.234375 413.792969 C 184.339844 407.429688 182.121094 399.925781 182.121094 391.882812 C 182.121094 383.71875 184.457031 376.097656 188.472656 369.613281 C 181.042969 357.789062 167.855469 349.863281 152.8125 349.863281 Z M 224.074219 349.863281 C 209.210938 349.863281 196.203125 357.546875 188.714844 369.191406 L 188.414062 369.613281 L 188.652344 369.972656 C 192.550781 376.335938 194.765625 383.839844 194.765625 391.882812 C 194.765625 400.046875 192.429688 407.671875 188.414062 414.152344 C 195.84375 426.039062 209.03125 433.902344 224.074219 433.902344 C 247.269531 433.902344 266.085938 415.113281 266.085938 391.882812 C 266.085938 368.652344 247.269531 349.863281 224.074219 349.863281 Z M 224.074219 349.863281" stroke-linecap="round" />
</g>
		<g transform="matrix(1.33 0 0 1.33 -98.22 4.44)"  >
<path style="stroke: none; stroke-width: 1; stroke-dasharray: none; stroke-linecap: butt; stroke-dashoffset: 0; stroke-linejoin: miter; stroke-miterlimit: 4; fill: rgb(0,0,0); fill-rule: nonzero; opacity: 1;" vector-effect="non-scaling-stroke"  transform=" translate(-35.77, 42.62)" d="M 66.859375 -26.6875 C 66.578125 -22.394531 65.644531 -18.53125 64.0625 -15.09375 C 62.488281 -11.664062 60.375 -8.738281 57.71875 -6.3125 C 55.0625 -3.894531 51.898438 -2.03125 48.234375 -0.71875 C 44.566406 0.582031 40.507812 1.234375 36.0625 1.234375 C 31.03125 1.234375 26.5625 0.304688 22.65625 -1.546875 C 18.75 -3.398438 15.46875 -5.992188 12.8125 -9.328125 C 10.164062 -12.671875 8.140625 -16.679688 6.734375 -21.359375 C 5.328125 -26.046875 4.625 -31.203125 4.625 -36.828125 L 4.625 -48.296875 C 4.625 -53.953125 5.363281 -59.117188 6.84375 -63.796875 C 8.332031 -68.484375 10.441406 -72.503906 13.171875 -75.859375 C 15.898438 -79.222656 19.207031 -81.832031 23.09375 -83.6875 C 26.976562 -85.539062 31.335938 -86.46875 36.171875 -86.46875 C 40.859375 -86.46875 45.023438 -85.800781 48.671875 -84.46875 C 52.328125 -83.144531 55.441406 -81.253906 58.015625 -78.796875 C 60.585938 -76.335938 62.613281 -73.332031 64.09375 -69.78125 C 65.582031 -66.226562 66.519531 -62.226562 66.90625 -57.78125 L 50.515625 -57.78125 C 50.359375 -60.3125 49.976562 -62.535156 49.375 -64.453125 C 48.769531 -66.367188 47.890625 -67.957031 46.734375 -69.21875 C 45.585938 -70.488281 44.144531 -71.445312 42.40625 -72.09375 C 40.675781 -72.738281 38.597656 -73.0625 36.171875 -73.0625 C 33.640625 -73.0625 31.4375 -72.515625 29.5625 -71.421875 C 27.6875 -70.328125 26.132812 -68.722656 24.90625 -66.609375 C 23.675781 -64.503906 22.769531 -61.921875 22.1875 -58.859375 C 21.601562 -55.796875 21.3125 -52.3125 21.3125 -48.40625 L 21.3125 -36.828125 C 21.3125 -28.429688 22.488281 -22.222656 24.84375 -18.203125 C 27.207031 -14.179688 30.945312 -12.171875 36.0625 -12.171875 C 40.351562 -12.171875 43.75 -13.3125 46.25 -15.59375 C 48.75 -17.882812 50.132812 -21.582031 50.40625 -26.6875 Z M 66.859375 -26.6875" stroke-linecap="round" />
</g>
		<g transform="matrix(1.33 0 0 1.33 -1.23 19.86)"  >
<path style="stroke: none; stroke-width: 1; stroke-dasharray: none; stroke-linecap: butt; stroke-dashoffset: 0; stroke-linejoin: miter; stroke-miterlimit: 4; fill: rgb(0,0,0); fill-rule: nonzero; opacity: 1;" vector-effect="non-scaling-stroke"  transform=" translate(-36.55, 31.05)" d="M 48.640625 -8.890625 C 46.492188 -5.734375 43.910156 -3.253906 40.890625 -1.453125 C 37.867188 0.335938 34.5625 1.234375 30.96875 1.234375 C 27.6875 1.234375 24.679688 0.726562 21.953125 -0.28125 C 19.222656 -1.300781 16.878906 -2.914062 14.921875 -5.125 C 12.972656 -7.332031 11.460938 -10.140625 10.390625 -13.546875 C 9.316406 -16.960938 8.78125 -21.070312 8.78125 -25.875 L 8.78125 -63.34375 L 25.0625 -63.34375 L 25.0625 -25.75 C 25.0625 -23.175781 25.242188 -21.007812 25.609375 -19.25 C 25.984375 -17.5 26.578125 -16.085938 27.390625 -15.015625 C 28.210938 -13.941406 29.285156 -13.171875 30.609375 -12.703125 C 31.941406 -12.234375 33.5625 -12 35.46875 -12 C 38.707031 -12 41.34375 -12.613281 43.375 -13.84375 C 45.40625 -15.070312 46.945312 -16.757812 48 -18.90625 L 48 -63.34375 L 64.328125 -63.34375 L 64.328125 0 L 49.578125 0 Z M 48.640625 -8.890625" stroke-linecap="round" />
</g>
		<g transform="matrix(1.33 0 0 1.33 95.25 2.1)"  >
<path style="stroke: none; stroke-width: 1; stroke-dasharray: none; stroke-linecap: butt; stroke-dashoffset: 0; stroke-linejoin: miter; stroke-miterlimit: 4; fill: rgb(0,0,0); fill-rule: nonzero; opacity: 1;" vector-effect="non-scaling-stroke"  transform=" translate(-36.97, 44.38)" d="M 65.328125 -31.03125 C 65.328125 -26.300781 64.8125 -21.96875 63.78125 -18.03125 C 62.75 -14.09375 61.195312 -10.695312 59.125 -7.84375 C 57.050781 -5 54.472656 -2.785156 51.390625 -1.203125 C 48.316406 0.378906 44.726562 1.171875 40.625 1.171875 C 36.914062 1.171875 33.703125 0.476562 30.984375 -0.90625 C 28.273438 -2.289062 25.945312 -4.234375 24 -6.734375 L 23.234375 0 L 8.609375 0 L 8.609375 -89.921875 L 24.875 -89.921875 L 24.875 -57.609375 C 26.75 -59.785156 28.960938 -61.476562 31.515625 -62.6875 C 34.078125 -63.90625 37.078125 -64.515625 40.515625 -64.515625 C 44.648438 -64.515625 48.265625 -63.710938 51.359375 -62.109375 C 54.460938 -60.515625 57.050781 -58.289062 59.125 -55.4375 C 61.195312 -52.59375 62.75 -49.1875 63.78125 -45.21875 C 64.8125 -41.257812 65.328125 -36.9375 65.328125 -32.25 Z M 49.0625 -32.25 C 49.0625 -34.832031 48.863281 -37.273438 48.46875 -39.578125 C 48.082031 -41.878906 47.410156 -43.894531 46.453125 -45.625 C 45.492188 -47.363281 44.191406 -48.738281 42.546875 -49.75 C 40.910156 -50.769531 38.863281 -51.28125 36.40625 -51.28125 C 33.445312 -51.28125 31.039062 -50.65625 29.1875 -49.40625 C 27.332031 -48.15625 25.894531 -46.4375 24.875 -44.25 L 24.875 -19.03125 C 25.894531 -16.84375 27.332031 -15.125 29.1875 -13.875 C 31.039062 -12.625 33.488281 -12 36.53125 -12 C 38.988281 -12 41.015625 -12.476562 42.609375 -13.4375 C 44.210938 -14.394531 45.492188 -15.722656 46.453125 -17.421875 C 47.410156 -19.117188 48.082031 -21.125 48.46875 -23.4375 C 48.863281 -25.757812 49.0625 -28.289062 49.0625 -31.03125 Z M 49.0625 -32.25" stroke-linecap="round" />
</g>
		<g transform="matrix(1.33 0 0 1.33 190.29 19.03)"  >
<path style="stroke: none; stroke-width: 1; stroke-dasharray: none; stroke-linecap: butt; stroke-dashoffset: 0; stroke-linejoin: miter; stroke-miterlimit: 4; fill: rgb(0,0,0); fill-rule: nonzero; opacity: 1;" vector-effect="non-scaling-stroke"  transform=" translate(-36.3, 31.67)" d="M 38.984375 1.171875 C 34.109375 1.171875 29.679688 0.375 25.703125 -1.21875 C 21.722656 -2.820312 18.304688 -5 15.453125 -7.75 C 12.609375 -10.507812 10.414062 -13.75 8.875 -17.46875 C 7.332031 -21.195312 6.5625 -25.191406 6.5625 -29.453125 L 6.5625 -31.78125 C 6.5625 -36.625 7.320312 -41.046875 8.84375 -45.046875 C 10.363281 -49.046875 12.488281 -52.488281 15.21875 -55.375 C 17.945312 -58.269531 21.1875 -60.515625 24.9375 -62.109375 C 28.6875 -63.710938 32.765625 -64.515625 37.171875 -64.515625 C 41.734375 -64.515625 45.800781 -63.757812 49.375 -62.25 C 52.945312 -60.75 55.972656 -58.632812 58.453125 -55.90625 C 60.929688 -53.175781 62.8125 -49.890625 64.09375 -46.046875 C 65.382812 -42.203125 66.03125 -37.957031 66.03125 -33.3125 L 66.03125 -26.40625 L 23.0625 -26.40625 C 23.375 -24.257812 24.007812 -22.296875 24.96875 -20.515625 C 25.925781 -18.742188 27.144531 -17.210938 28.625 -15.921875 C 30.101562 -14.628906 31.800781 -13.632812 33.71875 -12.9375 C 35.632812 -12.238281 37.722656 -11.890625 39.984375 -11.890625 C 41.585938 -11.890625 43.175781 -12.046875 44.75 -12.359375 C 46.332031 -12.671875 47.84375 -13.128906 49.28125 -13.734375 C 50.726562 -14.335938 52.078125 -15.085938 53.328125 -15.984375 C 54.578125 -16.878906 55.671875 -17.929688 56.609375 -19.140625 L 64.75 -10.359375 C 63.726562 -8.921875 62.40625 -7.507812 60.78125 -6.125 C 59.164062 -4.738281 57.253906 -3.503906 55.046875 -2.421875 C 52.847656 -1.347656 50.398438 -0.484375 47.703125 0.171875 C 45.015625 0.835938 42.109375 1.171875 38.984375 1.171875 Z M 37.0625 -51.34375 C 35.21875 -51.34375 33.535156 -51.019531 32.015625 -50.375 C 30.492188 -49.726562 29.15625 -48.800781 28 -47.59375 C 26.851562 -46.382812 25.890625 -44.941406 25.109375 -43.265625 C 24.328125 -41.585938 23.742188 -39.710938 23.359375 -37.640625 L 50.046875 -37.640625 L 50.046875 -38.921875 C 49.972656 -40.640625 49.640625 -42.257812 49.046875 -43.78125 C 48.460938 -45.3125 47.625 -46.628906 46.53125 -47.734375 C 45.445312 -48.847656 44.113281 -49.726562 42.53125 -50.375 C 40.945312 -51.019531 39.125 -51.34375 37.0625 -51.34375 Z M 37.0625 -51.34375" stroke-linecap="round" />
</g>
		<g transform="matrix(1.33 0 0 1.33 382.77 4.44)"  >
<path style="stroke: none; stroke-width: 1; stroke-dasharray: none; stroke-linecap: butt; stroke-dashoffset: 0; stroke-linejoin: miter; stroke-miterlimit: 4; fill: rgb(0,0,0); fill-rule: nonzero; opacity: 1;" vector-effect="non-scaling-stroke"  transform=" translate(-36.77, 42.62)" d="M 49.578125 -17.796875 L 24 -17.796875 L 18.96875 0 L 1.640625 0 L 29.5625 -85.234375 L 44.484375 -85.234375 L 71.890625 0 L 54.5625 0 Z M 28.046875 -31.78125 L 45.71875 -31.78125 L 37 -63.171875 Z M 28.046875 -31.78125" stroke-linecap="round" />
</g>
		<g transform="matrix(1.33 0 0 1.33 477.61 4.44)"  >
<path style="stroke: none; stroke-width: 1; stroke-dasharray: none; stroke-linecap: butt; stroke-dashoffset: 0; stroke-linejoin: miter; stroke-miterlimit: 4; fill: rgb(0,0,0); fill-rule: nonzero; opacity: 1;" vector-effect="non-scaling-stroke"  transform=" translate(-35.95, 42.62)" d="M 11.296875 -85.234375 L 60.59375 -85.234375 L 60.59375 -71.953125 L 43.96875 -71.953125 L 43.96875 -13.234375 L 60.59375 -13.234375 L 60.59375 0 L 11.296875 0 L 11.296875 -13.234375 L 27.515625 -13.234375 L 27.515625 -71.953125 L 11.296875 -71.953125 Z M 11.296875 -85.234375" stroke-linecap="round" />
</g>
</g>
</g>
</svg>