<?xml version="1.0" encoding="UTF-8" standalone="no" ?>
<!DOCTYPE svg PUBLIC "-//W3C//DTD SVG 1.1//EN" "http://www.w3.org/Graphics/SVG/1.1/DTD/svg11.dtd">
<svg xmlns="http://www.w3.org/2000/svg" xmlns:xlink="http://www.w3.org/1999/xlink" version="1.1" width="1920" height="1920" viewBox="0 0 1920 1920" xml:space="preserve">
<desc>Created with Fabric.js 5.2.4</desc>
<defs>
</defs>
<g transform="matrix(1 0 0 1 960 960)" id="54dca193-d576-4099-8115-89897cd70190"  >
<rect style="stroke: none; stroke-width: 1; stroke-dasharray: none; stroke-linecap: butt; stroke-dashoffset: 0; stroke-linejoin: miter; stroke-miterlimit: 4; fill: rgb(255,255,255); fill-rule: nonzero; opacity: 1; visibility: hidden;" vector-effect="non-scaling-stroke"  x="-960" y="-960" rx="0" ry="0" width="1920" height="1920" />
</g>
<g transform="matrix(Infinity NaN NaN Infinity 0 0)" id="11d6918b-b9ac-4749-a9a7-10d6d185308d"  >
</g>
<g transform="matrix(3.37 0 0 3.37 960 960)"  >
<g style="" vector-effect="non-scaling-stroke"   >
		<g transform="matrix(1.33 0 0 1.33 0 -37.43)" clip-path="url(#CLIPPATH_3)"  >
<clipPath id="CLIPPATH_3" >
	<path transform="matrix(1 0 0 1 0 0) translate(-405.07, -405)" id="db0b949e74" d="M 263.324219 263 L 546.824219 263 L 546.824219 547 L 263.324219 547 Z M 263.324219 263" stroke-linecap="round" />
</clipPath>
<path style="stroke: none; stroke-width: 1; stroke-dasharray: none; stroke-linecap: butt; stroke-dashoffset: 0; stroke-linejoin: miter; stroke-miterlimit: 4; fill: rgb(0,0,0); fill-rule: nonzero; opacity: 1;" vector-effect="non-scaling-stroke"  transform=" translate(-405.07, -405)" d="M 506.324219 263.328125 C 528.660156 263.328125 546.824219 281.476562 546.824219 303.804688 L 546.824219 506.195312 C 546.824219 528.523438 528.660156 546.671875 506.324219 546.671875 L 303.824219 546.671875 C 281.484375 546.671875 263.324219 528.523438 263.324219 506.195312 L 263.324219 303.804688 C 263.324219 281.476562 281.484375 263.328125 303.824219 263.328125 Z M 329.832031 361.359375 C 305.34375 361.359375 285.472656 381.15625 285.472656 405.632812 C 285.472656 430.109375 305.34375 449.90625 329.832031 449.90625 C 345.527344 449.90625 359.257812 441.808594 367.167969 429.539062 L 367.484375 429.097656 L 367.230469 428.71875 C 363.117188 422.011719 360.777344 414.109375 360.777344 405.632812 C 360.777344 397.03125 363.246094 389 367.484375 382.167969 C 359.636719 369.644531 345.714844 361.359375 329.832031 361.359375 Z M 405.074219 361.359375 C 389.378906 361.359375 375.648438 369.453125 367.738281 381.726562 L 367.421875 382.167969 L 367.675781 382.546875 C 371.789062 389.25 374.128906 397.15625 374.128906 405.632812 C 374.128906 414.234375 371.660156 422.265625 367.421875 429.097656 C 375.269531 441.558594 389.191406 449.90625 405.074219 449.90625 C 420.765625 449.90625 434.5 441.808594 442.410156 429.539062 L 442.726562 429.097656 L 442.472656 428.71875 C 438.359375 422.011719 436.019531 414.109375 436.019531 405.632812 C 436.019531 397.03125 438.484375 389 442.726562 382.167969 C 434.878906 369.707031 420.957031 361.359375 405.074219 361.359375 Z M 480.316406 361.359375 C 464.621094 361.359375 450.890625 369.453125 442.980469 381.726562 L 442.664062 382.167969 L 442.914062 382.546875 C 447.027344 389.25 449.371094 397.15625 449.371094 405.632812 C 449.371094 414.234375 446.902344 422.265625 442.664062 429.097656 C 450.507812 441.621094 464.429688 449.90625 480.316406 449.90625 C 504.804688 449.90625 524.675781 430.109375 524.675781 405.632812 C 524.675781 381.15625 504.804688 361.359375 480.316406 361.359375 Z M 480.316406 361.359375" stroke-linecap="round" />
</g>
		<g transform="matrix(1.33 0 0 1.33 -134.59 203.01)"  >
<path style="stroke: none; stroke-width: 1; stroke-dasharray: none; stroke-linecap: butt; stroke-dashoffset: 0; stroke-linejoin: miter; stroke-miterlimit: 4; fill: rgb(0,0,0); fill-rule: nonzero; opacity: 1;" vector-effect="non-scaling-stroke"  transform=" translate(-16.73, 16.58)" d="M 25.59375 -31.71875 C 25.9375 -32.195312 26.3125 -32.550781 26.71875 -32.78125 C 27.132812 -33.019531 27.582031 -33.140625 28.0625 -33.140625 C 28.875 -33.140625 29.539062 -32.859375 30.0625 -32.296875 C 30.582031 -31.734375 30.84375 -30.773438 30.84375 -29.421875 L 30.84375 -24.671875 C 30.84375 -23.316406 30.582031 -22.351562 30.0625 -21.78125 C 29.539062 -21.207031 28.875 -20.921875 28.0625 -20.921875 C 27.3125 -20.921875 26.707031 -21.128906 26.25 -21.546875 C 25.789062 -21.960938 25.453125 -22.75 25.234375 -23.90625 C 25.109375 -24.664062 24.851562 -25.253906 24.46875 -25.671875 C 23.726562 -26.492188 22.6875 -27.148438 21.34375 -27.640625 C 20 -28.140625 18.65625 -28.390625 17.3125 -28.390625 C 15.632812 -28.390625 14.09375 -28.023438 12.6875 -27.296875 C 11.28125 -26.566406 10.039062 -25.378906 8.96875 -23.734375 C 7.894531 -22.097656 7.359375 -20.148438 7.359375 -17.890625 L 7.359375 -14.25 C 7.359375 -11.550781 8.335938 -9.296875 10.296875 -7.484375 C 12.253906 -5.679688 14.972656 -4.78125 18.453125 -4.78125 C 20.535156 -4.78125 22.296875 -5.066406 23.734375 -5.640625 C 24.578125 -5.960938 25.472656 -6.609375 26.421875 -7.578125 C 27.003906 -8.160156 27.457031 -8.535156 27.78125 -8.703125 C 28.113281 -8.878906 28.488281 -8.96875 28.90625 -8.96875 C 29.65625 -8.96875 30.3125 -8.6875 30.875 -8.125 C 31.4375 -7.5625 31.71875 -6.894531 31.71875 -6.125 C 31.71875 -5.363281 31.335938 -4.546875 30.578125 -3.671875 C 29.460938 -2.390625 28.03125 -1.382812 26.28125 -0.65625 C 23.925781 0.332031 21.328125 0.828125 18.484375 0.828125 C 15.171875 0.828125 12.179688 0.140625 9.515625 -1.234375 C 7.367188 -2.328125 5.535156 -4.050781 4.015625 -6.40625 C 2.503906 -8.769531 1.75 -11.347656 1.75 -14.140625 L 1.75 -17.9375 C 1.75 -20.851562 2.425781 -23.570312 3.78125 -26.09375 C 5.144531 -28.625 7.03125 -30.570312 9.4375 -31.9375 C 11.84375 -33.300781 14.394531 -33.984375 17.09375 -33.984375 C 18.71875 -33.984375 20.234375 -33.796875 21.640625 -33.421875 C 23.054688 -33.054688 24.375 -32.488281 25.59375 -31.71875 Z M 25.59375 -31.71875" stroke-linecap="round" />
</g>
		<g transform="matrix(1.33 0 0 1.33 -90.1 209.16)"  >
<path style="stroke: none; stroke-width: 1; stroke-dasharray: none; stroke-linecap: butt; stroke-dashoffset: 0; stroke-linejoin: miter; stroke-miterlimit: 4; fill: rgb(0,0,0); fill-rule: nonzero; opacity: 1;" vector-effect="non-scaling-stroke"  transform=" translate(-16.51, 11.96)" d="M 28.71875 -24.828125 L 28.71875 -5.609375 C 29.894531 -5.609375 30.765625 -5.34375 31.328125 -4.8125 C 31.898438 -4.28125 32.1875 -3.609375 32.1875 -2.796875 C 32.1875 -1.972656 31.898438 -1.300781 31.328125 -0.78125 C 30.753906 -0.257812 29.789062 0 28.4375 0 L 23.109375 0 L 23.109375 -1.28125 C 21.503906 -0.550781 19.972656 -0.00390625 18.515625 0.359375 C 17.054688 0.722656 15.671875 0.90625 14.359375 0.90625 C 12.515625 0.90625 10.914062 0.519531 9.5625 -0.25 C 8.21875 -1.03125 7.15625 -2.101562 6.375 -3.46875 C 5.8125 -4.457031 5.53125 -5.691406 5.53125 -7.171875 L 5.53125 -19.21875 L 4.5625 -19.21875 C 3.21875 -19.21875 2.257812 -19.476562 1.6875 -20 C 1.113281 -20.519531 0.828125 -21.203125 0.828125 -22.046875 C 0.828125 -22.859375 1.113281 -23.523438 1.6875 -24.046875 C 2.257812 -24.566406 3.21875 -24.828125 4.5625 -24.828125 L 11.125 -24.828125 L 11.125 -8.15625 C 11.125 -6.96875 11.410156 -6.09375 11.984375 -5.53125 C 12.566406 -4.976562 13.445312 -4.703125 14.625 -4.703125 C 15.757812 -4.703125 16.976562 -4.925781 18.28125 -5.375 C 19.582031 -5.820312 21.191406 -6.628906 23.109375 -7.796875 L 23.109375 -19.21875 L 21.078125 -19.21875 C 19.734375 -19.21875 18.773438 -19.476562 18.203125 -20 C 17.628906 -20.519531 17.34375 -21.203125 17.34375 -22.046875 C 17.34375 -22.859375 17.628906 -23.523438 18.203125 -24.046875 C 18.773438 -24.566406 19.734375 -24.828125 21.078125 -24.828125 Z M 28.71875 -24.828125" stroke-linecap="round" />
</g>
		<g transform="matrix(1.33 0 0 1.33 -46.28 202.07)"  >
<path style="stroke: none; stroke-width: 1; stroke-dasharray: none; stroke-linecap: butt; stroke-dashoffset: 0; stroke-linejoin: miter; stroke-miterlimit: 4; fill: rgb(0,0,0); fill-rule: nonzero; opacity: 1;" vector-effect="non-scaling-stroke"  transform=" translate(-15.77, 17.28)" d="M 9.734375 -35.46875 L 9.734375 -22.890625 C 11.097656 -23.785156 12.488281 -24.453125 13.90625 -24.890625 C 15.320312 -25.335938 16.75 -25.5625 18.1875 -25.5625 C 22.070312 -25.5625 25.363281 -24.222656 28.0625 -21.546875 C 30.757812 -18.867188 32.109375 -15.632812 32.109375 -11.84375 C 32.109375 -8.21875 30.820312 -5.1875 28.25 -2.75 C 25.675781 -0.3125 22.285156 0.90625 18.078125 0.90625 C 16.578125 0.90625 15.132812 0.710938 13.75 0.328125 C 12.363281 -0.0546875 11.023438 -0.625 9.734375 -1.375 L 9.734375 0 L 3.171875 0 C 1.828125 0 0.863281 -0.257812 0.28125 -0.78125 C -0.289062 -1.300781 -0.578125 -1.976562 -0.578125 -2.8125 C -0.578125 -3.632812 -0.285156 -4.304688 0.296875 -4.828125 C 0.878906 -5.347656 1.835938 -5.609375 3.171875 -5.609375 L 4.125 -5.609375 L 4.125 -29.859375 L 3.171875 -29.859375 C 1.828125 -29.859375 0.863281 -30.117188 0.28125 -30.640625 C -0.289062 -31.160156 -0.578125 -31.835938 -0.578125 -32.671875 C -0.578125 -33.492188 -0.289062 -34.164062 0.28125 -34.6875 C 0.863281 -35.207031 1.828125 -35.46875 3.171875 -35.46875 Z M 26.5 -11.671875 C 26.5 -13.992188 25.6875 -15.957031 24.0625 -17.5625 C 22.4375 -19.164062 20.453125 -19.96875 18.109375 -19.96875 C 15.773438 -19.96875 13.796875 -19.164062 12.171875 -17.5625 C 10.546875 -15.957031 9.734375 -14.023438 9.734375 -11.765625 C 9.734375 -9.703125 10.460938 -8.007812 11.921875 -6.6875 C 13.378906 -5.363281 15.441406 -4.703125 18.109375 -4.703125 C 20.765625 -4.703125 22.828125 -5.363281 24.296875 -6.6875 C 25.765625 -8.007812 26.5 -9.671875 26.5 -11.671875 Z M 26.5 -11.671875" stroke-linecap="round" />
</g>
		<g transform="matrix(1.33 0 0 1.33 -0.69 208.68)"  >
<path style="stroke: none; stroke-width: 1; stroke-dasharray: none; stroke-linecap: butt; stroke-dashoffset: 0; stroke-linejoin: miter; stroke-miterlimit: 4; fill: rgb(0,0,0); fill-rule: nonzero; opacity: 1;" vector-effect="non-scaling-stroke"  transform=" translate(-16.36, 12.33)" d="M 30.875 -9.578125 L 7.875 -9.578125 C 8.457031 -8.117188 9.488281 -6.941406 10.96875 -6.046875 C 12.457031 -5.148438 14.472656 -4.703125 17.015625 -4.703125 C 19.085938 -4.703125 21.847656 -5.148438 25.296875 -6.046875 C 26.710938 -6.410156 27.695312 -6.59375 28.25 -6.59375 C 29 -6.59375 29.628906 -6.328125 30.140625 -5.796875 C 30.648438 -5.265625 30.90625 -4.597656 30.90625 -3.796875 C 30.90625 -3.066406 30.628906 -2.445312 30.078125 -1.9375 C 29.347656 -1.269531 27.570312 -0.628906 24.75 -0.015625 C 21.925781 0.597656 19.207031 0.90625 16.59375 0.90625 C 12.113281 0.90625 8.53125 -0.359375 5.84375 -2.890625 C 3.15625 -5.429688 1.8125 -8.550781 1.8125 -12.25 C 1.8125 -16.1875 3.265625 -19.390625 6.171875 -21.859375 C 9.078125 -24.328125 12.425781 -25.5625 16.21875 -25.5625 C 18.5 -25.5625 20.585938 -25.160156 22.484375 -24.359375 C 24.390625 -23.554688 25.8125 -22.691406 26.75 -21.765625 C 28.0625 -20.421875 29.144531 -18.753906 30 -16.765625 C 30.582031 -15.378906 30.875 -13.773438 30.875 -11.953125 Z M 24.671875 -15.171875 C 23.804688 -16.773438 22.679688 -17.972656 21.296875 -18.765625 C 19.910156 -19.566406 18.265625 -19.96875 16.359375 -19.96875 C 14.460938 -19.96875 12.820312 -19.566406 11.4375 -18.765625 C 10.050781 -17.972656 8.921875 -16.773438 8.046875 -15.171875 Z M 24.671875 -15.171875" stroke-linecap="round" />
</g>
		<g transform="matrix(1.33 0 0 1.33 89.51 203)"  >
<path style="stroke: none; stroke-width: 1; stroke-dasharray: none; stroke-linecap: butt; stroke-dashoffset: 0; stroke-linejoin: miter; stroke-miterlimit: 4; fill: rgb(0,0,0); fill-rule: nonzero; opacity: 1;" vector-effect="non-scaling-stroke"  transform=" translate(-16.81, 16.59)" d="M 23.65625 -9.03125 L 10.03125 -9.03125 L 8.671875 -5.609375 L 10.03125 -5.609375 C 11.382812 -5.609375 12.347656 -5.347656 12.921875 -4.828125 C 13.492188 -4.304688 13.78125 -3.628906 13.78125 -2.796875 C 13.78125 -1.972656 13.492188 -1.300781 12.921875 -0.78125 C 12.347656 -0.257812 11.382812 0 10.03125 0 L 2.484375 0 C 1.140625 0 0.179688 -0.257812 -0.390625 -0.78125 C -0.972656 -1.300781 -1.265625 -1.976562 -1.265625 -2.8125 C -1.265625 -3.65625 -0.960938 -4.335938 -0.359375 -4.859375 C 0.242188 -5.390625 1.238281 -5.640625 2.625 -5.609375 L 11.4375 -27.53125 L 7.765625 -27.53125 C 6.421875 -27.53125 5.457031 -27.789062 4.875 -28.3125 C 4.300781 -28.832031 4.015625 -29.515625 4.015625 -30.359375 C 4.015625 -31.191406 4.300781 -31.867188 4.875 -32.390625 C 5.457031 -32.910156 6.421875 -33.171875 7.765625 -33.171875 L 19.875 -33.140625 L 31.03125 -5.609375 C 32.34375 -5.609375 33.210938 -5.460938 33.640625 -5.171875 C 34.472656 -4.566406 34.890625 -3.773438 34.890625 -2.796875 C 34.890625 -1.972656 34.609375 -1.300781 34.046875 -0.78125 C 33.484375 -0.257812 32.523438 0 31.171875 0 L 23.625 0 C 22.28125 0 21.316406 -0.257812 20.734375 -0.78125 C 20.160156 -1.300781 19.875 -1.976562 19.875 -2.8125 C 19.875 -3.632812 20.160156 -4.304688 20.734375 -4.828125 C 21.316406 -5.347656 22.28125 -5.609375 23.625 -5.609375 L 25 -5.609375 Z M 21.328125 -14.625 L 16.8125 -25.734375 L 12.28125 -14.625 Z M 21.328125 -14.625" stroke-linecap="round" />
</g>
		<g transform="matrix(1.33 0 0 1.33 134.31 203)"  >
<path style="stroke: none; stroke-width: 1; stroke-dasharray: none; stroke-linecap: butt; stroke-dashoffset: 0; stroke-linejoin: miter; stroke-miterlimit: 4; fill: rgb(0,0,0); fill-rule: nonzero; opacity: 1;" vector-effect="non-scaling-stroke"  transform=" translate(-16.8, 16.59)" d="M 19.609375 -27.53125 L 19.609375 -5.609375 L 25.265625 -5.609375 C 26.617188 -5.609375 27.582031 -5.347656 28.15625 -4.828125 C 28.726562 -4.304688 29.015625 -3.628906 29.015625 -2.796875 C 29.015625 -1.972656 28.726562 -1.300781 28.15625 -0.78125 C 27.582031 -0.257812 26.617188 0 25.265625 0 L 8.34375 0 C 6.988281 0 6.023438 -0.257812 5.453125 -0.78125 C 4.878906 -1.300781 4.59375 -1.976562 4.59375 -2.8125 C 4.59375 -3.632812 4.878906 -4.304688 5.453125 -4.828125 C 6.023438 -5.347656 6.988281 -5.609375 8.34375 -5.609375 L 14 -5.609375 L 14 -27.53125 L 8.34375 -27.53125 C 6.988281 -27.53125 6.023438 -27.789062 5.453125 -28.3125 C 4.878906 -28.832031 4.59375 -29.515625 4.59375 -30.359375 C 4.59375 -31.191406 4.878906 -31.867188 5.453125 -32.390625 C 6.023438 -32.910156 6.988281 -33.171875 8.34375 -33.171875 L 25.265625 -33.140625 C 26.617188 -33.140625 27.582031 -32.882812 28.15625 -32.375 C 28.726562 -31.863281 29.015625 -31.191406 29.015625 -30.359375 C 29.015625 -29.515625 28.726562 -28.832031 28.15625 -28.3125 C 27.582031 -27.789062 26.617188 -27.53125 25.265625 -27.53125 Z M 19.609375 -27.53125" stroke-linecap="round" />
</g>
</g>
</g>
</svg>