<?xml version="1.0" encoding="UTF-8"?>
<svg id="Layer_1" xmlns="http://www.w3.org/2000/svg" width="500" height="500" viewBox="0 0 500 500">
  <defs>
    <style>
      .cls-1 {
        fill: #fff;
      }
    </style>
  </defs>
  <g>
    <path class="cls-1" d="M118.69,416.29c-1.01,8.61-4.18,15.25-9.53,19.92-5.35,4.68-12.45,7.01-21.32,7.01-9.61,0-17.31-3.45-23.11-10.34-5.79-6.89-8.69-16.11-8.69-27.66v-7.82c0-7.56,1.35-14.21,4.05-19.95,2.7-5.74,6.53-10.14,11.48-13.22,4.95-3.07,10.69-4.61,17.21-4.61,8.64,0,15.57,2.41,20.79,7.24,5.22,4.83,8.25,11.5,9.11,20.03h-10.79c-.93-6.5-2.95-11.21-6.06-14.12-3.11-2.91-7.46-4.37-13.05-4.37-6.86,0-12.23,2.54-16.12,7.61-3.89,5.07-5.84,12.29-5.84,21.64v7.89c0,8.84,1.84,15.87,5.53,21.09,3.69,5.22,8.85,7.83,15.48,7.83,5.96,0,10.53-1.35,13.72-4.05,3.19-2.7,5.3-7.4,6.34-14.11h10.79Z"/>
    <path class="cls-1" d="M169.04,436.13c-4.02,4.73-9.93,7.1-17.71,7.1-6.45,0-11.35-1.87-14.73-5.62-3.37-3.74-5.08-9.29-5.11-16.62v-39.34h10.34v39.06c0,9.16,3.72,13.75,11.18,13.75,7.9,0,13.15-2.94,15.76-8.83v-43.98h10.34v60.46h-9.84l-.22-5.98Z"/>
    <path class="cls-1" d="M245.99,412.55c0,9.24-2.12,16.66-6.37,22.27-4.25,5.61-9.95,8.41-17.1,8.41-7.64,0-13.54-2.7-17.71-8.1l-.5,6.99h-9.5v-85.84h10.34v32.02c4.17-5.18,9.93-7.77,17.27-7.77s13.1,2.78,17.3,8.33c4.19,5.55,6.29,13.15,6.29,22.8v.89ZM235.66,411.38c0-7.04-1.36-12.48-4.08-16.32-2.72-3.84-6.63-5.76-11.74-5.76-6.82,0-11.72,3.17-14.7,9.5v26.15c3.17,6.33,8.1,9.5,14.81,9.5,4.95,0,8.81-1.92,11.57-5.76,2.76-3.84,4.14-9.61,4.14-17.32Z"/>
    <path class="cls-1" d="M284.11,443.23c-8.2,0-14.86-2.69-20.01-8.08-5.14-5.38-7.71-12.58-7.71-21.6v-1.9c0-6,1.15-11.35,3.44-16.07,2.29-4.71,5.5-8.4,9.61-11.07,4.12-2.66,8.58-4,13.38-4,7.86,0,13.97,2.59,18.33,7.77,4.36,5.18,6.54,12.59,6.54,22.24v4.3h-40.96c.15,5.96,1.89,10.78,5.23,14.45,3.33,3.67,7.57,5.5,12.71,5.5,3.65,0,6.74-.74,9.28-2.24,2.53-1.49,4.75-3.46,6.65-5.92l6.31,4.92c-5.07,7.79-12.67,11.68-22.8,11.68ZM282.82,389.02c-4.17,0-7.68,1.52-10.51,4.55-2.83,3.04-4.58,7.29-5.25,12.77h30.29v-.78c-.3-5.25-1.71-9.32-4.25-12.21-2.53-2.89-5.96-4.33-10.28-4.33Z"/>
    <path class="cls-1" d="M400.71,420.82h-34.09l-7.66,21.29h-11.07l31.07-81.37h9.39l31.13,81.37h-11.01l-7.77-21.29ZM369.87,412.05h27.66l-13.86-38.06-13.8,38.06Z"/>
    <path class="cls-1" d="M441.96,442.11h-10.73v-81.37h10.73v81.37Z"/>
  </g>
  <path class="cls-1" d="M356.31,56.77v112.7h-113.52v113.52h-112.7v11.61h237.83V56.77h-11.61ZM248.59,282.99v-107.72h107.72v107.72h-107.72Z"/>
</svg>