<?xml version="1.0" encoding="UTF-8" standalone="no" ?>
<!DOCTYPE svg PUBLIC "-//W3C//DTD SVG 1.1//EN" "http://www.w3.org/Graphics/SVG/1.1/DTD/svg11.dtd">
<svg xmlns="http://www.w3.org/2000/svg" xmlns:xlink="http://www.w3.org/1999/xlink" version="1.1" width="1080" height="1080" viewBox="0 0 1080 1080" xml:space="preserve">
<desc>Created with Fabric.js 5.2.4</desc>
<defs>
</defs>
<rect x="0" y="0" width="100%" height="100%" fill="transparent"></rect>
<g transform="matrix(1 0 0 1 540 540)" id="46f6c900-2e1c-4f77-89f7-fa5fd5cd9eff"  >
<rect style="stroke: none; stroke-width: 1; stroke-dasharray: none; stroke-linecap: butt; stroke-dashoffset: 0; stroke-linejoin: miter; stroke-miterlimit: 4; fill: rgb(255,255,255); fill-rule: nonzero; opacity: 1; visibility: hidden;" vector-effect="non-scaling-stroke"  x="-540" y="-540" rx="0" ry="0" width="1080" height="1080" />
</g>
<g transform="matrix(1 0 0 1 540 540)" id="5edaada7-5ecb-469c-98c8-76a7790e790f"  >
</g>
<g transform="matrix(1 0 0 1 540 540)"  >
<g style="" vector-effect="non-scaling-stroke"   >
		<g transform="matrix(1.33 0 0 1.33 0 -82.64)" clip-path="url(#CLIPPATH_5)"  >
<clipPath id="CLIPPATH_5" >
	<path transform="matrix(1 0 0 1 0 0.02) translate(-404.85, -324)" id="846053" d="M 148.351562 67 L 661.351562 67 L 661.351562 581 L 148.351562 581 Z M 148.351562 67" stroke-linecap="round" />
</clipPath>
<path style="stroke: none; stroke-width: 1; stroke-dasharray: none; stroke-linecap: butt; stroke-dashoffset: 0; stroke-linejoin: miter; stroke-miterlimit: 4; fill: rgb(255,255,255); fill-rule: nonzero; opacity: 1;" vector-effect="non-scaling-stroke"  transform=" translate(-404.85, -323.98)" d="M 588.066406 67.1875 C 628.488281 67.1875 661.351562 100.089844 661.351562 140.558594 L 661.351562 507.402344 C 661.351562 547.867188 628.488281 580.769531 588.066406 580.769531 L 221.636719 580.769531 C 181.21875 580.769531 148.351562 547.867188 148.351562 507.402344 L 148.351562 140.558594 C 148.351562 100.089844 181.21875 67.1875 221.636719 67.1875 Z M 268.703125 244.878906 C 224.386719 244.878906 188.429688 280.761719 188.429688 325.125 C 188.429688 369.492188 224.386719 405.371094 268.703125 405.371094 C 297.101562 405.371094 321.949219 390.699219 336.261719 368.457031 L 336.835938 367.65625 L 336.375 366.96875 C 328.933594 354.816406 324.695312 340.488281 324.695312 325.125 C 324.695312 309.535156 329.164062 294.976562 336.835938 282.59375 C 322.636719 259.894531 297.445312 244.878906 268.703125 244.878906 Z M 404.851562 244.878906 C 376.453125 244.878906 351.605469 259.550781 337.292969 281.792969 L 336.71875 282.59375 L 337.179688 283.28125 C 344.621094 295.433594 348.859375 309.765625 348.859375 325.125 C 348.859375 340.714844 344.390625 355.277344 336.71875 367.65625 C 350.917969 390.238281 376.109375 405.371094 404.851562 405.371094 C 433.25 405.371094 458.097656 390.699219 472.414062 368.457031 L 472.984375 367.65625 L 472.527344 366.96875 C 465.085938 354.816406 460.847656 340.488281 460.847656 325.125 C 460.847656 309.535156 465.3125 294.976562 472.984375 282.59375 C 458.785156 260.011719 433.59375 244.878906 404.851562 244.878906 Z M 541.003906 244.878906 C 512.605469 244.878906 487.757812 259.550781 473.445312 281.792969 L 472.871094 282.59375 L 473.328125 283.28125 C 480.773438 295.433594 485.007812 309.765625 485.007812 325.125 C 485.007812 340.714844 480.542969 355.277344 472.871094 367.65625 C 487.070312 390.355469 512.261719 405.371094 541.003906 405.371094 C 585.320312 405.371094 621.273438 369.492188 621.273438 325.125 C 621.273438 280.761719 585.320312 244.878906 541.003906 244.878906 Z M 541.003906 244.878906" stroke-linecap="round" />
</g>
		<g transform="matrix(1.33 0 0 1.33 -287.89 366.56)"  >
<path style="stroke: none; stroke-width: 1; stroke-dasharray: none; stroke-linecap: butt; stroke-dashoffset: 0; stroke-linejoin: miter; stroke-miterlimit: 4; fill: rgb(255,255,255); fill-rule: nonzero; opacity: 1;" vector-effect="non-scaling-stroke"  transform=" translate(-35.77, 42.62)" d="M 66.859375 -26.6875 C 66.578125 -22.394531 65.644531 -18.53125 64.0625 -15.09375 C 62.488281 -11.664062 60.375 -8.738281 57.71875 -6.3125 C 55.0625 -3.894531 51.898438 -2.03125 48.234375 -0.71875 C 44.566406 0.582031 40.507812 1.234375 36.0625 1.234375 C 31.03125 1.234375 26.5625 0.304688 22.65625 -1.546875 C 18.75 -3.398438 15.46875 -5.992188 12.8125 -9.328125 C 10.164062 -12.671875 8.140625 -16.679688 6.734375 -21.359375 C 5.328125 -26.046875 4.625 -31.203125 4.625 -36.828125 L 4.625 -48.296875 C 4.625 -53.953125 5.363281 -59.117188 6.84375 -63.796875 C 8.332031 -68.484375 10.441406 -72.503906 13.171875 -75.859375 C 15.898438 -79.222656 19.207031 -81.832031 23.09375 -83.6875 C 26.976562 -85.539062 31.335938 -86.46875 36.171875 -86.46875 C 40.859375 -86.46875 45.023438 -85.800781 48.671875 -84.46875 C 52.328125 -83.144531 55.441406 -81.253906 58.015625 -78.796875 C 60.585938 -76.335938 62.613281 -73.332031 64.09375 -69.78125 C 65.582031 -66.226562 66.519531 -62.226562 66.90625 -57.78125 L 50.515625 -57.78125 C 50.359375 -60.3125 49.976562 -62.535156 49.375 -64.453125 C 48.769531 -66.367188 47.890625 -67.957031 46.734375 -69.21875 C 45.585938 -70.488281 44.144531 -71.445312 42.40625 -72.09375 C 40.675781 -72.738281 38.597656 -73.0625 36.171875 -73.0625 C 33.640625 -73.0625 31.4375 -72.515625 29.5625 -71.421875 C 27.6875 -70.328125 26.132812 -68.722656 24.90625 -66.609375 C 23.675781 -64.503906 22.769531 -61.921875 22.1875 -58.859375 C 21.601562 -55.796875 21.3125 -52.3125 21.3125 -48.40625 L 21.3125 -36.828125 C 21.3125 -28.429688 22.488281 -22.222656 24.84375 -18.203125 C 27.207031 -14.179688 30.945312 -12.171875 36.0625 -12.171875 C 40.351562 -12.171875 43.75 -13.3125 46.25 -15.59375 C 48.75 -17.882812 50.132812 -21.582031 50.40625 -26.6875 Z M 66.859375 -26.6875" stroke-linecap="round" />
</g>
		<g transform="matrix(1.33 0 0 1.33 -190.91 381.97)"  >
<path style="stroke: none; stroke-width: 1; stroke-dasharray: none; stroke-linecap: butt; stroke-dashoffset: 0; stroke-linejoin: miter; stroke-miterlimit: 4; fill: rgb(255,255,255); fill-rule: nonzero; opacity: 1;" vector-effect="non-scaling-stroke"  transform=" translate(-36.55, 31.05)" d="M 48.640625 -8.890625 C 46.492188 -5.734375 43.910156 -3.253906 40.890625 -1.453125 C 37.867188 0.335938 34.5625 1.234375 30.96875 1.234375 C 27.6875 1.234375 24.679688 0.726562 21.953125 -0.28125 C 19.222656 -1.300781 16.878906 -2.914062 14.921875 -5.125 C 12.972656 -7.332031 11.460938 -10.140625 10.390625 -13.546875 C 9.316406 -16.960938 8.78125 -21.070312 8.78125 -25.875 L 8.78125 -63.34375 L 25.0625 -63.34375 L 25.0625 -25.75 C 25.0625 -23.175781 25.242188 -21.007812 25.609375 -19.25 C 25.984375 -17.5 26.578125 -16.085938 27.390625 -15.015625 C 28.210938 -13.941406 29.285156 -13.171875 30.609375 -12.703125 C 31.941406 -12.234375 33.5625 -12 35.46875 -12 C 38.707031 -12 41.34375 -12.613281 43.375 -13.84375 C 45.40625 -15.070312 46.945312 -16.757812 48 -18.90625 L 48 -63.34375 L 64.328125 -63.34375 L 64.328125 0 L 49.578125 0 Z M 48.640625 -8.890625" stroke-linecap="round" />
</g>
		<g transform="matrix(1.33 0 0 1.33 -94.42 364.21)"  >
<path style="stroke: none; stroke-width: 1; stroke-dasharray: none; stroke-linecap: butt; stroke-dashoffset: 0; stroke-linejoin: miter; stroke-miterlimit: 4; fill: rgb(255,255,255); fill-rule: nonzero; opacity: 1;" vector-effect="non-scaling-stroke"  transform=" translate(-36.97, 44.38)" d="M 65.328125 -31.03125 C 65.328125 -26.300781 64.8125 -21.96875 63.78125 -18.03125 C 62.75 -14.09375 61.195312 -10.695312 59.125 -7.84375 C 57.050781 -5 54.472656 -2.785156 51.390625 -1.203125 C 48.316406 0.378906 44.726562 1.171875 40.625 1.171875 C 36.914062 1.171875 33.703125 0.476562 30.984375 -0.90625 C 28.273438 -2.289062 25.945312 -4.234375 24 -6.734375 L 23.234375 0 L 8.609375 0 L 8.609375 -89.921875 L 24.875 -89.921875 L 24.875 -57.609375 C 26.75 -59.785156 28.960938 -61.476562 31.515625 -62.6875 C 34.078125 -63.90625 37.078125 -64.515625 40.515625 -64.515625 C 44.648438 -64.515625 48.265625 -63.710938 51.359375 -62.109375 C 54.460938 -60.515625 57.050781 -58.289062 59.125 -55.4375 C 61.195312 -52.59375 62.75 -49.1875 63.78125 -45.21875 C 64.8125 -41.257812 65.328125 -36.9375 65.328125 -32.25 Z M 49.0625 -32.25 C 49.0625 -34.832031 48.863281 -37.273438 48.46875 -39.578125 C 48.082031 -41.878906 47.410156 -43.894531 46.453125 -45.625 C 45.492188 -47.363281 44.191406 -48.738281 42.546875 -49.75 C 40.910156 -50.769531 38.863281 -51.28125 36.40625 -51.28125 C 33.445312 -51.28125 31.039062 -50.65625 29.1875 -49.40625 C 27.332031 -48.15625 25.894531 -46.4375 24.875 -44.25 L 24.875 -19.03125 C 25.894531 -16.84375 27.332031 -15.125 29.1875 -13.875 C 31.039062 -12.625 33.488281 -12 36.53125 -12 C 38.988281 -12 41.015625 -12.476562 42.609375 -13.4375 C 44.210938 -14.394531 45.492188 -15.722656 46.453125 -17.421875 C 47.410156 -19.117188 48.082031 -21.125 48.46875 -23.4375 C 48.863281 -25.757812 49.0625 -28.289062 49.0625 -31.03125 Z M 49.0625 -32.25" stroke-linecap="round" />
</g>
		<g transform="matrix(1.33 0 0 1.33 0.61 381.15)"  >
<path style="stroke: none; stroke-width: 1; stroke-dasharray: none; stroke-linecap: butt; stroke-dashoffset: 0; stroke-linejoin: miter; stroke-miterlimit: 4; fill: rgb(255,255,255); fill-rule: nonzero; opacity: 1;" vector-effect="non-scaling-stroke"  transform=" translate(-36.3, 31.67)" d="M 38.984375 1.171875 C 34.109375 1.171875 29.679688 0.375 25.703125 -1.21875 C 21.722656 -2.820312 18.304688 -5 15.453125 -7.75 C 12.609375 -10.507812 10.414062 -13.75 8.875 -17.46875 C 7.332031 -21.195312 6.5625 -25.191406 6.5625 -29.453125 L 6.5625 -31.78125 C 6.5625 -36.625 7.320312 -41.046875 8.84375 -45.046875 C 10.363281 -49.046875 12.488281 -52.488281 15.21875 -55.375 C 17.945312 -58.269531 21.1875 -60.515625 24.9375 -62.109375 C 28.6875 -63.710938 32.765625 -64.515625 37.171875 -64.515625 C 41.734375 -64.515625 45.800781 -63.757812 49.375 -62.25 C 52.945312 -60.75 55.972656 -58.632812 58.453125 -55.90625 C 60.929688 -53.175781 62.8125 -49.890625 64.09375 -46.046875 C 65.382812 -42.203125 66.03125 -37.957031 66.03125 -33.3125 L 66.03125 -26.40625 L 23.0625 -26.40625 C 23.375 -24.257812 24.007812 -22.296875 24.96875 -20.515625 C 25.925781 -18.742188 27.144531 -17.210938 28.625 -15.921875 C 30.101562 -14.628906 31.800781 -13.632812 33.71875 -12.9375 C 35.632812 -12.238281 37.722656 -11.890625 39.984375 -11.890625 C 41.585938 -11.890625 43.175781 -12.046875 44.75 -12.359375 C 46.332031 -12.671875 47.84375 -13.128906 49.28125 -13.734375 C 50.726562 -14.335938 52.078125 -15.085938 53.328125 -15.984375 C 54.578125 -16.878906 55.671875 -17.929688 56.609375 -19.140625 L 64.75 -10.359375 C 63.726562 -8.921875 62.40625 -7.507812 60.78125 -6.125 C 59.164062 -4.738281 57.253906 -3.503906 55.046875 -2.421875 C 52.847656 -1.347656 50.398438 -0.484375 47.703125 0.171875 C 45.015625 0.835938 42.109375 1.171875 38.984375 1.171875 Z M 37.0625 -51.34375 C 35.21875 -51.34375 33.535156 -51.019531 32.015625 -50.375 C 30.492188 -49.726562 29.15625 -48.800781 28 -47.59375 C 26.851562 -46.382812 25.890625 -44.941406 25.109375 -43.265625 C 24.328125 -41.585938 23.742188 -39.710938 23.359375 -37.640625 L 50.046875 -37.640625 L 50.046875 -38.921875 C 49.972656 -40.640625 49.640625 -42.257812 49.046875 -43.78125 C 48.460938 -45.3125 47.625 -46.628906 46.53125 -47.734375 C 45.445312 -48.847656 44.113281 -49.726562 42.53125 -50.375 C 40.945312 -51.019531 39.125 -51.34375 37.0625 -51.34375 Z M 37.0625 -51.34375" stroke-linecap="round" />
</g>
		<g transform="matrix(1.33 0 0 1.33 193.1 366.56)"  >
<path style="stroke: none; stroke-width: 1; stroke-dasharray: none; stroke-linecap: butt; stroke-dashoffset: 0; stroke-linejoin: miter; stroke-miterlimit: 4; fill: rgb(255,255,255); fill-rule: nonzero; opacity: 1;" vector-effect="non-scaling-stroke"  transform=" translate(-36.77, 42.62)" d="M 49.578125 -17.796875 L 24 -17.796875 L 18.96875 0 L 1.640625 0 L 29.5625 -85.234375 L 44.484375 -85.234375 L 71.890625 0 L 54.5625 0 Z M 28.046875 -31.78125 L 45.71875 -31.78125 L 37 -63.171875 Z M 28.046875 -31.78125" stroke-linecap="round" />
</g>
		<g transform="matrix(1.33 0 0 1.33 287.94 366.56)"  >
<path style="stroke: none; stroke-width: 1; stroke-dasharray: none; stroke-linecap: butt; stroke-dashoffset: 0; stroke-linejoin: miter; stroke-miterlimit: 4; fill: rgb(255,255,255); fill-rule: nonzero; opacity: 1;" vector-effect="non-scaling-stroke"  transform=" translate(-35.95, 42.62)" d="M 11.296875 -85.234375 L 60.59375 -85.234375 L 60.59375 -71.953125 L 43.96875 -71.953125 L 43.96875 -13.234375 L 60.59375 -13.234375 L 60.59375 0 L 11.296875 0 L 11.296875 -13.234375 L 27.515625 -13.234375 L 27.515625 -71.953125 L 11.296875 -71.953125 Z M 11.296875 -85.234375" stroke-linecap="round" />
</g>
</g>
</g>
<g transform="matrix(NaN NaN NaN NaN 0 0)"  >
<g style=""   >
</g>
</g>
</svg>