<?xml version="1.0" encoding="UTF-8" standalone="no" ?>
<!DOCTYPE svg PUBLIC "-//W3C//DTD SVG 1.1//EN" "http://www.w3.org/Graphics/SVG/1.1/DTD/svg11.dtd">
<svg xmlns="http://www.w3.org/2000/svg" xmlns:xlink="http://www.w3.org/1999/xlink" version="1.1" width="1080" height="1080" viewBox="0 0 1080 1080" xml:space="preserve">
<desc>Created with Fabric.js 5.2.4</desc>
<defs>
</defs>
<g transform="matrix(1 0 0 1 540 540)" id="0cbd7ac2-752a-4d62-9aa4-093b86596d4f"  >
<rect style="stroke: none; stroke-width: 1; stroke-dasharray: none; stroke-linecap: butt; stroke-dashoffset: 0; stroke-linejoin: miter; stroke-miterlimit: 4; fill: rgb(255,255,255); fill-rule: nonzero; opacity: 1; visibility: hidden;" vector-effect="non-scaling-stroke"  x="-540" y="-540" rx="0" ry="0" width="1080" height="1080" />
</g>
<g transform="matrix(1 0 0 1 540 540)" id="dd7e0a59-ad96-4cbf-8647-58f80df7fa76"  >
</g>
<g transform="matrix(1.13 0 0 1.13 540 445.39)" id="48c17829-6c17-4b63-aa5e-d0620dc7af57"  >
<path style="stroke: rgb(0,0,0); stroke-width: 0; stroke-dasharray: none; stroke-linecap: butt; stroke-dashoffset: 0; stroke-linejoin: miter; stroke-miterlimit: 4; fill: rgb(0,0,0); fill-rule: nonzero; opacity: 1;" vector-effect="non-scaling-stroke"  transform=" translate(-224, -256)" d="M 384 32 C 419.3 32 448 60.7 448 96 L 448 416 C 448 451.3 419.3 480 384 480 L 64 480 C 28.700000000000003 480 0 451.3 0 416 L 0 96 C 0 60.7 28.7 32 64 32 L 384 32 z M 105.1 187 C 66.4 187 35 218.3 35 257 C 35 295.7 66.4 327 105.1 327 C 129.9 327 151.6 314.2 164.1 294.8 L 164.6 294.1 L 164.2 293.5 C 157.7 282.9 154 270.4 154 257 C 154 243.4 157.9 230.7 164.6 219.9 C 152.2 200.1 130.2 187 105.1 187 z M 224 187 C 199.2 187 177.5 199.8 165 219.2 L 164.5 219.89999999999998 L 164.9 220.49999999999997 C 171.4 231.09999999999997 175.1 243.59999999999997 175.1 257 C 175.1 270.6 171.2 283.3 164.5 294.1 C 176.9 313.8 198.9 327 224 327 C 248.8 327 270.5 314.2 283 294.8 L 283.5 294.1 L 283.1 293.5 C 276.6 282.9 272.90000000000003 270.4 272.90000000000003 257 C 272.90000000000003 243.4 276.8 230.7 283.50000000000006 219.9 C 271.1 200.2 249.1 187 224 187 z M 342.9 187 C 318.09999999999997 187 296.4 199.8 283.9 219.2 L 283.4 219.89999999999998 L 283.79999999999995 220.49999999999997 C 290.29999999999995 231.09999999999997 293.99999999999994 243.59999999999997 293.99999999999994 257 C 293.99999999999994 270.6 290.09999999999997 283.3 283.3999999999999 294.1 C 295.7999999999999 313.90000000000003 317.7999999999999 327 342.8999999999999 327 C 381.5999999999999 327 412.9999999999999 295.7 412.9999999999999 257 C 412.9999999999999 218.3 381.5999999999999 187 342.89999999999986 187 z" stroke-linecap="round" />
</g>
<g transform="matrix(1.07 0 0 1.07 540 774.45)" style="" id="7c7223af-f845-44b8-af1d-e63665914d06"  >
		<text xml:space="preserve" font-family="Raleway" font-size="105" font-style="normal" font-weight="900" style="stroke: none; stroke-width: 1; stroke-dasharray: none; stroke-linecap: butt; stroke-dashoffset: 0; stroke-linejoin: miter; stroke-miterlimit: 4; fill: rgb(0,0,0); fill-rule: nonzero; opacity: 1; white-space: pre;" ><tspan x="-206.32" y="32.98" >CUBE AI</tspan></text>
</g>
</svg>
