<?xml version="1.0" encoding="UTF-8" standalone="no" ?>
<!DOCTYPE svg PUBLIC "-//W3C//DTD SVG 1.1//EN" "http://www.w3.org/Graphics/SVG/1.1/DTD/svg11.dtd">
<svg xmlns="http://www.w3.org/2000/svg" xmlns:xlink="http://www.w3.org/1999/xlink" version="1.1" width="1080" height="480" viewBox="0 0 1080 480" xml:space="preserve">
<desc>Created with Fabric.js 5.2.4</desc>
<defs>
</defs>
<rect x="0" y="0" width="100%" height="100%" fill="transparent"></rect>
<g transform="matrix(1 0 0 1 540 240)" id="4f989b98-62bb-4f3c-8173-391f565fa1c9"  >
<rect style="stroke: none; stroke-width: 1; stroke-dasharray: none; stroke-linecap: butt; stroke-dashoffset: 0; stroke-linejoin: miter; stroke-miterlimit: 4; fill: rgb(255,255,255); fill-rule: nonzero; opacity: 1; visibility: hidden;" vector-effect="non-scaling-stroke"  x="-540" y="-240" rx="0" ry="0" width="1080" height="480" />
</g>
<g transform="matrix(Infinity NaN NaN Infinity 0 0)" id="d64522d4-eb32-463c-abe2-8064a19a599c"  >
</g>
<g transform="matrix(1.04 0 0 1.04 540 207)"  >
<g style="" vector-effect="non-scaling-stroke"   >
		<g transform="matrix(1.33 0 0 1.33 -326.81 0)" clip-path="url(#CLIPPATH_7)"  >
<clipPath id="CLIPPATH_7" >
	<path transform="matrix(1 0 0 1 0 -0.28) translate(-152.81, -391)" id="47000000" d="M 18.5625 256 L 287.0625 256 L 287.0625 526 L 18.5625 526 Z M 18.5625 256" stroke-linecap="round" />
</clipPath>
<path style="stroke: none; stroke-width: 1; stroke-dasharray: none; stroke-linecap: butt; stroke-dashoffset: 0; stroke-linejoin: miter; stroke-miterlimit: 4; fill: rgb(255,255,255); fill-rule: nonzero; opacity: 1;" vector-effect="non-scaling-stroke"  transform=" translate(-152.81, -391.28)" d="M 248.707031 256.820312 C 269.863281 256.820312 287.0625 274.050781 287.0625 295.238281 L 287.0625 487.328125 C 287.0625 508.515625 269.863281 525.746094 248.707031 525.746094 L 56.921875 525.746094 C 35.765625 525.746094 18.5625 508.515625 18.5625 487.328125 L 18.5625 295.238281 C 18.5625 274.050781 35.765625 256.820312 56.921875 256.820312 Z M 81.554688 349.863281 C 58.359375 349.863281 39.539062 368.652344 39.539062 391.882812 C 39.539062 415.113281 58.359375 433.902344 81.554688 433.902344 C 96.417969 433.902344 109.421875 426.21875 116.914062 414.574219 L 117.214844 414.152344 L 116.972656 413.792969 C 113.078125 407.429688 110.859375 399.925781 110.859375 391.882812 C 110.859375 383.71875 113.199219 376.097656 117.214844 369.613281 C 109.78125 357.726562 96.597656 349.863281 81.554688 349.863281 Z M 152.8125 349.863281 C 137.949219 349.863281 124.945312 357.546875 117.453125 369.191406 L 117.152344 369.613281 L 117.394531 369.972656 C 121.289062 376.335938 123.507812 383.839844 123.507812 391.882812 C 123.507812 400.046875 121.167969 407.671875 117.152344 414.152344 C 124.585938 425.980469 137.769531 433.902344 152.8125 433.902344 C 167.675781 433.902344 180.683594 426.21875 188.171875 414.574219 L 188.472656 414.152344 L 188.234375 413.792969 C 184.339844 407.429688 182.121094 399.925781 182.121094 391.882812 C 182.121094 383.71875 184.457031 376.097656 188.472656 369.613281 C 181.042969 357.789062 167.855469 349.863281 152.8125 349.863281 Z M 224.074219 349.863281 C 209.210938 349.863281 196.203125 357.546875 188.714844 369.191406 L 188.414062 369.613281 L 188.652344 369.972656 C 192.550781 376.335938 194.765625 383.839844 194.765625 391.882812 C 194.765625 400.046875 192.429688 407.671875 188.414062 414.152344 C 195.84375 426.039062 209.03125 433.902344 224.074219 433.902344 C 247.269531 433.902344 266.085938 415.113281 266.085938 391.882812 C 266.085938 368.652344 247.269531 349.863281 224.074219 349.863281 Z M 224.074219 349.863281" stroke-linecap="round" />
</g>
		<g transform="matrix(1.33 0 0 1.33 -68.93 -3.09)"  >
<path style="stroke: none; stroke-width: 1; stroke-dasharray: none; stroke-linecap: butt; stroke-dashoffset: 0; stroke-linejoin: miter; stroke-miterlimit: 4; fill: rgb(255,255,255); fill-rule: nonzero; opacity: 1;" vector-effect="non-scaling-stroke"  transform=" translate(-45.82, 49.02)" d="M 85.703125 -32.65625 C 84.941406 -22.101562 81.046875 -13.796875 74.015625 -7.734375 C 66.992188 -1.679688 57.738281 1.34375 46.25 1.34375 C 33.6875 1.34375 23.800781 -2.882812 16.59375 -11.34375 C 9.394531 -19.800781 5.796875 -31.414062 5.796875 -46.1875 L 5.796875 -52.1875 C 5.796875 -61.601562 7.453125 -69.898438 10.765625 -77.078125 C 14.085938 -84.265625 18.832031 -89.773438 25 -93.609375 C 31.175781 -97.453125 38.351562 -99.375 46.53125 -99.375 C 57.832031 -99.375 66.941406 -96.34375 73.859375 -90.28125 C 80.773438 -84.226562 84.769531 -75.722656 85.84375 -64.765625 L 65.640625 -64.765625 C 65.148438 -71.097656 63.390625 -75.6875 60.359375 -78.53125 C 57.328125 -81.382812 52.71875 -82.8125 46.53125 -82.8125 C 39.789062 -82.8125 34.75 -80.398438 31.40625 -75.578125 C 28.0625 -70.753906 26.347656 -63.269531 26.265625 -53.125 L 26.265625 -45.71875 C 26.265625 -35.125 27.867188 -27.378906 31.078125 -22.484375 C 34.285156 -17.597656 39.34375 -15.15625 46.25 -15.15625 C 52.488281 -15.15625 57.144531 -16.578125 60.21875 -19.421875 C 63.300781 -22.273438 65.066406 -26.6875 65.515625 -32.65625 Z M 85.703125 -32.65625" stroke-linecap="round" />
</g>
		<g transform="matrix(1.33 0 0 1.33 41.57 14.6)"  >
<path style="stroke: none; stroke-width: 1; stroke-dasharray: none; stroke-linecap: butt; stroke-dashoffset: 0; stroke-linejoin: miter; stroke-miterlimit: 4; fill: rgb(255,255,255); fill-rule: nonzero; opacity: 1;" vector-effect="non-scaling-stroke"  transform=" translate(-38.48, 35.75)" d="M 51.109375 -7.40625 C 46.304688 -1.570312 39.660156 1.34375 31.171875 1.34375 C 23.359375 1.34375 17.398438 -0.898438 13.296875 -5.390625 C 9.191406 -9.878906 7.09375 -16.453125 7 -25.109375 L 7 -72.84375 L 26.453125 -72.84375 L 26.453125 -25.78125 C 26.453125 -18.195312 29.910156 -14.40625 36.828125 -14.40625 C 43.429688 -14.40625 47.96875 -16.695312 50.4375 -21.28125 L 50.4375 -72.84375 L 69.953125 -72.84375 L 69.953125 0 L 51.640625 0 Z M 51.109375 -7.40625" stroke-linecap="round" />
</g>
		<g transform="matrix(1.33 0 0 1.33 146.87 -5.79)"  >
<path style="stroke: none; stroke-width: 1; stroke-dasharray: none; stroke-linecap: butt; stroke-dashoffset: 0; stroke-linejoin: miter; stroke-miterlimit: 4; fill: rgb(255,255,255); fill-rule: nonzero; opacity: 1;" vector-effect="non-scaling-stroke"  transform=" translate(-40.3, 51.04)" d="M 73.125 -35.75 C 73.125 -24.082031 70.628906 -14.984375 65.640625 -8.453125 C 60.660156 -1.921875 53.707031 1.34375 44.78125 1.34375 C 36.875 1.34375 30.566406 -1.6875 25.859375 -7.75 L 24.984375 0 L 7.46875 0 L 7.46875 -103.421875 L 26.9375 -103.421875 L 26.9375 -66.3125 C 31.425781 -71.570312 37.328125 -74.203125 44.640625 -74.203125 C 53.523438 -74.203125 60.492188 -70.9375 65.546875 -64.40625 C 70.597656 -57.875 73.125 -48.679688 73.125 -36.828125 Z M 53.65625 -37.171875 C 53.65625 -44.523438 52.488281 -49.894531 50.15625 -53.28125 C 47.820312 -56.675781 44.34375 -58.375 39.71875 -58.375 C 33.53125 -58.375 29.269531 -55.835938 26.9375 -50.765625 L 26.9375 -22.015625 C 29.3125 -16.898438 33.617188 -14.34375 39.859375 -14.34375 C 46.140625 -14.34375 50.269531 -17.4375 52.25 -23.625 C 53.1875 -26.59375 53.65625 -31.109375 53.65625 -37.171875 Z M 53.65625 -37.171875" stroke-linecap="round" />
</g>
		<g transform="matrix(1.33 0 0 1.33 247.19 13.69)"  >
<path style="stroke: none; stroke-width: 1; stroke-dasharray: none; stroke-linecap: butt; stroke-dashoffset: 0; stroke-linejoin: miter; stroke-miterlimit: 4; fill: rgb(255,255,255); fill-rule: nonzero; opacity: 1;" vector-effect="non-scaling-stroke"  transform=" translate(-37.91, 36.43)" d="M 41 1.34375 C 30.320312 1.34375 21.625 -1.929688 14.90625 -8.484375 C 8.195312 -15.035156 4.84375 -23.765625 4.84375 -34.671875 L 4.84375 -36.5625 C 4.84375 -43.875 6.253906 -50.414062 9.078125 -56.1875 C 11.910156 -61.957031 15.921875 -66.398438 21.109375 -69.515625 C 26.296875 -72.640625 32.207031 -74.203125 38.84375 -74.203125 C 48.8125 -74.203125 56.65625 -71.054688 62.375 -64.765625 C 68.101562 -58.484375 70.96875 -49.578125 70.96875 -38.046875 L 70.96875 -30.09375 L 24.578125 -30.09375 C 25.203125 -25.332031 27.097656 -21.515625 30.265625 -18.640625 C 33.429688 -15.773438 37.4375 -14.34375 42.28125 -14.34375 C 49.78125 -14.34375 55.640625 -17.054688 59.859375 -22.484375 L 69.421875 -11.78125 C 66.503906 -7.65625 62.550781 -4.4375 57.5625 -2.125 C 52.582031 0.1875 47.0625 1.34375 41 1.34375 Z M 38.78125 -58.4375 C 34.914062 -58.4375 31.78125 -57.132812 29.375 -54.53125 C 26.976562 -51.925781 25.445312 -48.203125 24.78125 -43.359375 L 51.84375 -43.359375 L 51.84375 -44.90625 C 51.75 -49.21875 50.578125 -52.550781 48.328125 -54.90625 C 46.085938 -57.257812 42.90625 -58.4375 38.78125 -58.4375 Z M 38.78125 -58.4375" stroke-linecap="round" />
</g>
		<g transform="matrix(1.33 0 0 1.33 403.69 -3.09)"  >
<path style="stroke: none; stroke-width: 1; stroke-dasharray: none; stroke-linecap: butt; stroke-dashoffset: 0; stroke-linejoin: miter; stroke-miterlimit: 4; fill: rgb(255,255,255); fill-rule: nonzero; opacity: 1;" vector-effect="non-scaling-stroke"  transform=" translate(-46.42, 49.02)" d="M 64.09375 -20.203125 L 28.6875 -20.203125 L 21.953125 0 L 0.46875 0 L 36.96875 -98.03125 L 55.6875 -98.03125 L 92.375 0 L 70.890625 0 Z M 34.140625 -36.5625 L 58.640625 -36.5625 L 46.328125 -73.25 Z M 34.140625 -36.5625" stroke-linecap="round" />
</g>
		<g transform="matrix(1.33 0 0 1.33 492.34 -3.09)"  >
<path style="stroke: none; stroke-width: 1; stroke-dasharray: none; stroke-linecap: butt; stroke-dashoffset: 0; stroke-linejoin: miter; stroke-miterlimit: 4; fill: rgb(255,255,255); fill-rule: nonzero; opacity: 1;" vector-effect="non-scaling-stroke"  transform=" translate(-20.13, 49.02)" d="M 30.234375 0 L 10.03125 0 L 10.03125 -98.03125 L 30.234375 -98.03125 Z M 30.234375 0" stroke-linecap="round" />
</g>
</g>
</g>
<g transform="matrix(NaN NaN NaN NaN 0 0)"  >
<g style=""   >
</g>
</g>
<g transform="matrix(NaN NaN NaN NaN 0 0)"  >
<g style=""   >
</g>
</g>
<g transform="matrix(NaN NaN NaN NaN 0 0)"  >
<g style=""   >
</g>
</g>
</svg>