<?xml version="1.0" encoding="UTF-8" standalone="no" ?>
<!DOCTYPE svg PUBLIC "-//W3C//DTD SVG 1.1//EN" "http://www.w3.org/Graphics/SVG/1.1/DTD/svg11.dtd">
<svg xmlns="http://www.w3.org/2000/svg" xmlns:xlink="http://www.w3.org/1999/xlink" version="1.1" width="1080" height="1080" viewBox="0 0 1080 1080" xml:space="preserve">
<desc>Created with Fabric.js 5.2.4</desc>
<defs>
</defs>
<g transform="matrix(1 0 0 1 540 540)" id="afb7eba2-59f1-41ee-b8ea-eacbbb31b9f8"  >
<rect style="stroke: none; stroke-width: 1; stroke-dasharray: none; stroke-linecap: butt; stroke-dashoffset: 0; stroke-linejoin: miter; stroke-miterlimit: 4; fill: rgb(255,255,255); fill-rule: nonzero; opacity: 1; visibility: hidden;" vector-effect="non-scaling-stroke"  x="-540" y="-540" rx="0" ry="0" width="1080" height="1080" />
</g>
<g transform="matrix(1 0 0 1 540 540)" id="9c5c19e1-b051-461f-9ca1-25678605c3eb"  >
</g>
<g transform="matrix(1 0 0 1 540 540)"  >
<g style="" vector-effect="non-scaling-stroke"   >
		<g transform="matrix(1.33 0 0 1.33 -335.08 0)" clip-path="url(#CLIPPATH_5)"  >
<clipPath id="CLIPPATH_5" >
	<path transform="matrix(1 0 0 1 0 -0.07) translate(-153.4, -394.5)" id="48" d="M 11.652344 252 L 295.152344 252 L 295.152344 537 L 11.652344 537 Z M 11.652344 252" stroke-linecap="round" />
</clipPath>
<path style="stroke: none; stroke-width: 1; stroke-dasharray: none; stroke-linecap: butt; stroke-dashoffset: 0; stroke-linejoin: miter; stroke-miterlimit: 4; fill: rgb(255,255,255); fill-rule: nonzero; opacity: 1;" vector-effect="non-scaling-stroke"  transform=" translate(-153.4, -394.57)" d="M 254.652344 252.898438 C 276.988281 252.898438 295.152344 271.050781 295.152344 293.375 L 295.152344 495.765625 C 295.152344 518.09375 276.988281 536.246094 254.652344 536.246094 L 52.152344 536.246094 C 29.8125 536.246094 11.652344 518.09375 11.652344 495.765625 L 11.652344 293.375 C 11.652344 271.050781 29.8125 252.898438 52.152344 252.898438 Z M 78.160156 350.929688 C 53.667969 350.929688 33.800781 370.726562 33.800781 395.203125 C 33.800781 419.679688 53.667969 439.476562 78.160156 439.476562 C 93.851562 439.476562 107.585938 431.378906 115.496094 419.109375 L 115.8125 418.667969 L 115.558594 418.289062 C 111.445312 411.585938 109.105469 403.679688 109.105469 395.203125 C 109.105469 386.601562 111.570312 378.570312 115.8125 371.738281 C 107.964844 359.214844 94.042969 350.929688 78.160156 350.929688 Z M 153.402344 350.929688 C 137.707031 350.929688 123.976562 359.027344 116.066406 371.296875 L 115.75 371.738281 L 116 372.117188 C 120.113281 378.820312 122.457031 386.726562 122.457031 395.203125 C 122.457031 403.804688 119.988281 411.835938 115.75 418.667969 C 123.59375 431.128906 137.515625 439.476562 153.402344 439.476562 C 169.09375 439.476562 182.828125 431.378906 190.738281 419.109375 L 191.054688 418.667969 L 190.800781 418.289062 C 186.6875 411.585938 184.34375 403.679688 184.34375 395.203125 C 184.34375 386.601562 186.8125 378.570312 191.054688 371.738281 C 183.207031 359.277344 169.285156 350.929688 153.402344 350.929688 Z M 228.640625 350.929688 C 212.949219 350.929688 199.214844 359.027344 191.304688 371.296875 L 190.988281 371.738281 L 191.242188 372.117188 C 195.355469 378.820312 197.699219 386.726562 197.699219 395.203125 C 197.699219 403.804688 195.230469 411.835938 190.988281 418.667969 C 198.835938 431.191406 212.757812 439.476562 228.640625 439.476562 C 253.132812 439.476562 273.003906 419.679688 273.003906 395.203125 C 273.003906 370.726562 253.132812 350.929688 228.640625 350.929688 Z M 228.640625 350.929688" stroke-linecap="round" />
</g>
		<g transform="matrix(1.33 0 0 1.33 -85.03 4.63)"  >
<path style="stroke: none; stroke-width: 1; stroke-dasharray: none; stroke-linecap: butt; stroke-dashoffset: 0; stroke-linejoin: miter; stroke-miterlimit: 4; fill: rgb(255,255,255); fill-rule: nonzero; opacity: 1;" vector-effect="non-scaling-stroke"  transform=" translate(-35.8, 42.65)" d="M 66.90625 -26.71875 C 66.632812 -22.414062 65.707031 -18.546875 64.125 -15.109375 C 62.539062 -11.671875 60.421875 -8.738281 57.765625 -6.3125 C 55.109375 -3.894531 51.941406 -2.03125 48.265625 -0.71875 C 44.597656 0.582031 40.539062 1.234375 36.09375 1.234375 C 31.050781 1.234375 26.578125 0.304688 22.671875 -1.546875 C 18.765625 -3.398438 15.484375 -6 12.828125 -9.34375 C 10.171875 -12.6875 8.140625 -16.703125 6.734375 -21.390625 C 5.328125 -26.078125 4.625 -31.226562 4.625 -36.84375 L 4.625 -48.328125 C 4.625 -53.992188 5.363281 -59.171875 6.84375 -63.859375 C 8.332031 -68.546875 10.441406 -72.566406 13.171875 -75.921875 C 15.910156 -79.285156 19.222656 -81.894531 23.109375 -83.75 C 26.992188 -85.601562 31.359375 -86.53125 36.203125 -86.53125 C 40.890625 -86.53125 45.054688 -85.863281 48.703125 -84.53125 C 52.359375 -83.207031 55.472656 -81.316406 58.046875 -78.859375 C 60.628906 -76.398438 62.660156 -73.390625 64.140625 -69.828125 C 65.628906 -66.273438 66.570312 -62.273438 66.96875 -57.828125 L 50.5625 -57.828125 C 50.40625 -60.359375 50.023438 -62.582031 49.421875 -64.5 C 48.816406 -66.414062 47.9375 -68.007812 46.78125 -69.28125 C 45.625 -70.550781 44.175781 -71.503906 42.4375 -72.140625 C 40.707031 -72.785156 38.628906 -73.109375 36.203125 -73.109375 C 33.660156 -73.109375 31.453125 -72.5625 29.578125 -71.46875 C 27.710938 -70.375 26.160156 -68.769531 24.921875 -66.65625 C 23.691406 -64.550781 22.785156 -61.96875 22.203125 -58.90625 C 21.617188 -55.84375 21.328125 -52.359375 21.328125 -48.453125 L 21.328125 -36.84375 C 21.328125 -28.445312 22.507812 -22.238281 24.875 -18.21875 C 27.238281 -14.195312 30.976562 -12.1875 36.09375 -12.1875 C 40.382812 -12.1875 43.78125 -13.328125 46.28125 -15.609375 C 48.78125 -17.898438 50.164062 -21.601562 50.4375 -26.71875 Z M 66.90625 -26.71875" stroke-linecap="round" />
</g>
		<g transform="matrix(1.33 0 0 1.33 12.02 20.06)"  >
<path style="stroke: none; stroke-width: 1; stroke-dasharray: none; stroke-linecap: butt; stroke-dashoffset: 0; stroke-linejoin: miter; stroke-miterlimit: 4; fill: rgb(255,255,255); fill-rule: nonzero; opacity: 1;" vector-effect="non-scaling-stroke"  transform=" translate(-36.59, 31.08)" d="M 48.6875 -8.90625 C 46.539062 -5.738281 43.953125 -3.253906 40.921875 -1.453125 C 37.890625 0.335938 34.578125 1.234375 30.984375 1.234375 C 27.710938 1.234375 24.707031 0.726562 21.96875 -0.28125 C 19.238281 -1.300781 16.894531 -2.914062 14.9375 -5.125 C 12.988281 -7.332031 11.472656 -10.144531 10.390625 -13.5625 C 9.316406 -16.976562 8.78125 -21.085938 8.78125 -25.890625 L 8.78125 -63.390625 L 25.078125 -63.390625 L 25.078125 -25.78125 C 25.078125 -23.195312 25.257812 -21.023438 25.625 -19.265625 C 26 -17.515625 26.597656 -16.101562 27.421875 -15.03125 C 28.242188 -13.957031 29.316406 -13.1875 30.640625 -12.71875 C 31.960938 -12.25 33.582031 -12.015625 35.5 -12.015625 C 38.738281 -12.015625 41.375 -12.628906 43.40625 -13.859375 C 45.4375 -15.085938 46.984375 -16.773438 48.046875 -18.921875 L 48.046875 -63.390625 L 64.390625 -63.390625 L 64.390625 0 L 49.625 0 Z M 48.6875 -8.90625" stroke-linecap="round" />
</g>
		<g transform="matrix(1.33 0 0 1.33 108.56 2.29)"  >
<path style="stroke: none; stroke-width: 1; stroke-dasharray: none; stroke-linecap: butt; stroke-dashoffset: 0; stroke-linejoin: miter; stroke-miterlimit: 4; fill: rgb(255,255,255); fill-rule: nonzero; opacity: 1;" vector-effect="non-scaling-stroke"  transform=" translate(-36.99, 44.41)" d="M 65.375 -31.046875 C 65.375 -26.328125 64.859375 -21.992188 63.828125 -18.046875 C 62.796875 -14.097656 61.242188 -10.695312 59.171875 -7.84375 C 57.097656 -5 54.519531 -2.785156 51.4375 -1.203125 C 48.351562 0.378906 44.757812 1.171875 40.65625 1.171875 C 36.945312 1.171875 33.734375 0.476562 31.015625 -0.90625 C 28.304688 -2.289062 25.972656 -4.234375 24.015625 -6.734375 L 23.265625 0 L 8.609375 0 L 8.609375 -89.984375 L 24.90625 -89.984375 L 24.90625 -57.65625 C 26.78125 -59.832031 28.992188 -61.523438 31.546875 -62.734375 C 34.109375 -63.953125 37.109375 -64.5625 40.546875 -64.5625 C 44.679688 -64.5625 48.300781 -63.757812 51.40625 -62.15625 C 54.507812 -60.5625 57.097656 -58.335938 59.171875 -55.484375 C 61.242188 -52.628906 62.796875 -49.21875 63.828125 -45.25 C 64.859375 -41.289062 65.375 -36.96875 65.375 -32.28125 Z M 49.09375 -32.28125 C 49.09375 -34.851562 48.894531 -37.289062 48.5 -39.59375 C 48.113281 -41.90625 47.441406 -43.929688 46.484375 -45.671875 C 45.523438 -47.410156 44.222656 -48.785156 42.578125 -49.796875 C 40.941406 -50.816406 38.894531 -51.328125 36.4375 -51.328125 C 33.46875 -51.328125 31.054688 -50.703125 29.203125 -49.453125 C 27.347656 -48.203125 25.914062 -46.484375 24.90625 -44.296875 L 24.90625 -19.046875 C 25.914062 -16.859375 27.347656 -15.140625 29.203125 -13.890625 C 31.054688 -12.640625 33.507812 -12.015625 36.5625 -12.015625 C 39.019531 -12.015625 41.046875 -12.488281 42.640625 -13.4375 C 44.242188 -14.394531 45.523438 -15.722656 46.484375 -17.421875 C 47.441406 -19.128906 48.113281 -21.144531 48.5 -23.46875 C 48.894531 -25.789062 49.09375 -28.316406 49.09375 -31.046875 Z M 49.09375 -32.28125" stroke-linecap="round" />
</g>
		<g transform="matrix(1.33 0 0 1.33 203.66 19.24)"  >
<path style="stroke: none; stroke-width: 1; stroke-dasharray: none; stroke-linecap: butt; stroke-dashoffset: 0; stroke-linejoin: miter; stroke-miterlimit: 4; fill: rgb(255,255,255); fill-rule: nonzero; opacity: 1;" vector-effect="non-scaling-stroke"  transform=" translate(-36.32, 31.7)" d="M 39.015625 1.171875 C 34.128906 1.171875 29.695312 0.375 25.71875 -1.21875 C 21.738281 -2.820312 18.320312 -5 15.46875 -7.75 C 12.613281 -10.507812 10.414062 -13.753906 8.875 -17.484375 C 7.332031 -21.210938 6.5625 -25.207031 6.5625 -29.46875 L 6.5625 -31.8125 C 6.5625 -36.65625 7.320312 -41.078125 8.84375 -45.078125 C 10.363281 -49.085938 12.488281 -52.535156 15.21875 -55.421875 C 17.957031 -58.316406 21.203125 -60.5625 24.953125 -62.15625 C 28.703125 -63.757812 32.785156 -64.5625 37.203125 -64.5625 C 41.773438 -64.5625 45.847656 -63.804688 49.421875 -62.296875 C 52.992188 -60.796875 56.019531 -58.675781 58.5 -55.9375 C 60.976562 -53.207031 62.859375 -49.921875 64.140625 -46.078125 C 65.429688 -42.234375 66.078125 -37.984375 66.078125 -33.328125 L 66.078125 -26.421875 L 23.078125 -26.421875 C 23.390625 -24.273438 24.023438 -22.3125 24.984375 -20.53125 C 25.941406 -18.757812 27.160156 -17.226562 28.640625 -15.9375 C 30.128906 -14.644531 31.828125 -13.644531 33.734375 -12.9375 C 35.648438 -12.238281 37.742188 -11.890625 40.015625 -11.890625 C 41.617188 -11.890625 43.207031 -12.046875 44.78125 -12.359375 C 46.363281 -12.671875 47.878906 -13.128906 49.328125 -13.734375 C 50.773438 -14.335938 52.125 -15.085938 53.375 -15.984375 C 54.625 -16.890625 55.71875 -17.945312 56.65625 -19.15625 L 64.796875 -10.375 C 63.773438 -8.925781 62.453125 -7.507812 60.828125 -6.125 C 59.210938 -4.738281 57.300781 -3.503906 55.09375 -2.421875 C 52.894531 -1.347656 50.445312 -0.484375 47.75 0.171875 C 45.050781 0.835938 42.140625 1.171875 39.015625 1.171875 Z M 37.078125 -51.375 C 35.242188 -51.375 33.566406 -51.050781 32.046875 -50.40625 C 30.523438 -49.769531 29.1875 -48.84375 28.03125 -47.625 C 26.882812 -46.414062 25.921875 -44.972656 25.140625 -43.296875 C 24.359375 -41.617188 23.769531 -39.742188 23.375 -37.671875 L 50.09375 -37.671875 L 50.09375 -38.953125 C 50.007812 -40.671875 49.675781 -42.289062 49.09375 -43.8125 C 48.507812 -45.34375 47.671875 -46.664062 46.578125 -47.78125 C 45.484375 -48.894531 44.144531 -49.769531 42.5625 -50.40625 C 40.976562 -51.050781 39.148438 -51.375 37.078125 -51.375 Z M 37.078125 -51.375" stroke-linecap="round" />
</g>
		<g transform="matrix(1.33 0 0 1.33 396.28 4.63)"  >
<path style="stroke: none; stroke-width: 1; stroke-dasharray: none; stroke-linecap: butt; stroke-dashoffset: 0; stroke-linejoin: miter; stroke-miterlimit: 4; fill: rgb(255,255,255); fill-rule: nonzero; opacity: 1;" vector-effect="non-scaling-stroke"  transform=" translate(-36.79, 42.65)" d="M 49.625 -17.8125 L 24.015625 -17.8125 L 18.984375 0 L 1.640625 0 L 29.59375 -85.296875 L 44.53125 -85.296875 L 71.9375 0 L 54.609375 0 Z M 28.0625 -31.8125 L 45.75 -31.8125 L 37.03125 -63.21875 Z M 28.0625 -31.8125" stroke-linecap="round" />
</g>
		<g transform="matrix(1.33 0 0 1.33 491.19 4.63)"  >
<path style="stroke: none; stroke-width: 1; stroke-dasharray: none; stroke-linecap: butt; stroke-dashoffset: 0; stroke-linejoin: miter; stroke-miterlimit: 4; fill: rgb(255,255,255); fill-rule: nonzero; opacity: 1;" vector-effect="non-scaling-stroke"  transform=" translate(-35.98, 42.65)" d="M 11.3125 -85.296875 L 60.640625 -85.296875 L 60.640625 -72 L 44 -72 L 44 -13.234375 L 60.640625 -13.234375 L 60.640625 0 L 11.3125 0 L 11.3125 -13.234375 L 27.53125 -13.234375 L 27.53125 -72 L 11.3125 -72 Z M 11.3125 -85.296875" stroke-linecap="round" />
</g>
</g>
</g>
<g transform="matrix(NaN NaN NaN NaN 0 0)"  >
<g style=""   >
</g>
</g>
<g transform="matrix(NaN NaN NaN NaN 0 0)"  >
<g style=""   >
</g>
</g>
</svg>