<?xml version="1.0" encoding="UTF-8" standalone="no" ?>
<!DOCTYPE svg PUBLIC "-//W3C//DTD SVG 1.1//EN" "http://www.w3.org/Graphics/SVG/1.1/DTD/svg11.dtd">
<svg xmlns="http://www.w3.org/2000/svg" xmlns:xlink="http://www.w3.org/1999/xlink" version="1.1" width="1080" height="1080" viewBox="0 0 1080 1080" xml:space="preserve">
<desc>Created with Fabric.js 5.2.4</desc>
<defs>
</defs>
<rect x="0" y="0" width="100%" height="100%" fill="transparent"></rect>
<g transform="matrix(1 0 0 1 540 540)" id="7f3632de-84f0-40fe-a66b-632bbabffbe8"  >
<rect style="stroke: none; stroke-width: 1; stroke-dasharray: none; stroke-linecap: butt; stroke-dashoffset: 0; stroke-linejoin: miter; stroke-miterlimit: 4; fill: rgb(255,255,255); fill-rule: nonzero; opacity: 1; visibility: hidden;" vector-effect="non-scaling-stroke"  x="-540" y="-540" rx="0" ry="0" width="1080" height="1080" />
</g>
<g transform="matrix(1 0 0 1 540 540)" id="da30339c-ea70-47aa-aff5-d0bce9f63a15"  >
</g>
<g transform="matrix(1.92 0 0 1.92 504.66 591.68)"  >
<g style="" vector-effect="non-scaling-stroke"   >
		<g transform="matrix(1.33 0 0 1.33 0 -41.71)" clip-path="url(#CLIPPATH_6)"  >
<clipPath id="CLIPPATH_6" >
	<path transform="matrix(1 0 0 1 0 0) translate(-405.07, -405)" id="932001" d="M 263.324219 263 L 546.824219 263 L 546.824219 547 L 263.324219 547 Z M 263.324219 263" stroke-linecap="round" />
</clipPath>
<path style="stroke: none; stroke-width: 1; stroke-dasharray: none; stroke-linecap: butt; stroke-dashoffset: 0; stroke-linejoin: miter; stroke-miterlimit: 4; fill: rgb(255,255,255); fill-rule: nonzero; opacity: 1;" vector-effect="non-scaling-stroke"  transform=" translate(-405.07, -405)" d="M 506.324219 263.328125 C 528.660156 263.328125 546.824219 281.476562 546.824219 303.804688 L 546.824219 506.195312 C 546.824219 528.523438 528.660156 546.671875 506.324219 546.671875 L 303.824219 546.671875 C 281.484375 546.671875 263.324219 528.523438 263.324219 506.195312 L 263.324219 303.804688 C 263.324219 281.476562 281.484375 263.328125 303.824219 263.328125 Z M 329.832031 361.359375 C 305.34375 361.359375 285.472656 381.15625 285.472656 405.632812 C 285.472656 430.109375 305.34375 449.90625 329.832031 449.90625 C 345.527344 449.90625 359.257812 441.808594 367.167969 429.539062 L 367.484375 429.097656 L 367.230469 428.71875 C 363.117188 422.011719 360.777344 414.109375 360.777344 405.632812 C 360.777344 397.03125 363.246094 389 367.484375 382.167969 C 359.636719 369.644531 345.714844 361.359375 329.832031 361.359375 Z M 405.074219 361.359375 C 389.378906 361.359375 375.648438 369.453125 367.738281 381.726562 L 367.421875 382.167969 L 367.675781 382.546875 C 371.789062 389.25 374.128906 397.15625 374.128906 405.632812 C 374.128906 414.234375 371.660156 422.265625 367.421875 429.097656 C 375.269531 441.558594 389.191406 449.90625 405.074219 449.90625 C 420.765625 449.90625 434.5 441.808594 442.410156 429.539062 L 442.726562 429.097656 L 442.472656 428.71875 C 438.359375 422.011719 436.019531 414.109375 436.019531 405.632812 C 436.019531 397.03125 438.484375 389 442.726562 382.167969 C 434.878906 369.707031 420.957031 361.359375 405.074219 361.359375 Z M 480.316406 361.359375 C 464.621094 361.359375 450.890625 369.453125 442.980469 381.726562 L 442.664062 382.167969 L 442.914062 382.546875 C 447.027344 389.25 449.371094 397.15625 449.371094 405.632812 C 449.371094 414.234375 446.902344 422.265625 442.664062 429.097656 C 450.507812 441.621094 464.429688 449.90625 480.316406 449.90625 C 504.804688 449.90625 524.675781 430.109375 524.675781 405.632812 C 524.675781 381.15625 504.804688 361.359375 480.316406 361.359375 Z M 480.316406 361.359375" stroke-linecap="round" />
</g>
		<g transform="matrix(1.33 0 0 1.33 -134.64 203.29)"  >
<path style="stroke: none; stroke-width: 1; stroke-dasharray: none; stroke-linecap: butt; stroke-dashoffset: 0; stroke-linejoin: miter; stroke-miterlimit: 4; fill: rgb(255,255,255); fill-rule: nonzero; opacity: 1;" vector-effect="non-scaling-stroke"  transform=" translate(-16.7, 19.91)" d="M 31.234375 -12.46875 C 31.097656 -10.46875 30.660156 -8.664062 29.921875 -7.0625 C 29.191406 -5.457031 28.207031 -4.085938 26.96875 -2.953125 C 25.726562 -1.828125 24.25 -0.957031 22.53125 -0.34375 C 20.820312 0.269531 18.925781 0.578125 16.84375 0.578125 C 14.488281 0.578125 12.398438 0.144531 10.578125 -0.71875 C 8.753906 -1.59375 7.222656 -2.804688 5.984375 -4.359375 C 4.742188 -5.921875 3.796875 -7.796875 3.140625 -9.984375 C 2.484375 -12.171875 2.15625 -14.578125 2.15625 -17.203125 L 2.15625 -22.5625 C 2.15625 -25.207031 2.5 -27.625 3.1875 -29.8125 C 3.882812 -32 4.867188 -33.875 6.140625 -35.4375 C 7.421875 -37.007812 8.96875 -38.226562 10.78125 -39.09375 C 12.601562 -39.957031 14.644531 -40.390625 16.90625 -40.390625 C 19.09375 -40.390625 21.035156 -40.078125 22.734375 -39.453125 C 24.441406 -38.835938 25.894531 -37.953125 27.09375 -36.796875 C 28.300781 -35.648438 29.25 -34.25 29.9375 -32.59375 C 30.632812 -30.9375 31.070312 -29.066406 31.25 -26.984375 L 23.59375 -26.984375 C 23.519531 -28.171875 23.34375 -29.210938 23.0625 -30.109375 C 22.78125 -31.003906 22.367188 -31.742188 21.828125 -32.328125 C 21.296875 -32.921875 20.625 -33.367188 19.8125 -33.671875 C 19 -33.972656 18.03125 -34.125 16.90625 -34.125 C 15.71875 -34.125 14.6875 -33.867188 13.8125 -33.359375 C 12.9375 -32.847656 12.210938 -32.097656 11.640625 -31.109375 C 11.066406 -30.128906 10.640625 -28.921875 10.359375 -27.484375 C 10.085938 -26.054688 9.953125 -24.429688 9.953125 -22.609375 L 9.953125 -17.203125 C 9.953125 -13.285156 10.503906 -10.382812 11.609375 -8.5 C 12.710938 -6.625 14.457031 -5.6875 16.84375 -5.6875 C 18.851562 -5.6875 20.441406 -6.21875 21.609375 -7.28125 C 22.773438 -8.351562 23.421875 -10.082031 23.546875 -12.46875 Z M 31.234375 -12.46875" stroke-linecap="round" />
</g>
		<g transform="matrix(1.33 0 0 1.33 -89.34 210.49)"  >
<path style="stroke: none; stroke-width: 1; stroke-dasharray: none; stroke-linecap: butt; stroke-dashoffset: 0; stroke-linejoin: miter; stroke-miterlimit: 4; fill: rgb(255,255,255); fill-rule: nonzero; opacity: 1;" vector-effect="non-scaling-stroke"  transform=" translate(-17.08, 14.51)" d="M 22.71875 -4.15625 C 21.71875 -2.675781 20.507812 -1.515625 19.09375 -0.671875 C 17.6875 0.160156 16.144531 0.578125 14.46875 0.578125 C 12.9375 0.578125 11.53125 0.34375 10.25 -0.125 C 8.976562 -0.601562 7.882812 -1.359375 6.96875 -2.390625 C 6.0625 -3.421875 5.359375 -4.734375 4.859375 -6.328125 C 4.359375 -7.921875 4.109375 -9.84375 4.109375 -12.09375 L 4.109375 -29.59375 L 11.703125 -29.59375 L 11.703125 -12.03125 C 11.703125 -10.832031 11.785156 -9.820312 11.953125 -9 C 12.128906 -8.175781 12.410156 -7.515625 12.796875 -7.015625 C 13.179688 -6.515625 13.679688 -6.15625 14.296875 -5.9375 C 14.921875 -5.71875 15.679688 -5.609375 16.578125 -5.609375 C 18.085938 -5.609375 19.316406 -5.894531 20.265625 -6.46875 C 21.210938 -7.039062 21.929688 -7.828125 22.421875 -8.828125 L 22.421875 -29.59375 L 30.046875 -29.59375 L 30.046875 0 L 23.15625 0 Z M 22.71875 -4.15625" stroke-linecap="round" />
</g>
		<g transform="matrix(1.33 0 0 1.33 -44.28 202.2)"  >
<path style="stroke: none; stroke-width: 1; stroke-dasharray: none; stroke-linecap: butt; stroke-dashoffset: 0; stroke-linejoin: miter; stroke-miterlimit: 4; fill: rgb(255,255,255); fill-rule: nonzero; opacity: 1;" vector-effect="non-scaling-stroke"  transform=" translate(-17.27, 20.73)" d="M 30.515625 -14.5 C 30.515625 -12.289062 30.269531 -10.265625 29.78125 -8.421875 C 29.300781 -6.578125 28.578125 -4.988281 27.609375 -3.65625 C 26.648438 -2.332031 25.445312 -1.300781 24 -0.5625 C 22.5625 0.175781 20.890625 0.546875 18.984375 0.546875 C 17.242188 0.546875 15.738281 0.222656 14.46875 -0.421875 C 13.207031 -1.066406 12.125 -1.972656 11.21875 -3.140625 L 10.859375 0 L 4.015625 0 L 4.015625 -42 L 11.625 -42 L 11.625 -26.90625 C 12.5 -27.925781 13.53125 -28.71875 14.71875 -29.28125 C 15.914062 -29.851562 17.316406 -30.140625 18.921875 -30.140625 C 20.859375 -30.140625 22.550781 -29.765625 24 -29.015625 C 25.445312 -28.265625 26.648438 -27.222656 27.609375 -25.890625 C 28.578125 -24.566406 29.300781 -22.976562 29.78125 -21.125 C 30.269531 -19.269531 30.515625 -17.25 30.515625 -15.0625 Z M 22.921875 -15.0625 C 22.921875 -16.269531 22.828125 -17.410156 22.640625 -18.484375 C 22.460938 -19.554688 22.148438 -20.5 21.703125 -21.3125 C 21.253906 -22.125 20.644531 -22.765625 19.875 -23.234375 C 19.113281 -23.710938 18.160156 -23.953125 17.015625 -23.953125 C 15.628906 -23.953125 14.5 -23.660156 13.625 -23.078125 C 12.757812 -22.492188 12.09375 -21.691406 11.625 -20.671875 L 11.625 -8.890625 C 12.09375 -7.867188 12.757812 -7.066406 13.625 -6.484375 C 14.5 -5.898438 15.644531 -5.609375 17.0625 -5.609375 C 18.207031 -5.609375 19.15625 -5.832031 19.90625 -6.28125 C 20.65625 -6.726562 21.253906 -7.347656 21.703125 -8.140625 C 22.148438 -8.929688 22.460938 -9.867188 22.640625 -10.953125 C 22.828125 -12.035156 22.921875 -13.21875 22.921875 -14.5 Z M 22.921875 -15.0625" stroke-linecap="round" />
</g>
		<g transform="matrix(1.33 0 0 1.33 0.1 210.1)"  >
<path style="stroke: none; stroke-width: 1; stroke-dasharray: none; stroke-linecap: butt; stroke-dashoffset: 0; stroke-linejoin: miter; stroke-miterlimit: 4; fill: rgb(255,255,255); fill-rule: nonzero; opacity: 1;" vector-effect="non-scaling-stroke"  transform=" translate(-16.95, 14.8)" d="M 18.21875 0.546875 C 15.9375 0.546875 13.863281 0.171875 12 -0.578125 C 10.144531 -1.328125 8.550781 -2.34375 7.21875 -3.625 C 5.882812 -4.90625 4.859375 -6.414062 4.140625 -8.15625 C 3.421875 -9.90625 3.0625 -11.769531 3.0625 -13.75 L 3.0625 -14.84375 C 3.0625 -17.101562 3.414062 -19.164062 4.125 -21.03125 C 4.84375 -22.90625 5.835938 -24.515625 7.109375 -25.859375 C 8.390625 -27.210938 9.90625 -28.265625 11.65625 -29.015625 C 13.40625 -29.765625 15.304688 -30.140625 17.359375 -30.140625 C 19.492188 -30.140625 21.394531 -29.785156 23.0625 -29.078125 C 24.726562 -28.378906 26.140625 -27.390625 27.296875 -26.109375 C 28.460938 -24.835938 29.34375 -23.300781 29.9375 -21.5 C 30.539062 -19.707031 30.84375 -17.726562 30.84375 -15.5625 L 30.84375 -12.328125 L 10.78125 -12.328125 C 10.925781 -11.328125 11.21875 -10.410156 11.65625 -9.578125 C 12.101562 -8.753906 12.671875 -8.039062 13.359375 -7.4375 C 14.054688 -6.832031 14.851562 -6.363281 15.75 -6.03125 C 16.644531 -5.707031 17.617188 -5.546875 18.671875 -5.546875 C 19.421875 -5.546875 20.164062 -5.617188 20.90625 -5.765625 C 21.644531 -5.910156 22.347656 -6.125 23.015625 -6.40625 C 23.691406 -6.695312 24.320312 -7.050781 24.90625 -7.46875 C 25.488281 -7.882812 26 -8.375 26.4375 -8.9375 L 30.25 -4.84375 C 29.769531 -4.164062 29.148438 -3.503906 28.390625 -2.859375 C 27.640625 -2.210938 26.75 -1.640625 25.71875 -1.140625 C 24.6875 -0.640625 23.539062 -0.234375 22.28125 0.078125 C 21.03125 0.390625 19.675781 0.546875 18.21875 0.546875 Z M 17.3125 -23.984375 C 16.457031 -23.984375 15.671875 -23.832031 14.953125 -23.53125 C 14.242188 -23.226562 13.617188 -22.796875 13.078125 -22.234375 C 12.546875 -21.671875 12.097656 -20.992188 11.734375 -20.203125 C 11.367188 -19.421875 11.09375 -18.546875 10.90625 -17.578125 L 23.375 -17.578125 L 23.375 -18.1875 C 23.34375 -18.988281 23.1875 -19.742188 22.90625 -20.453125 C 22.632812 -21.160156 22.242188 -21.773438 21.734375 -22.296875 C 21.222656 -22.816406 20.597656 -23.226562 19.859375 -23.53125 C 19.128906 -23.832031 18.28125 -23.984375 17.3125 -23.984375 Z M 17.3125 -23.984375" stroke-linecap="round" />
</g>
		<g transform="matrix(1.33 0 0 1.33 89.99 203.29)"  >
<path style="stroke: none; stroke-width: 1; stroke-dasharray: none; stroke-linecap: butt; stroke-dashoffset: 0; stroke-linejoin: miter; stroke-miterlimit: 4; fill: rgb(255,255,255); fill-rule: nonzero; opacity: 1;" vector-effect="non-scaling-stroke"  transform=" translate(-17.17, 19.91)" d="M 23.15625 -8.3125 L 11.21875 -8.3125 L 8.859375 0 L 0.765625 0 L 13.8125 -39.8125 L 20.78125 -39.8125 L 33.578125 0 L 25.484375 0 Z M 13.09375 -14.84375 L 21.359375 -14.84375 L 17.28125 -29.5 Z M 13.09375 -14.84375" stroke-linecap="round" />
</g>
		<g transform="matrix(1.33 0 0 1.33 134.28 203.29)"  >
<path style="stroke: none; stroke-width: 1; stroke-dasharray: none; stroke-linecap: butt; stroke-dashoffset: 0; stroke-linejoin: miter; stroke-miterlimit: 4; fill: rgb(255,255,255); fill-rule: nonzero; opacity: 1;" vector-effect="non-scaling-stroke"  transform=" translate(-16.79, 19.91)" d="M 5.28125 -39.8125 L 28.296875 -39.8125 L 28.296875 -33.609375 L 20.53125 -33.609375 L 20.53125 -6.1875 L 28.296875 -6.1875 L 28.296875 0 L 5.28125 0 L 5.28125 -6.1875 L 12.859375 -6.1875 L 12.859375 -33.609375 L 5.28125 -33.609375 Z M 5.28125 -39.8125" stroke-linecap="round" />
</g>
</g>
</g>
<g transform="matrix(NaN NaN NaN NaN 0 0)"  >
<g style=""   >
</g>
</g>
<g transform="matrix(NaN NaN NaN NaN 0 0)"  >
<g style=""   >
</g>
</g>
</svg>