<?xml version="1.0" encoding="UTF-8" standalone="no" ?>
<!DOCTYPE svg PUBLIC "-//W3C//DTD SVG 1.1//EN" "http://www.w3.org/Graphics/SVG/1.1/DTD/svg11.dtd">
<svg xmlns="http://www.w3.org/2000/svg" xmlns:xlink="http://www.w3.org/1999/xlink" version="1.1" width="1080" height="480" viewBox="0 0 1080 480" xml:space="preserve">
<desc>Created with Fabric.js 5.2.4</desc>
<defs>
</defs>
<rect x="0" y="0" width="100%" height="100%" fill="transparent"></rect>
<g transform="matrix(Infinity NaN NaN Infinity 0 0)" id="240f398c-3414-41c3-ae8e-00a2b452a9e5"  >
</g>
<g transform="matrix(1 0 0 1 540 240)" id="9f3b777d-3d10-4706-bcdc-0dbd05c73b28"  >
<rect style="stroke: none; stroke-width: 1; stroke-dasharray: none; stroke-linecap: butt; stroke-dashoffset: 0; stroke-linejoin: miter; stroke-miterlimit: 4; fill: rgb(255,255,255); fill-rule: nonzero; opacity: 1; visibility: hidden;" vector-effect="non-scaling-stroke"  x="-540" y="-240" rx="0" ry="0" width="1080" height="480" />
</g>
<g transform="matrix(1.06 0 0 1.06 540 240)"  >
<g style="" vector-effect="non-scaling-stroke"   >
		<g transform="matrix(1.33 0 0 1.33 -310.67 -0.45)" clip-path="url(#CLIPPATH_7)"  >
<clipPath id="CLIPPATH_7" >
	<path transform="matrix(1 0 0 1 0 -0.16) translate(-152.71, -391)" d="M 18.5625 256 L 286.851562 256 L 286.851562 526 L 18.5625 526 Z M 18.5625 256" stroke-linecap="round" />
</clipPath>
<path style="stroke: none; stroke-width: 1; stroke-dasharray: none; stroke-linecap: butt; stroke-dashoffset: 0; stroke-linejoin: miter; stroke-miterlimit: 4; fill: rgb(255,255,255); fill-rule: nonzero; opacity: 1;" vector-effect="non-scaling-stroke"  transform=" translate(-152.71, -391.16)" d="M 248.527344 256.804688 C 269.667969 256.804688 286.851562 274.019531 286.851562 295.191406 L 286.851562 487.128906 C 286.851562 508.300781 269.667969 525.515625 248.527344 525.515625 L 56.890625 525.515625 C 35.75 525.515625 18.5625 508.300781 18.5625 487.128906 L 18.5625 295.191406 C 18.5625 274.019531 35.75 256.804688 56.890625 256.804688 Z M 81.503906 349.773438 C 58.328125 349.773438 39.523438 368.546875 39.523438 391.757812 C 39.523438 414.972656 58.328125 433.746094 81.503906 433.746094 C 96.355469 433.746094 109.351562 426.066406 116.835938 414.433594 L 117.136719 414.011719 L 116.894531 413.652344 C 113.003906 407.292969 110.789062 399.796875 110.789062 391.757812 C 110.789062 383.601562 113.125 375.984375 117.136719 369.507812 C 109.710938 357.632812 96.535156 349.773438 81.503906 349.773438 Z M 152.707031 349.773438 C 137.855469 349.773438 124.859375 357.449219 117.375 369.085938 L 117.074219 369.507812 L 117.316406 369.867188 C 121.207031 376.226562 123.425781 383.722656 123.425781 391.757812 C 123.425781 399.917969 121.089844 407.535156 117.074219 414.011719 C 124.503906 425.828125 137.675781 433.746094 152.707031 433.746094 C 167.558594 433.746094 180.554688 426.066406 188.042969 414.433594 L 188.339844 414.011719 L 188.101562 413.652344 C 184.207031 407.292969 181.992188 399.796875 181.992188 391.757812 C 181.992188 383.601562 184.328125 375.984375 188.339844 369.507812 C 180.914062 357.691406 167.738281 349.773438 152.707031 349.773438 Z M 223.914062 349.773438 C 209.0625 349.773438 196.066406 357.449219 188.582031 369.085938 L 188.28125 369.507812 L 188.519531 369.867188 C 192.414062 376.226562 194.628906 383.722656 194.628906 391.757812 C 194.628906 399.917969 192.292969 407.535156 188.28125 414.011719 C 195.707031 425.886719 208.882812 433.746094 223.914062 433.746094 C 247.089844 433.746094 265.894531 414.972656 265.894531 391.757812 C 265.894531 368.546875 247.089844 349.773438 223.914062 349.773438 Z M 223.914062 349.773438" stroke-linecap="round" />
</g>
		<g transform="matrix(1.33 0 0 1.33 -38.47 2.51)"  >
<path style="stroke: none; stroke-width: 1; stroke-dasharray: none; stroke-linecap: butt; stroke-dashoffset: 0; stroke-linejoin: miter; stroke-miterlimit: 4; fill: rgb(255,255,255); fill-rule: nonzero; opacity: 1;" vector-effect="non-scaling-stroke"  transform=" translate(-30.99, 36.93)" d="M 57.9375 -23.125 C 57.695312 -19.40625 56.890625 -16.054688 55.515625 -13.078125 C 54.148438 -10.109375 52.316406 -7.570312 50.015625 -5.46875 C 47.710938 -3.375 44.972656 -1.757812 41.796875 -0.625 C 38.617188 0.5 35.101562 1.0625 31.25 1.0625 C 26.882812 1.0625 23.007812 0.257812 19.625 -1.34375 C 16.25 -2.945312 13.410156 -5.191406 11.109375 -8.078125 C 8.804688 -10.972656 7.046875 -14.453125 5.828125 -18.515625 C 4.609375 -22.578125 4 -27.039062 4 -31.90625 L 4 -41.84375 C 4 -46.75 4.640625 -51.226562 5.921875 -55.28125 C 7.210938 -59.34375 9.039062 -62.828125 11.40625 -65.734375 C 13.78125 -68.648438 16.648438 -70.910156 20.015625 -72.515625 C 23.378906 -74.117188 27.15625 -74.921875 31.34375 -74.921875 C 35.40625 -74.921875 39.015625 -74.34375 42.171875 -73.1875 C 45.335938 -72.039062 48.035156 -70.398438 50.265625 -68.265625 C 52.503906 -66.140625 54.265625 -63.535156 55.546875 -60.453125 C 56.828125 -57.378906 57.640625 -53.914062 57.984375 -50.0625 L 43.78125 -50.0625 C 43.644531 -52.257812 43.3125 -54.1875 42.78125 -55.84375 C 42.257812 -57.507812 41.5 -58.890625 40.5 -59.984375 C 39.507812 -61.085938 38.257812 -61.914062 36.75 -62.46875 C 35.25 -63.03125 33.445312 -63.3125 31.34375 -63.3125 C 29.144531 -63.3125 27.234375 -62.835938 25.609375 -61.890625 C 23.992188 -60.941406 22.648438 -59.550781 21.578125 -57.71875 C 20.515625 -55.894531 19.726562 -53.65625 19.21875 -51 C 18.71875 -48.351562 18.46875 -45.335938 18.46875 -41.953125 L 18.46875 -31.90625 C 18.46875 -24.632812 19.488281 -19.253906 21.53125 -15.765625 C 23.582031 -12.285156 26.820312 -10.546875 31.25 -10.546875 C 34.96875 -10.546875 37.910156 -11.535156 40.078125 -13.515625 C 42.242188 -15.492188 43.441406 -18.695312 43.671875 -23.125 Z M 57.9375 -23.125" stroke-linecap="round" />
</g>
		<g transform="matrix(1.33 0 0 1.33 45.59 15.9)"  >
<path style="stroke: none; stroke-width: 1; stroke-dasharray: none; stroke-linecap: butt; stroke-dashoffset: 0; stroke-linejoin: miter; stroke-miterlimit: 4; fill: rgb(255,255,255); fill-rule: nonzero; opacity: 1;" vector-effect="non-scaling-stroke"  transform=" translate(-31.68, 26.91)" d="M 42.15625 -7.703125 C 40.289062 -4.972656 38.046875 -2.828125 35.421875 -1.265625 C 32.804688 0.285156 29.941406 1.0625 26.828125 1.0625 C 23.992188 1.0625 21.390625 0.625 19.015625 -0.25 C 16.648438 -1.132812 14.625 -2.53125 12.9375 -4.4375 C 11.25 -6.351562 9.9375 -8.789062 9 -11.75 C 8.070312 -14.707031 7.609375 -18.265625 7.609375 -22.421875 L 7.609375 -54.890625 L 21.71875 -54.890625 L 21.71875 -22.3125 C 21.71875 -20.082031 21.875 -18.207031 22.1875 -16.6875 C 22.507812 -15.164062 23.023438 -13.9375 23.734375 -13 C 24.453125 -12.070312 25.382812 -11.40625 26.53125 -11 C 27.675781 -10.601562 29.078125 -10.40625 30.734375 -10.40625 C 33.546875 -10.40625 35.832031 -10.9375 37.59375 -12 C 39.351562 -13.0625 40.6875 -14.523438 41.59375 -16.390625 L 41.59375 -54.890625 L 55.75 -54.890625 L 55.75 0 L 42.96875 0 Z M 42.15625 -7.703125" stroke-linecap="round" />
</g>
		<g transform="matrix(1.33 0 0 1.33 129.19 0.47)"  >
<path style="stroke: none; stroke-width: 1; stroke-dasharray: none; stroke-linecap: butt; stroke-dashoffset: 0; stroke-linejoin: miter; stroke-miterlimit: 4; fill: rgb(255,255,255); fill-rule: nonzero; opacity: 1;" vector-effect="non-scaling-stroke"  transform=" translate(-32.03, 38.45)" d="M 56.609375 -26.890625 C 56.609375 -22.796875 56.160156 -19.039062 55.265625 -15.625 C 54.367188 -12.207031 53.023438 -9.265625 51.234375 -6.796875 C 49.441406 -4.328125 47.207031 -2.40625 44.53125 -1.03125 C 41.863281 0.332031 38.753906 1.015625 35.203125 1.015625 C 31.992188 1.015625 29.210938 0.414062 26.859375 -0.78125 C 24.503906 -1.988281 22.484375 -3.671875 20.796875 -5.828125 L 20.140625 0 L 7.453125 0 L 7.453125 -77.921875 L 21.5625 -77.921875 L 21.5625 -49.921875 C 23.1875 -51.804688 25.101562 -53.273438 27.3125 -54.328125 C 29.53125 -55.378906 32.128906 -55.90625 35.109375 -55.90625 C 38.691406 -55.90625 41.828125 -55.210938 44.515625 -53.828125 C 47.203125 -52.441406 49.441406 -50.515625 51.234375 -48.046875 C 53.023438 -45.578125 54.367188 -42.625 55.265625 -39.1875 C 56.160156 -35.75 56.609375 -32.003906 56.609375 -27.953125 Z M 42.515625 -27.953125 C 42.515625 -30.179688 42.34375 -32.289062 42 -34.28125 C 41.664062 -36.28125 41.082031 -38.03125 40.25 -39.53125 C 39.425781 -41.039062 38.300781 -42.234375 36.875 -43.109375 C 35.457031 -43.992188 33.679688 -44.4375 31.546875 -44.4375 C 28.984375 -44.4375 26.894531 -43.894531 25.28125 -42.8125 C 23.675781 -41.726562 22.4375 -40.238281 21.5625 -38.34375 L 21.5625 -16.484375 C 22.4375 -14.585938 23.675781 -13.097656 25.28125 -12.015625 C 26.894531 -10.941406 29.019531 -10.40625 31.65625 -10.40625 C 33.78125 -10.40625 35.535156 -10.816406 36.921875 -11.640625 C 38.316406 -12.472656 39.425781 -13.625 40.25 -15.09375 C 41.082031 -16.5625 41.664062 -18.300781 42 -20.3125 C 42.34375 -22.320312 42.515625 -24.515625 42.515625 -26.890625 Z M 42.515625 -27.953125" stroke-linecap="round" />
</g>
		<g transform="matrix(1.33 0 0 1.33 211.54 15.19)"  >
<path style="stroke: none; stroke-width: 1; stroke-dasharray: none; stroke-linecap: butt; stroke-dashoffset: 0; stroke-linejoin: miter; stroke-miterlimit: 4; fill: rgb(255,255,255); fill-rule: nonzero; opacity: 1;" vector-effect="non-scaling-stroke"  transform=" translate(-31.45, 27.45)" d="M 33.78125 1.015625 C 29.550781 1.015625 25.710938 0.320312 22.265625 -1.0625 C 18.816406 -2.445312 15.859375 -4.332031 13.390625 -6.71875 C 10.921875 -9.101562 9.019531 -11.910156 7.6875 -15.140625 C 6.351562 -18.367188 5.6875 -21.828125 5.6875 -25.515625 L 5.6875 -27.546875 C 5.6875 -31.734375 6.34375 -35.5625 7.65625 -39.03125 C 8.976562 -42.5 10.820312 -45.484375 13.1875 -47.984375 C 15.550781 -50.492188 18.359375 -52.441406 21.609375 -53.828125 C 24.859375 -55.210938 28.394531 -55.90625 32.21875 -55.90625 C 36.164062 -55.90625 39.6875 -55.253906 42.78125 -53.953125 C 45.882812 -52.648438 48.507812 -50.8125 50.65625 -48.4375 C 52.800781 -46.070312 54.429688 -43.222656 55.546875 -39.890625 C 56.660156 -36.566406 57.21875 -32.890625 57.21875 -28.859375 L 57.21875 -22.875 L 19.984375 -22.875 C 20.253906 -21.019531 20.800781 -19.320312 21.625 -17.78125 C 22.457031 -16.238281 23.515625 -14.910156 24.796875 -13.796875 C 26.085938 -12.679688 27.5625 -11.816406 29.21875 -11.203125 C 30.875 -10.597656 32.679688 -10.296875 34.640625 -10.296875 C 36.035156 -10.296875 37.414062 -10.429688 38.78125 -10.703125 C 40.144531 -10.972656 41.453125 -11.367188 42.703125 -11.890625 C 43.960938 -12.421875 45.132812 -13.070312 46.21875 -13.84375 C 47.300781 -14.625 48.242188 -15.539062 49.046875 -16.59375 L 56.109375 -8.984375 C 55.222656 -7.734375 54.078125 -6.503906 52.671875 -5.296875 C 51.273438 -4.097656 49.617188 -3.03125 47.703125 -2.09375 C 45.796875 -1.164062 43.675781 -0.414062 41.34375 0.15625 C 39.007812 0.726562 36.488281 1.015625 33.78125 1.015625 Z M 32.109375 -44.484375 C 30.515625 -44.484375 29.054688 -44.203125 27.734375 -43.640625 C 26.421875 -43.085938 25.265625 -42.285156 24.265625 -41.234375 C 23.273438 -40.191406 22.441406 -38.941406 21.765625 -37.484375 C 21.085938 -36.035156 20.578125 -34.414062 20.234375 -32.625 L 43.375 -32.625 L 43.375 -33.734375 C 43.300781 -35.222656 43.007812 -36.625 42.5 -37.9375 C 42 -39.257812 41.273438 -40.398438 40.328125 -41.359375 C 39.378906 -42.328125 38.21875 -43.085938 36.84375 -43.640625 C 35.476562 -44.203125 33.898438 -44.484375 32.109375 -44.484375 Z M 32.109375 -44.484375" stroke-linecap="round" />
</g>
		<g transform="matrix(1.33 0 0 1.33 378.33 2.52)"  >
<path style="stroke: none; stroke-width: 1; stroke-dasharray: none; stroke-linecap: butt; stroke-dashoffset: 0; stroke-linejoin: miter; stroke-miterlimit: 4; fill: rgb(255,255,255); fill-rule: nonzero; opacity: 1;" vector-effect="non-scaling-stroke"  transform=" translate(-31.86, 36.93)" d="M 42.96875 -15.421875 L 20.796875 -15.421875 L 16.4375 0 L 1.421875 0 L 25.625 -73.859375 L 38.546875 -73.859375 L 62.296875 0 L 47.28125 0 Z M 24.296875 -27.546875 L 39.625 -27.546875 L 32.0625 -54.734375 Z M 24.296875 -27.546875" stroke-linecap="round" />
</g>
		<g transform="matrix(1.33 0 0 1.33 460.55 2.52)"  >
<path style="stroke: none; stroke-width: 1; stroke-dasharray: none; stroke-linecap: butt; stroke-dashoffset: 0; stroke-linejoin: miter; stroke-miterlimit: 4; fill: rgb(255,255,255); fill-rule: nonzero; opacity: 1;" vector-effect="non-scaling-stroke"  transform=" translate(-31.15, 36.93)" d="M 9.796875 -73.859375 L 52.5 -73.859375 L 52.5 -62.34375 L 38.09375 -62.34375 L 38.09375 -11.46875 L 52.5 -11.46875 L 52.5 0 L 9.796875 0 L 9.796875 -11.46875 L 23.84375 -11.46875 L 23.84375 -62.34375 L 9.796875 -62.34375 Z M 9.796875 -73.859375" stroke-linecap="round" />
</g>
</g>
</g>
<g transform="matrix(NaN NaN NaN NaN 0 0)"  >
<g style=""   >
</g>
</g>
</svg>