<?xml version="1.0" encoding="UTF-8" standalone="no" ?>
<!DOCTYPE svg PUBLIC "-//W3C//DTD SVG 1.1//EN" "http://www.w3.org/Graphics/SVG/1.1/DTD/svg11.dtd">
<svg xmlns="http://www.w3.org/2000/svg" xmlns:xlink="http://www.w3.org/1999/xlink" version="1.1" width="1080" height="480" viewBox="0 0 1080 480" xml:space="preserve">
<desc>Created with Fabric.js 5.2.4</desc>
<defs>
</defs>
<rect x="0" y="0" width="100%" height="100%" fill="transparent"></rect>
<g transform="matrix(1 0 0 1 540 240)" id="7f1fdf82-145e-47e5-a48d-c674b68dd486"  >
<rect style="stroke: none; stroke-width: 1; stroke-dasharray: none; stroke-linecap: butt; stroke-dashoffset: 0; stroke-linejoin: miter; stroke-miterlimit: 4; fill: rgb(255,255,255); fill-rule: nonzero; opacity: 1; visibility: hidden;" vector-effect="non-scaling-stroke"  x="-540" y="-240" rx="0" ry="0" width="1080" height="480" />
</g>
<g transform="matrix(Infinity NaN NaN Infinity 0 0)" id="f9b98c15-101d-4795-a19f-62f128890d90"  >
</g>
<g transform="matrix(0.94 0 0 0.94 540 240)"  >
<g style="" vector-effect="non-scaling-stroke"   >
		<g transform="matrix(1.33 0 0 1.33 -296.2 0)" clip-path="url(#CLIPPATH_6)"  >
<clipPath id="CLIPPATH_6" >
	<path transform="matrix(1 0 0 1 0 -0.22) translate(-185.48, -427.5)" id="baf7617004" d="M 19.726562 261 L 351.226562 261 L 351.226562 594 L 19.726562 594 Z M 19.726562 261" stroke-linecap="round" />
</clipPath>
<path style="stroke: none; stroke-width: 1; stroke-dasharray: none; stroke-linecap: butt; stroke-dashoffset: 0; stroke-linejoin: miter; stroke-miterlimit: 4; fill: rgb(255,255,255); fill-rule: nonzero; opacity: 1;" vector-effect="non-scaling-stroke"  transform=" translate(-185.48, -427.72)" d="M 303.867188 261.773438 C 329.988281 261.773438 351.226562 283.035156 351.226562 309.1875 L 351.226562 546.25 C 351.226562 572.398438 329.988281 593.660156 303.867188 593.660156 L 67.082031 593.660156 C 40.964844 593.660156 19.726562 572.398438 19.726562 546.25 L 19.726562 309.1875 C 19.726562 283.035156 40.964844 261.773438 67.082031 261.773438 Z M 97.496094 376.601562 C 68.859375 376.601562 45.625 399.789062 45.625 428.460938 C 45.625 457.128906 68.859375 480.316406 97.496094 480.316406 C 115.847656 480.316406 131.902344 470.832031 141.152344 456.460938 L 141.523438 455.945312 L 141.226562 455.5 C 136.417969 447.644531 133.679688 438.386719 133.679688 428.460938 C 133.679688 418.382812 136.566406 408.976562 141.523438 400.976562 C 132.347656 386.304688 116.070312 376.601562 97.496094 376.601562 Z M 185.476562 376.601562 C 167.125 376.601562 151.066406 386.085938 141.820312 400.457031 L 141.449219 400.976562 L 141.746094 401.417969 C 146.554688 409.273438 149.292969 418.53125 149.292969 428.460938 C 149.292969 438.535156 146.40625 447.941406 141.449219 455.945312 C 150.625 470.539062 166.902344 480.316406 185.476562 480.316406 C 203.828125 480.316406 219.882812 470.832031 229.132812 456.460938 L 229.503906 455.945312 L 229.207031 455.5 C 224.398438 447.644531 221.660156 438.386719 221.660156 428.460938 C 221.660156 418.382812 224.546875 408.976562 229.503906 400.976562 C 220.328125 386.378906 204.050781 376.601562 185.476562 376.601562 Z M 273.457031 376.601562 C 255.105469 376.601562 239.050781 386.085938 229.800781 400.457031 L 229.429688 400.976562 L 229.726562 401.417969 C 234.535156 409.273438 237.273438 418.53125 237.273438 428.460938 C 237.273438 438.535156 234.386719 447.941406 229.429688 455.945312 C 238.605469 470.613281 254.882812 480.316406 273.457031 480.316406 C 302.09375 480.316406 325.328125 457.128906 325.328125 428.460938 C 325.328125 399.789062 302.09375 376.601562 273.457031 376.601562 Z M 273.457031 376.601562" stroke-linecap="round" />
</g>
		<g transform="matrix(1.33 0 0 1.33 -26.56 4.05)"  >
<path style="stroke: none; stroke-width: 1; stroke-dasharray: none; stroke-linecap: butt; stroke-dashoffset: 0; stroke-linejoin: miter; stroke-miterlimit: 4; fill: rgb(255,255,255); fill-rule: nonzero; opacity: 1;" vector-effect="non-scaling-stroke"  transform=" translate(-31.95, 38.08)" d="M 59.71875 -23.84375 C 59.476562 -20.007812 58.648438 -16.554688 57.234375 -13.484375 C 55.828125 -10.421875 53.9375 -7.804688 51.5625 -5.640625 C 49.195312 -3.484375 46.375 -1.820312 43.09375 -0.65625 C 39.8125 0.507812 36.1875 1.09375 32.21875 1.09375 C 27.71875 1.09375 23.722656 0.265625 20.234375 -1.390625 C 16.753906 -3.046875 13.828125 -5.363281 11.453125 -8.34375 C 9.078125 -11.320312 7.257812 -14.898438 6 -19.078125 C 4.75 -23.265625 4.125 -27.867188 4.125 -32.890625 L 4.125 -43.140625 C 4.125 -48.203125 4.785156 -52.820312 6.109375 -57 C 7.441406 -61.1875 9.328125 -64.78125 11.765625 -67.78125 C 14.203125 -70.78125 17.15625 -73.109375 20.625 -74.765625 C 24.101562 -76.421875 28.003906 -77.25 32.328125 -77.25 C 36.503906 -77.25 40.222656 -76.65625 43.484375 -75.46875 C 46.742188 -74.28125 49.523438 -72.585938 51.828125 -70.390625 C 54.128906 -68.191406 55.941406 -65.503906 57.265625 -62.328125 C 58.585938 -59.160156 59.425781 -55.59375 59.78125 -51.625 L 45.140625 -51.625 C 44.992188 -53.882812 44.648438 -55.867188 44.109375 -57.578125 C 43.566406 -59.285156 42.78125 -60.707031 41.75 -61.84375 C 40.726562 -62.976562 39.441406 -63.832031 37.890625 -64.40625 C 36.335938 -64.976562 34.484375 -65.265625 32.328125 -65.265625 C 30.054688 -65.265625 28.082031 -64.773438 26.40625 -63.796875 C 24.738281 -62.828125 23.351562 -61.398438 22.25 -59.515625 C 21.15625 -57.628906 20.34375 -55.316406 19.8125 -52.578125 C 19.289062 -49.847656 19.03125 -46.738281 19.03125 -43.25 L 19.03125 -32.890625 C 19.03125 -25.398438 20.082031 -19.859375 22.1875 -16.265625 C 24.300781 -12.671875 27.644531 -10.875 32.21875 -10.875 C 36.050781 -10.875 39.082031 -11.894531 41.3125 -13.9375 C 43.539062 -15.976562 44.78125 -19.28125 45.03125 -23.84375 Z M 59.71875 -23.84375" stroke-linecap="round" />
</g>
		<g transform="matrix(1.33 0 0 1.33 60.09 17.82)"  >
<path style="stroke: none; stroke-width: 1; stroke-dasharray: none; stroke-linecap: butt; stroke-dashoffset: 0; stroke-linejoin: miter; stroke-miterlimit: 4; fill: rgb(255,255,255); fill-rule: nonzero; opacity: 1;" vector-effect="non-scaling-stroke"  transform=" translate(-32.66, 27.75)" d="M 43.453125 -7.953125 C 41.535156 -5.128906 39.226562 -2.914062 36.53125 -1.3125 C 33.832031 0.289062 30.878906 1.09375 27.671875 1.09375 C 24.734375 1.09375 22.046875 0.640625 19.609375 -0.265625 C 17.171875 -1.171875 15.078125 -2.609375 13.328125 -4.578125 C 11.585938 -6.546875 10.238281 -9.054688 9.28125 -12.109375 C 8.320312 -15.160156 7.84375 -18.828125 7.84375 -23.109375 L 7.84375 -56.59375 L 22.390625 -56.59375 L 22.390625 -23.015625 C 22.390625 -20.710938 22.550781 -18.773438 22.875 -17.203125 C 23.207031 -15.640625 23.738281 -14.378906 24.46875 -13.421875 C 25.207031 -12.460938 26.164062 -11.769531 27.34375 -11.34375 C 28.53125 -10.925781 29.976562 -10.71875 31.6875 -10.71875 C 34.582031 -10.71875 36.9375 -11.265625 38.75 -12.359375 C 40.5625 -13.460938 41.941406 -14.972656 42.890625 -16.890625 L 42.890625 -56.59375 L 57.484375 -56.59375 L 57.484375 0 L 44.296875 0 Z M 43.453125 -7.953125" stroke-linecap="round" />
</g>
		<g transform="matrix(1.33 0 0 1.33 146.27 1.96)"  >
<path style="stroke: none; stroke-width: 1; stroke-dasharray: none; stroke-linecap: butt; stroke-dashoffset: 0; stroke-linejoin: miter; stroke-miterlimit: 4; fill: rgb(255,255,255); fill-rule: nonzero; opacity: 1;" vector-effect="non-scaling-stroke"  transform=" translate(-33.02, 39.64)" d="M 58.359375 -27.71875 C 58.359375 -23.5 57.894531 -19.628906 56.96875 -16.109375 C 56.050781 -12.585938 54.664062 -9.550781 52.8125 -7 C 50.96875 -4.457031 48.664062 -2.476562 45.90625 -1.0625 C 43.15625 0.34375 39.953125 1.046875 36.296875 1.046875 C 32.984375 1.046875 30.113281 0.425781 27.6875 -0.8125 C 25.269531 -2.050781 23.1875 -3.785156 21.4375 -6.015625 L 20.765625 0 L 7.6875 0 L 7.6875 -80.328125 L 22.234375 -80.328125 L 22.234375 -51.46875 C 23.898438 -53.414062 25.875 -54.929688 28.15625 -56.015625 C 30.445312 -57.097656 33.125 -57.640625 36.1875 -57.640625 C 39.882812 -57.640625 43.117188 -56.921875 45.890625 -55.484375 C 48.660156 -54.054688 50.96875 -52.066406 52.8125 -49.515625 C 54.664062 -46.972656 56.050781 -43.929688 56.96875 -40.390625 C 57.894531 -36.859375 58.359375 -33 58.359375 -28.8125 Z M 43.828125 -28.8125 C 43.828125 -31.113281 43.648438 -33.289062 43.296875 -35.34375 C 42.953125 -37.40625 42.351562 -39.210938 41.5 -40.765625 C 40.644531 -42.316406 39.484375 -43.546875 38.015625 -44.453125 C 36.554688 -45.359375 34.726562 -45.8125 32.53125 -45.8125 C 29.882812 -45.8125 27.734375 -45.253906 26.078125 -44.140625 C 24.421875 -43.023438 23.140625 -41.488281 22.234375 -39.53125 L 22.234375 -17 C 23.140625 -15.039062 24.421875 -13.503906 26.078125 -12.390625 C 27.734375 -11.273438 29.921875 -10.71875 32.640625 -10.71875 C 34.835938 -10.71875 36.648438 -11.144531 38.078125 -12 C 39.503906 -12.851562 40.644531 -14.035156 41.5 -15.546875 C 42.351562 -17.066406 42.953125 -18.863281 43.296875 -20.9375 C 43.648438 -23.019531 43.828125 -25.28125 43.828125 -27.71875 Z M 43.828125 -28.8125" stroke-linecap="round" />
</g>
		<g transform="matrix(1.33 0 0 1.33 231.18 17.09)"  >
<path style="stroke: none; stroke-width: 1; stroke-dasharray: none; stroke-linecap: butt; stroke-dashoffset: 0; stroke-linejoin: miter; stroke-miterlimit: 4; fill: rgb(255,255,255); fill-rule: nonzero; opacity: 1;" vector-effect="non-scaling-stroke"  transform=" translate(-32.43, 28.3)" d="M 34.828125 1.046875 C 30.472656 1.046875 26.515625 0.332031 22.953125 -1.09375 C 19.398438 -2.53125 16.347656 -4.472656 13.796875 -6.921875 C 11.253906 -9.378906 9.296875 -12.273438 7.921875 -15.609375 C 6.546875 -18.941406 5.859375 -22.507812 5.859375 -26.3125 L 5.859375 -28.40625 C 5.859375 -32.726562 6.535156 -36.675781 7.890625 -40.25 C 9.253906 -43.820312 11.15625 -46.894531 13.59375 -49.46875 C 16.039062 -52.050781 18.9375 -54.054688 22.28125 -55.484375 C 25.625 -56.921875 29.265625 -57.640625 33.203125 -57.640625 C 37.285156 -57.640625 40.921875 -56.96875 44.109375 -55.625 C 47.304688 -54.28125 50.007812 -52.382812 52.21875 -49.9375 C 54.4375 -47.5 56.117188 -44.5625 57.265625 -41.125 C 58.421875 -37.695312 59 -33.910156 59 -29.765625 L 59 -23.59375 L 20.609375 -23.59375 C 20.890625 -21.664062 21.457031 -19.910156 22.3125 -18.328125 C 23.164062 -16.742188 24.253906 -15.375 25.578125 -14.21875 C 26.898438 -13.070312 28.414062 -12.179688 30.125 -11.546875 C 31.832031 -10.921875 33.695312 -10.609375 35.71875 -10.609375 C 37.144531 -10.609375 38.5625 -10.75 39.96875 -11.03125 C 41.382812 -11.3125 42.738281 -11.722656 44.03125 -12.265625 C 45.320312 -12.804688 46.523438 -13.476562 47.640625 -14.28125 C 48.753906 -15.082031 49.734375 -16.023438 50.578125 -17.109375 L 57.84375 -9.25 C 56.9375 -7.96875 55.757812 -6.707031 54.3125 -5.46875 C 52.863281 -4.226562 51.15625 -3.128906 49.1875 -2.171875 C 47.21875 -1.210938 45.03125 -0.4375 42.625 0.15625 C 40.21875 0.75 37.617188 1.046875 34.828125 1.046875 Z M 33.109375 -45.859375 C 31.460938 -45.859375 29.957031 -45.570312 28.59375 -45 C 27.238281 -44.425781 26.046875 -43.597656 25.015625 -42.515625 C 23.992188 -41.429688 23.132812 -40.140625 22.4375 -38.640625 C 21.738281 -37.148438 21.21875 -35.476562 20.875 -33.625 L 44.71875 -33.625 L 44.71875 -34.78125 C 44.644531 -36.3125 44.347656 -37.753906 43.828125 -39.109375 C 43.304688 -40.472656 42.554688 -41.648438 41.578125 -42.640625 C 40.597656 -43.640625 39.398438 -44.425781 37.984375 -45 C 36.578125 -45.570312 34.953125 -45.859375 33.109375 -45.859375 Z M 33.109375 -45.859375" stroke-linecap="round" />
</g>
		<g transform="matrix(1.33 0 0 1.33 403.13 4.06)"  >
<path style="stroke: none; stroke-width: 1; stroke-dasharray: none; stroke-linecap: butt; stroke-dashoffset: 0; stroke-linejoin: miter; stroke-miterlimit: 4; fill: rgb(255,255,255); fill-rule: nonzero; opacity: 1;" vector-effect="non-scaling-stroke"  transform=" translate(-32.84, 38.07)" d="M 44.296875 -15.90625 L 21.4375 -15.90625 L 16.9375 0 L 1.46875 0 L 26.40625 -76.140625 L 39.75 -76.140625 L 64.21875 0 L 48.75 0 Z M 25.046875 -28.40625 L 40.84375 -28.40625 L 33.046875 -56.4375 Z M 25.046875 -28.40625" stroke-linecap="round" />
</g>
		<g transform="matrix(1.33 0 0 1.33 487.85 4.06)"  >
<path style="stroke: none; stroke-width: 1; stroke-dasharray: none; stroke-linecap: butt; stroke-dashoffset: 0; stroke-linejoin: miter; stroke-miterlimit: 4; fill: rgb(255,255,255); fill-rule: nonzero; opacity: 1;" vector-effect="non-scaling-stroke"  transform=" translate(-32.11, 38.07)" d="M 10.09375 -76.140625 L 54.125 -76.140625 L 54.125 -64.28125 L 39.28125 -64.28125 L 39.28125 -11.8125 L 54.125 -11.8125 L 54.125 0 L 10.09375 0 L 10.09375 -11.8125 L 24.578125 -11.8125 L 24.578125 -64.28125 L 10.09375 -64.28125 Z M 10.09375 -76.140625" stroke-linecap="round" />
</g>
</g>
</g>
<g transform="matrix(NaN NaN NaN NaN 0 0)"  >
<g style=""   >
</g>
</g>
</svg>