<?xml version="1.0" encoding="UTF-8" standalone="no" ?>
<!DOCTYPE svg PUBLIC "-//W3C//DTD SVG 1.1//EN" "http://www.w3.org/Graphics/SVG/1.1/DTD/svg11.dtd">
<svg xmlns="http://www.w3.org/2000/svg" xmlns:xlink="http://www.w3.org/1999/xlink" version="1.1" width="520" height="234" viewBox="0 0 520 234" xml:space="preserve">
<desc>Created with Fabric.js 5.2.4</desc>
<defs>
</defs>
<rect x="0" y="0" width="100%" height="100%" fill="transparent"></rect>
<g transform="matrix(1 0 0 1 260 117)" id="247bc449-f4b2-46c4-aab0-0acf84c650a6"  >
<rect style="stroke: none; stroke-width: 1; stroke-dasharray: none; stroke-linecap: butt; stroke-dashoffset: 0; stroke-linejoin: miter; stroke-miterlimit: 4; fill: rgb(255,255,255); fill-rule: nonzero; opacity: 1; visibility: hidden;" vector-effect="non-scaling-stroke"  x="-260" y="-117" rx="0" ry="0" width="520" height="234" />
</g>
<g transform="matrix(Infinity NaN NaN Infinity 0 0)" id="fffce399-a60a-49a3-8b05-247efd1a898e"  >
</g>
<g transform="matrix(0.74 0 0 0.74 260 117)"  >
<g style="" vector-effect="non-scaling-stroke"   >
		<g transform="matrix(1 0 0 1 -43.07 31.99)"  >
<path style="stroke: none; stroke-width: 1; stroke-dasharray: none; stroke-linecap: butt; stroke-dashoffset: 0; stroke-linejoin: miter; stroke-miterlimit: 4; fill: rgb(255,255,255); fill-rule: nonzero; opacity: 1;" vector-effect="non-scaling-stroke"  transform=" translate(-206.51, -263.69)" d="M 232.9 276.22 C 232.05 283.47 229.37 289.07000000000005 224.87 293.01000000000005 C 220.36 296.95000000000005 214.37 298.9200000000001 206.9 298.9200000000001 C 198.8 298.9200000000001 192.31 296.0200000000001 187.42000000000002 290.2100000000001 C 182.54000000000002 284.4000000000001 180.10000000000002 276.6300000000001 180.10000000000002 266.8900000000001 L 180.10000000000002 260.3000000000001 C 180.10000000000002 253.93000000000012 181.24 248.32000000000014 183.52 243.48000000000013 C 185.8 238.64000000000013 189.02 234.93000000000012 193.20000000000002 232.34000000000015 C 197.38000000000002 229.75000000000014 202.21 228.45000000000016 207.71 228.45000000000016 C 214.99 228.45000000000016 220.84 230.48000000000016 225.23000000000002 234.55000000000015 C 229.63000000000002 238.62000000000015 232.18 244.25000000000014 232.91000000000003 251.44000000000017 L 223.82000000000002 251.44000000000017 C 223.03000000000003 245.96000000000018 221.33 241.99000000000018 218.71 239.53000000000017 C 216.09 237.07000000000016 212.42000000000002 235.85000000000016 207.71 235.85000000000016 C 201.93 235.85000000000016 197.4 237.99000000000015 194.12 242.26000000000016 C 190.84 246.53000000000017 189.20000000000002 252.62000000000018 189.20000000000002 260.50000000000017 L 189.20000000000002 267.15000000000015 C 189.20000000000002 274.60000000000014 190.75000000000003 280.52000000000015 193.86 284.92000000000013 C 196.97000000000003 289.3200000000001 201.32000000000002 291.52000000000015 206.91000000000003 291.52000000000015 C 211.93000000000004 291.52000000000015 215.79000000000002 290.38000000000017 218.47000000000003 288.1100000000001 C 221.15000000000003 285.83000000000015 222.94000000000003 281.8700000000001 223.82000000000002 276.22000000000014 L 232.91000000000003 276.22000000000014 Z" stroke-linecap="round" />
</g>
		<g transform="matrix(1 0 0 1 14.17 41.28)"  >
<path style="stroke: none; stroke-width: 1; stroke-dasharray: none; stroke-linecap: butt; stroke-dashoffset: 0; stroke-linejoin: miter; stroke-miterlimit: 4; fill: rgb(255,255,255); fill-rule: nonzero; opacity: 1;" vector-effect="non-scaling-stroke"  transform=" translate(-263.75, -272.98)" d="M 275.34 292.95 C 271.95 296.94 266.96999999999997 298.93 260.40999999999997 298.93 C 254.97999999999996 298.93 250.83999999999997 297.35 247.99999999999997 294.2 C 245.15999999999997 291.03999999999996 243.71999999999997 286.37 243.68999999999997 280.19 L 243.68999999999997 247.03 L 252.39999999999998 247.03 L 252.39999999999998 279.95 C 252.39999999999998 287.67 255.53999999999996 291.53999999999996 261.82 291.53999999999996 C 268.48 291.53999999999996 272.9 289.05999999999995 275.09999999999997 284.09999999999997 L 275.09999999999997 247.02999999999997 L 283.80999999999995 247.02999999999997 L 283.80999999999995 297.98999999999995 L 275.5199999999999 297.98999999999995 L 275.3299999999999 292.94999999999993 Z" stroke-linecap="round" />
</g>
		<g transform="matrix(1 0 0 1 69.05 30.59)"  >
<path style="stroke: none; stroke-width: 1; stroke-dasharray: none; stroke-linecap: butt; stroke-dashoffset: 0; stroke-linejoin: miter; stroke-miterlimit: 4; fill: rgb(255,255,255); fill-rule: nonzero; opacity: 1;" vector-effect="non-scaling-stroke"  transform=" translate(-318.63, -262.28)" d="M 340.2 273.07 C 340.2 280.86 338.40999999999997 287.11 334.83 291.84 C 331.25 296.57 326.45 298.92999999999995 320.41999999999996 298.92999999999995 C 313.97999999999996 298.92999999999995 308.99999999999994 296.65 305.48999999999995 292.09999999999997 L 305.06999999999994 297.98999999999995 L 297.05999999999995 297.98999999999995 L 297.05999999999995 225.63999999999996 L 305.7699999999999 225.63999999999996 L 305.7699999999999 252.62999999999997 C 309.2899999999999 248.26999999999995 314.13999999999993 246.07999999999996 320.31999999999994 246.07999999999996 C 326.49999999999994 246.07999999999996 331.36999999999995 248.41999999999996 334.8999999999999 253.09999999999997 C 338.4299999999999 257.78 340.19999999999993 264.17999999999995 340.19999999999993 272.31999999999994 L 340.19999999999993 273.06999999999994 Z M 331.49 272.08 C 331.49 266.15 330.34000000000003 261.56 328.05 258.33 C 325.76 255.1 322.46000000000004 253.48 318.16 253.48 C 312.41 253.48 308.28000000000003 256.15 305.77000000000004 261.49 L 305.77000000000004 283.53000000000003 C 308.44000000000005 288.87 312.6 291.54 318.25000000000006 291.54 C 322.43000000000006 291.54 325.68000000000006 289.92 328.00000000000006 286.69 C 330.32000000000005 283.46 331.49000000000007 278.59 331.49000000000007 272.09 Z" stroke-linecap="round" />
</g>
		<g transform="matrix(1 0 0 1 121.01 40.81)"  >
<path style="stroke: none; stroke-width: 1; stroke-dasharray: none; stroke-linecap: butt; stroke-dashoffset: 0; stroke-linejoin: miter; stroke-miterlimit: 4; fill: rgb(255,255,255); fill-rule: nonzero; opacity: 1;" vector-effect="non-scaling-stroke"  transform=" translate(-370.59, -272.51)" d="M 372.33 298.93 C 365.41999999999996 298.93 359.8 296.66 355.46999999999997 292.12 C 351.14 287.58 348.96999999999997 281.51 348.96999999999997 273.92 L 348.96999999999997 272.32 C 348.96999999999997 267.26 349.94 262.75 351.86999999999995 258.78 C 353.79999999999995 254.80999999999997 356.49999999999994 251.69999999999996 359.96999999999997 249.44999999999996 C 363.44 247.20999999999995 367.2 246.07999999999996 371.24999999999994 246.07999999999996 C 377.87999999999994 246.07999999999996 383.0299999999999 248.25999999999996 386.69999999999993 252.62999999999997 C 390.36999999999995 256.98999999999995 392.2099999999999 263.23999999999995 392.2099999999999 271.38 L 392.2099999999999 275.01 L 357.67999999999995 275.01 C 357.80999999999995 280.03 359.2699999999999 284.09 362.0799999999999 287.19 C 364.88999999999993 290.28 368.4599999999999 291.83 372.79999999999995 291.83 C 375.87999999999994 291.83 378.47999999999996 291.2 380.61999999999995 289.95 C 382.74999999999994 288.69 384.61999999999995 287.03 386.22999999999996 284.96 L 391.54999999999995 289.10999999999996 C 387.28 295.66999999999996 380.86999999999995 298.94999999999993 372.3299999999999 298.94999999999993 Z M 371.24 253.24 C 367.72 253.24 364.77 254.52 362.38 257.08 C 359.99 259.64 358.52 263.22999999999996 357.95 267.84 L 383.48 267.84 L 383.48 267.17999999999995 C 383.23 262.74999999999994 382.04 259.31999999999994 379.90000000000003 256.88999999999993 C 377.76000000000005 254.45999999999992 374.88000000000005 253.23999999999992 371.23 253.23999999999992 Z" stroke-linecap="round" />
</g>
		<g transform="matrix(1 0 0 1 201.48 32)"  >
<path style="stroke: none; stroke-width: 1; stroke-dasharray: none; stroke-linecap: butt; stroke-dashoffset: 0; stroke-linejoin: miter; stroke-miterlimit: 4; fill: rgb(255,255,255); fill-rule: nonzero; opacity: 1;" vector-effect="non-scaling-stroke"  transform=" translate(-451.06, -263.7)" d="M 465.4 280.04 L 436.66999999999996 280.04 L 430.21999999999997 297.99 L 420.89 297.99 L 447.08 229.41000000000003 L 454.99 229.41000000000003 L 481.23 297.99 L 471.95000000000005 297.99 L 465.40000000000003 280.04 Z M 439.4 272.64 L 462.71999999999997 272.64 L 451.03999999999996 240.56 L 439.40999999999997 272.64 Z" stroke-linecap="round" />
</g>
		<g transform="matrix(1 0 0 1 246.06 32)"  >
<path style="stroke: none; stroke-width: 1; stroke-dasharray: none; stroke-linecap: butt; stroke-dashoffset: 0; stroke-linejoin: miter; stroke-miterlimit: 4; fill: rgb(255,255,255); fill-rule: nonzero; opacity: 1;" vector-effect="non-scaling-stroke"  transform=" translate(-495.64, -263.7)" d="M 500.16 297.99 L 491.12 297.99 L 491.12 229.41000000000003 L 500.16 229.41000000000003 L 500.16 297.99 Z" stroke-linecap="round" />
</g>
		<g transform="matrix(1 0 0 1 -183.34 -0.02)"  >
<path style="stroke: none; stroke-width: 1; stroke-dasharray: none; stroke-linecap: butt; stroke-dashoffset: 0; stroke-linejoin: miter; stroke-miterlimit: 4; fill: rgb(255,255,255); fill-rule: nonzero; opacity: 1;" vector-effect="non-scaling-stroke"  transform=" translate(-66.23, -231.68)" d="M 123.69 164.45 L 123.69 226.37 L 60.919999999999995 226.37 L 60.919999999999995 289.14 L -1 289.14 L -1 298.91999999999996 L 133.47 298.91999999999996 L 133.47 164.44999999999996 L 123.69 164.44999999999996 Z M 65.81 289.14 L 65.81 231.26 L 123.69 231.26 L 123.69 289.14 L 65.81 289.14 Z" stroke-linecap="round" />
</g>
</g>
</g>
<g transform="matrix(NaN NaN NaN NaN 0 0)"  >
<g style=""   >
</g>
</g>
<g transform="matrix(NaN NaN NaN NaN 0 0)"  >
<g style=""   >
</g>
</g>
<g transform="matrix(NaN NaN NaN NaN 0 0)"  >
<g style=""   >
</g>
</g>
</svg>