<?xml version="1.0" encoding="UTF-8" standalone="no" ?>
<!DOCTYPE svg PUBLIC "-//W3C//DTD SVG 1.1//EN" "http://www.w3.org/Graphics/SVG/1.1/DTD/svg11.dtd">
<svg xmlns="http://www.w3.org/2000/svg" xmlns:xlink="http://www.w3.org/1999/xlink" version="1.1" width="1080" height="480" viewBox="0 0 1080 480" xml:space="preserve">
<desc>Created with Fabric.js 5.2.4</desc>
<defs>
</defs>
<g transform="matrix(1 0 0 1 540 240)" id="9c34831c-3e6f-4493-988c-502e26672929"  >
<rect style="stroke: none; stroke-width: 1; stroke-dasharray: none; stroke-linecap: butt; stroke-dashoffset: 0; stroke-linejoin: miter; stroke-miterlimit: 4; fill: rgb(255,255,255); fill-rule: nonzero; opacity: 1; visibility: hidden;" vector-effect="non-scaling-stroke"  x="-540" y="-240" rx="0" ry="0" width="1080" height="480" />
</g>
<g transform="matrix(Infinity NaN NaN Infinity 0 0)" id="9584d995-00ef-4166-8544-2c289fc3ba33"  >
</g>
<g transform="matrix(1.51 0 0 1.51 540 240)"  >
<g style="" vector-effect="non-scaling-stroke"   >
		<g transform="matrix(1.33 0 0 1.33 -203.57 0)" clip-path="url(#CLIPPATH_4)"  >
<clipPath id="CLIPPATH_4" >
	<path transform="matrix(1 0 0 1 0 0.14) translate(-283.65, -436)" id="732" d="M 197.023438 349 L 370.273438 349 L 370.273438 523 L 197.023438 523 Z M 197.023438 349" stroke-linecap="round" />
</clipPath>
<path style="stroke: none; stroke-width: 1; stroke-dasharray: none; stroke-linecap: butt; stroke-dashoffset: 0; stroke-linejoin: miter; stroke-miterlimit: 4; fill: rgb(255,255,255); fill-rule: nonzero; opacity: 1;" vector-effect="non-scaling-stroke"  transform=" translate(-283.65, -435.86)" d="M 345.523438 349.28125 C 359.171875 349.28125 370.273438 360.375 370.273438 374.019531 L 370.273438 497.707031 C 370.273438 511.351562 359.171875 522.445312 345.523438 522.445312 L 221.773438 522.445312 C 208.121094 522.445312 197.023438 511.351562 197.023438 497.707031 L 197.023438 374.019531 C 197.023438 360.375 208.121094 349.28125 221.773438 349.28125 Z M 237.667969 409.195312 C 222.699219 409.195312 210.558594 421.292969 210.558594 436.25 C 210.558594 451.207031 222.699219 463.308594 237.667969 463.308594 C 247.257812 463.308594 255.648438 458.359375 260.484375 450.859375 L 260.675781 450.589844 L 260.523438 450.359375 C 258.007812 446.261719 256.578125 441.429688 256.578125 436.25 C 256.578125 430.992188 258.085938 426.085938 260.675781 421.910156 C 255.882812 414.257812 247.375 409.195312 237.667969 409.195312 Z M 283.648438 409.195312 C 274.058594 409.195312 265.664062 414.140625 260.832031 421.640625 L 260.636719 421.910156 L 260.792969 422.140625 C 263.304688 426.238281 264.738281 431.070312 264.738281 436.25 C 264.738281 441.507812 263.230469 446.414062 260.636719 450.589844 C 265.433594 458.203125 273.941406 463.308594 283.648438 463.308594 C 293.238281 463.308594 301.628906 458.359375 306.464844 450.859375 L 306.65625 450.589844 L 306.503906 450.359375 C 303.988281 446.261719 302.558594 441.429688 302.558594 436.25 C 302.558594 430.992188 304.066406 426.085938 306.65625 421.910156 C 301.863281 414.296875 293.355469 409.195312 283.648438 409.195312 Z M 329.628906 409.195312 C 320.039062 409.195312 311.644531 414.140625 306.8125 421.640625 L 306.617188 421.910156 L 306.773438 422.140625 C 309.285156 426.238281 310.71875 431.070312 310.71875 436.25 C 310.71875 441.507812 309.210938 446.414062 306.617188 450.589844 C 311.414062 458.242188 319.921875 463.308594 329.628906 463.308594 C 344.59375 463.308594 356.738281 451.207031 356.738281 436.25 C 356.738281 421.292969 344.59375 409.195312 329.628906 409.195312 Z M 329.628906 409.195312" stroke-linecap="round" />
</g>
		<g transform="matrix(1.33 0 0 1.33 2.5 2.28)"  >
<path style="stroke: none; stroke-width: 1; stroke-dasharray: none; stroke-linecap: butt; stroke-dashoffset: 0; stroke-linejoin: miter; stroke-miterlimit: 4; fill: rgb(255,255,255); fill-rule: nonzero; opacity: 1;" vector-effect="non-scaling-stroke"  transform=" translate(-18.6, 22.16)" d="M 34.765625 -13.890625 C 34.628906 -11.648438 34.148438 -9.632812 33.328125 -7.84375 C 32.503906 -6.0625 31.398438 -4.539062 30.015625 -3.28125 C 28.640625 -2.03125 27 -1.0625 25.09375 -0.375 C 23.1875 0.300781 21.070312 0.640625 18.75 0.640625 C 16.132812 0.640625 13.8125 0.160156 11.78125 -0.796875 C 9.75 -1.765625 8.039062 -3.113281 6.65625 -4.84375 C 5.28125 -6.582031 4.226562 -8.671875 3.5 -11.109375 C 2.769531 -13.546875 2.40625 -16.226562 2.40625 -19.15625 L 2.40625 -25.125 C 2.40625 -28.0625 2.789062 -30.75 3.5625 -33.1875 C 4.332031 -35.625 5.425781 -37.710938 6.84375 -39.453125 C 8.269531 -41.203125 9.992188 -42.554688 12.015625 -43.515625 C 14.035156 -44.484375 16.300781 -44.96875 18.8125 -44.96875 C 21.25 -44.96875 23.414062 -44.625 25.3125 -43.9375 C 27.21875 -43.25 28.835938 -42.265625 30.171875 -40.984375 C 31.515625 -39.703125 32.570312 -38.140625 33.34375 -36.296875 C 34.113281 -34.453125 34.597656 -32.367188 34.796875 -30.046875 L 26.28125 -30.046875 C 26.195312 -31.367188 26 -32.523438 25.6875 -33.515625 C 25.375 -34.515625 24.914062 -35.34375 24.3125 -36 C 23.71875 -36.664062 22.96875 -37.164062 22.0625 -37.5 C 21.15625 -37.832031 20.070312 -38 18.8125 -38 C 17.5 -38 16.351562 -37.710938 15.375 -37.140625 C 14.40625 -36.578125 13.597656 -35.742188 12.953125 -34.640625 C 12.316406 -33.546875 11.84375 -32.203125 11.53125 -30.609375 C 11.226562 -29.015625 11.078125 -27.207031 11.078125 -25.1875 L 11.078125 -19.15625 C 11.078125 -14.789062 11.691406 -11.5625 12.921875 -9.46875 C 14.148438 -7.375 16.09375 -6.328125 18.75 -6.328125 C 20.988281 -6.328125 22.753906 -6.921875 24.046875 -8.109375 C 25.347656 -9.296875 26.070312 -11.222656 26.21875 -13.890625 Z M 34.765625 -13.890625" stroke-linecap="round" />
</g>
		<g transform="matrix(1.33 0 0 1.33 52.94 10.29)"  >
<path style="stroke: none; stroke-width: 1; stroke-dasharray: none; stroke-linecap: butt; stroke-dashoffset: 0; stroke-linejoin: miter; stroke-miterlimit: 4; fill: rgb(255,255,255); fill-rule: nonzero; opacity: 1;" vector-effect="non-scaling-stroke"  transform=" translate(-19.02, 16.16)" d="M 25.296875 -4.625 C 24.179688 -2.976562 22.835938 -1.6875 21.265625 -0.75 C 19.691406 0.175781 17.972656 0.640625 16.109375 0.640625 C 14.398438 0.640625 12.832031 0.378906 11.40625 -0.140625 C 9.988281 -0.671875 8.769531 -1.507812 7.75 -2.65625 C 6.738281 -3.8125 5.953125 -5.273438 5.390625 -7.046875 C 4.835938 -8.828125 4.5625 -10.960938 4.5625 -13.453125 L 4.5625 -32.953125 L 13.03125 -32.953125 L 13.03125 -13.390625 C 13.03125 -12.054688 13.125 -10.929688 13.3125 -10.015625 C 13.507812 -9.097656 13.820312 -8.359375 14.25 -7.796875 C 14.675781 -7.242188 15.234375 -6.84375 15.921875 -6.59375 C 16.609375 -6.351562 17.453125 -6.234375 18.453125 -6.234375 C 20.140625 -6.234375 21.507812 -6.550781 22.5625 -7.1875 C 23.613281 -7.832031 24.414062 -8.710938 24.96875 -9.828125 L 24.96875 -32.953125 L 33.46875 -32.953125 L 33.46875 0 L 25.796875 0 Z M 25.296875 -4.625" stroke-linecap="round" />
</g>
		<g transform="matrix(1.33 0 0 1.33 103.11 1.06)"  >
<path style="stroke: none; stroke-width: 1; stroke-dasharray: none; stroke-linecap: butt; stroke-dashoffset: 0; stroke-linejoin: miter; stroke-miterlimit: 4; fill: rgb(255,255,255); fill-rule: nonzero; opacity: 1;" vector-effect="non-scaling-stroke"  transform=" translate(-19.23, 23.08)" d="M 33.984375 -16.140625 C 33.984375 -13.679688 33.710938 -11.425781 33.171875 -9.375 C 32.640625 -7.320312 31.832031 -5.554688 30.75 -4.078125 C 29.675781 -2.597656 28.335938 -1.445312 26.734375 -0.625 C 25.128906 0.195312 23.257812 0.609375 21.125 0.609375 C 19.195312 0.609375 17.523438 0.25 16.109375 -0.46875 C 14.703125 -1.1875 13.492188 -2.195312 12.484375 -3.5 L 12.09375 0 L 4.46875 0 L 4.46875 -46.765625 L 12.9375 -46.765625 L 12.9375 -29.96875 C 13.914062 -31.101562 15.066406 -31.984375 16.390625 -32.609375 C 17.722656 -33.242188 19.285156 -33.5625 21.078125 -33.5625 C 23.222656 -33.5625 25.101562 -33.144531 26.71875 -32.3125 C 28.332031 -31.476562 29.675781 -30.316406 30.75 -28.828125 C 31.832031 -27.347656 32.640625 -25.578125 33.171875 -23.515625 C 33.710938 -21.460938 33.984375 -19.21875 33.984375 -16.78125 Z M 25.515625 -16.78125 C 25.515625 -18.113281 25.410156 -19.378906 25.203125 -20.578125 C 25.003906 -21.773438 24.65625 -22.828125 24.15625 -23.734375 C 23.664062 -24.640625 22.992188 -25.351562 22.140625 -25.875 C 21.285156 -26.40625 20.21875 -26.671875 18.9375 -26.671875 C 17.394531 -26.671875 16.140625 -26.34375 15.171875 -25.6875 C 14.210938 -25.039062 13.46875 -24.148438 12.9375 -23.015625 L 12.9375 -9.890625 C 13.46875 -8.753906 14.210938 -7.859375 15.171875 -7.203125 C 16.140625 -6.554688 17.414062 -6.234375 19 -6.234375 C 20.28125 -6.234375 21.335938 -6.484375 22.171875 -6.984375 C 23.003906 -7.484375 23.664062 -8.175781 24.15625 -9.0625 C 24.65625 -9.945312 25.003906 -10.988281 25.203125 -12.1875 C 25.410156 -13.394531 25.515625 -14.710938 25.515625 -16.140625 Z M 25.515625 -16.78125" stroke-linecap="round" />
</g>
		<g transform="matrix(1.33 0 0 1.33 152.54 9.86)"  >
<path style="stroke: none; stroke-width: 1; stroke-dasharray: none; stroke-linecap: butt; stroke-dashoffset: 0; stroke-linejoin: miter; stroke-miterlimit: 4; fill: rgb(255,255,255); fill-rule: nonzero; opacity: 1;" vector-effect="non-scaling-stroke"  transform=" translate(-18.88, 16.48)" d="M 20.28125 0.609375 C 17.738281 0.609375 15.429688 0.191406 13.359375 -0.640625 C 11.296875 -1.472656 9.519531 -2.601562 8.03125 -4.03125 C 6.550781 -5.46875 5.410156 -7.15625 4.609375 -9.09375 C 3.804688 -11.03125 3.40625 -13.101562 3.40625 -15.3125 L 3.40625 -16.53125 C 3.40625 -19.050781 3.800781 -21.347656 4.59375 -23.421875 C 5.382812 -25.503906 6.488281 -27.296875 7.90625 -28.796875 C 9.332031 -30.304688 11.019531 -31.476562 12.96875 -32.3125 C 14.914062 -33.144531 17.035156 -33.5625 19.328125 -33.5625 C 21.703125 -33.5625 23.816406 -33.164062 25.671875 -32.375 C 27.535156 -31.59375 29.113281 -30.492188 30.40625 -29.078125 C 31.695312 -27.660156 32.675781 -25.953125 33.34375 -23.953125 C 34.007812 -21.953125 34.34375 -19.742188 34.34375 -17.328125 L 34.34375 -13.734375 L 12 -13.734375 C 12.15625 -12.617188 12.484375 -11.597656 12.984375 -10.671875 C 13.484375 -9.742188 14.117188 -8.945312 14.890625 -8.28125 C 15.660156 -7.613281 16.539062 -7.097656 17.53125 -6.734375 C 18.53125 -6.367188 19.617188 -6.1875 20.796875 -6.1875 C 21.628906 -6.1875 22.457031 -6.265625 23.28125 -6.421875 C 24.101562 -6.585938 24.890625 -6.828125 25.640625 -7.140625 C 26.390625 -7.453125 27.085938 -7.84375 27.734375 -8.3125 C 28.390625 -8.78125 28.957031 -9.328125 29.4375 -9.953125 L 33.671875 -5.390625 C 33.148438 -4.640625 32.46875 -3.898438 31.625 -3.171875 C 30.78125 -2.453125 29.785156 -1.8125 28.640625 -1.25 C 27.492188 -0.695312 26.21875 -0.25 24.8125 0.09375 C 23.414062 0.4375 21.90625 0.609375 20.28125 0.609375 Z M 19.28125 -26.703125 C 18.320312 -26.703125 17.445312 -26.535156 16.65625 -26.203125 C 15.863281 -25.867188 15.164062 -25.382812 14.5625 -24.75 C 13.96875 -24.125 13.46875 -23.375 13.0625 -22.5 C 12.65625 -21.625 12.351562 -20.648438 12.15625 -19.578125 L 26.03125 -19.578125 L 26.03125 -20.25 C 25.988281 -21.144531 25.816406 -21.988281 25.515625 -22.78125 C 25.210938 -23.570312 24.773438 -24.253906 24.203125 -24.828125 C 23.640625 -25.410156 22.945312 -25.867188 22.125 -26.203125 C 21.300781 -26.535156 20.351562 -26.703125 19.28125 -26.703125 Z M 19.28125 -26.703125" stroke-linecap="round" />
</g>
		<g transform="matrix(1.33 0 0 1.33 252.65 2.28)"  >
<path style="stroke: none; stroke-width: 1; stroke-dasharray: none; stroke-linecap: butt; stroke-dashoffset: 0; stroke-linejoin: miter; stroke-miterlimit: 4; fill: rgb(255,255,255); fill-rule: nonzero; opacity: 1;" vector-effect="non-scaling-stroke"  transform=" translate(-19.13, 22.16)" d="M 25.796875 -9.25 L 12.484375 -9.25 L 9.859375 0 L 0.859375 0 L 15.375 -44.328125 L 23.140625 -44.328125 L 37.390625 0 L 28.375 0 Z M 14.578125 -16.53125 L 23.78125 -16.53125 L 19.25 -32.859375 Z M 14.578125 -16.53125" stroke-linecap="round" />
</g>
		<g transform="matrix(1.33 0 0 1.33 301.97 2.28)"  >
<path style="stroke: none; stroke-width: 1; stroke-dasharray: none; stroke-linecap: butt; stroke-dashoffset: 0; stroke-linejoin: miter; stroke-miterlimit: 4; fill: rgb(255,255,255); fill-rule: nonzero; opacity: 1;" vector-effect="non-scaling-stroke"  transform=" translate(-18.7, 22.16)" d="M 5.875 -44.328125 L 31.515625 -44.328125 L 31.515625 -37.421875 L 22.859375 -37.421875 L 22.859375 -6.875 L 31.515625 -6.875 L 31.515625 0 L 5.875 0 L 5.875 -6.875 L 14.3125 -6.875 L 14.3125 -37.421875 L 5.875 -37.421875 Z M 5.875 -44.328125" stroke-linecap="round" />
</g>
</g>
</g>
<g transform="matrix(NaN NaN NaN NaN 0 0)"  >
<g style=""   >
</g>
</g>
</svg>