<?xml version="1.0" encoding="UTF-8"?><svg id="Layer_1" xmlns="http://www.w3.org/2000/svg" viewBox="0 0 200 150"><defs><style>.cls-1{fill:#231f20;}</style></defs><polygon class="cls-1" points="60.02 30.18 43.76 73.16 52.06 73.16 63.48 42.13 82.99 94.99 91.51 94.99 66.98 30.18 60.02 30.18"/><polygon class="cls-1" points="152.76 29.84 152.76 38.56 152.33 66.24 152.33 94.65 160.43 94.65 160.43 29.84 152.76 29.84"/><polygon class="cls-1" points="129.09 82.23 107.2 29.84 97.87 29.84 97.87 73.16 105.97 73.16 105.97 66.05 105.66 46.15 126.14 94.65 132.08 94.65 142.36 70.3 134.1 70.3 129.09 82.23"/><path class="cls-1" d="m33.1,117.84h-5.58l-1.25,3.49h-1.81l5.09-13.33h1.54l5.1,13.33h-1.8l-1.27-3.49Zm-5.05-1.44h4.53l-2.27-6.23-2.26,6.23Z"/><path class="cls-1" d="m46.09,116.49c0,1.51-.35,2.73-1.04,3.65-.7.92-1.63,1.38-2.8,1.38-1.25,0-2.22-.44-2.9-1.33l-.08,1.14h-1.56v-14.06h1.69v5.24c.68-.85,1.63-1.27,2.83-1.27s2.15.45,2.83,1.36c.69.91,1.03,2.15,1.03,3.73v.15Zm-1.69-.19c0-1.15-.22-2.04-.67-2.67-.45-.63-1.09-.94-1.92-.94-1.12,0-1.92.52-2.41,1.56v4.28c.52,1.04,1.33,1.56,2.43,1.56.81,0,1.44-.31,1.89-.94.45-.63.68-1.57.68-2.84Z"/><path class="cls-1" d="m53.99,118.7c0-.46-.17-.81-.52-1.07-.35-.25-.95-.47-1.8-.65-.86-.18-1.54-.4-2.04-.66s-.88-.56-1.12-.92-.36-.77-.36-1.26c0-.81.34-1.5,1.03-2.06.69-.56,1.56-.84,2.63-.84,1.12,0,2.03.29,2.73.87.7.58,1.05,1.32,1.05,2.22h-1.7c0-.46-.2-.86-.59-1.2-.39-.34-.89-.5-1.49-.5s-1.1.13-1.45.4c-.35.27-.52.62-.52,1.05,0,.41.16.72.48.92s.91.41,1.75.59c.84.19,1.53.42,2.05.68s.91.58,1.17.95.38.82.38,1.35c0,.88-.35,1.59-1.06,2.13-.71.53-1.63.8-2.76.8-.79,0-1.49-.14-2.1-.42-.61-.28-1.09-.67-1.43-1.18-.35-.5-.52-1.05-.52-1.63h1.69c.03.57.26,1.02.68,1.35.42.33.98.5,1.68.5.64,0,1.15-.13,1.54-.39.39-.26.58-.61.58-1.04Z"/><path class="cls-1" d="m60.18,109.03v2.4h1.85v1.31h-1.85v6.15c0,.4.08.7.25.89s.45.3.84.3c.2,0,.46-.04.81-.11v1.37c-.45.12-.88.18-1.3.18-.76,0-1.33-.23-1.71-.69-.38-.46-.58-1.11-.58-1.95v-6.14h-1.8v-1.31h1.8v-2.4h1.69Z"/><path class="cls-1" d="m68.8,112.95c-.26-.04-.53-.06-.83-.06-1.11,0-1.86.47-2.26,1.42v7.03h-1.69v-9.9h1.65l.03,1.14c.55-.88,1.34-1.33,2.36-1.33.33,0,.58.04.75.13v1.57Z"/><path class="cls-1" d="m76.1,121.33c-.1-.2-.18-.54-.24-1.04-.79.82-1.73,1.23-2.82,1.23-.98,0-1.78-.28-2.4-.83-.63-.55-.94-1.25-.94-2.1,0-1.03.39-1.83,1.18-2.4.78-.57,1.89-.86,3.31-.86h1.65v-.78c0-.59-.18-1.06-.53-1.41-.35-.35-.88-.53-1.57-.53-.6,0-1.11.15-1.52.46-.41.31-.61.67-.61,1.11h-1.7c0-.49.18-.97.53-1.43.35-.46.83-.83,1.43-1.09s1.26-.4,1.98-.4c1.14,0,2.03.29,2.68.86s.98,1.36,1.01,2.36v4.56c0,.91.12,1.63.35,2.17v.15h-1.78Zm-2.81-1.29c.53,0,1.03-.14,1.51-.41s.82-.63,1.03-1.07v-2.03h-1.33c-2.07,0-3.11.61-3.11,1.82,0,.53.18.95.53,1.24.35.3.81.45,1.36.45Z"/><path class="cls-1" d="m84.15,120.13c.6,0,1.13-.18,1.58-.55.45-.37.7-.82.75-1.37h1.6c-.03.57-.23,1.11-.59,1.62s-.84.92-1.44,1.23-1.24.46-1.91.46c-1.35,0-2.42-.45-3.22-1.35-.8-.9-1.19-2.13-1.19-3.69v-.28c0-.96.18-1.82.53-2.57s.86-1.33,1.52-1.75,1.44-.62,2.35-.62c1.11,0,2.03.33,2.77,1,.74.67,1.13,1.53,1.18,2.59h-1.6c-.05-.64-.29-1.17-.73-1.58s-.97-.62-1.62-.62c-.86,0-1.53.31-2,.93-.47.62-.71,1.51-.71,2.69v.32c0,1.14.23,2.02.7,2.64.47.62,1.14.92,2.01.92Z"/><path class="cls-1" d="m92.29,109.03v2.4h1.85v1.31h-1.85v6.15c0,.4.08.7.25.89s.45.3.84.3c.2,0,.46-.04.81-.11v1.37c-.45.12-.88.18-1.3.18-.76,0-1.33-.23-1.71-.69-.38-.46-.58-1.11-.58-1.95v-6.14h-1.8v-1.31h1.8v-2.4h1.69Z"/><path class="cls-1" d="m103.29,108l4.36,10.87,4.36-10.87h2.28v13.33h-1.76v-5.19l.16-5.6-4.38,10.79h-1.35l-4.37-10.76.17,5.57v5.19h-1.76v-13.33h2.27Z"/><path class="cls-1" d="m123.24,121.33c-.1-.2-.18-.54-.24-1.04-.79.82-1.73,1.23-2.82,1.23-.98,0-1.78-.28-2.4-.83-.63-.55-.94-1.25-.94-2.1,0-1.03.39-1.83,1.18-2.4.78-.57,1.89-.86,3.31-.86h1.65v-.78c0-.59-.18-1.06-.53-1.41-.35-.35-.88-.53-1.57-.53-.6,0-1.11.15-1.52.46-.41.31-.61.67-.61,1.11h-1.7c0-.49.18-.97.53-1.43.35-.46.83-.83,1.43-1.09s1.26-.4,1.98-.4c1.14,0,2.03.29,2.68.86s.98,1.36,1.01,2.36v4.56c0,.91.12,1.63.35,2.17v.15h-1.78Zm-2.81-1.29c.53,0,1.03-.14,1.51-.41s.82-.63,1.03-1.07v-2.03h-1.33c-2.07,0-3.11.61-3.11,1.82,0,.53.18.95.53,1.24.35.3.81.45,1.36.45Z"/><path class="cls-1" d="m131.29,120.13c.6,0,1.13-.18,1.58-.55.45-.37.7-.82.75-1.37h1.6c-.03.57-.23,1.11-.59,1.62s-.84.92-1.44,1.23-1.24.46-1.91.46c-1.35,0-2.42-.45-3.22-1.35-.8-.9-1.19-2.13-1.19-3.69v-.28c0-.96.18-1.82.53-2.57s.86-1.33,1.52-1.75,1.44-.62,2.35-.62c1.11,0,2.03.33,2.77,1,.74.67,1.13,1.53,1.18,2.59h-1.6c-.05-.64-.29-1.17-.73-1.58s-.97-.62-1.62-.62c-.86,0-1.53.31-2,.93-.47.62-.71,1.51-.71,2.69v.32c0,1.14.23,2.02.7,2.64.47.62,1.14.92,2.01.92Z"/><path class="cls-1" d="m138.82,112.63c.75-.92,1.73-1.38,2.93-1.38,2.09,0,3.15,1.18,3.17,3.54v6.54h-1.69v-6.55c0-.71-.17-1.24-.49-1.58-.32-.34-.82-.51-1.5-.51-.55,0-1.03.15-1.45.44-.42.29-.74.68-.97,1.15v7.06h-1.69v-14.06h1.69v5.35Z"/><path class="cls-1" d="m149.29,121.33h-1.69v-9.9h1.69v9.9Z"/><path class="cls-1" d="m153.6,111.43l.05,1.24c.76-.95,1.75-1.43,2.97-1.43,2.09,0,3.15,1.18,3.17,3.54v6.54h-1.69v-6.55c0-.71-.17-1.24-.49-1.58-.32-.34-.82-.51-1.5-.51-.55,0-1.03.15-1.45.44-.42.29-.74.68-.97,1.15v7.06h-1.69v-9.9h1.6Z"/><path class="cls-1" d="m166.45,121.51c-1.34,0-2.43-.44-3.28-1.32-.84-.88-1.26-2.06-1.26-3.54v-.31c0-.98.19-1.86.56-2.63.38-.77.9-1.38,1.57-1.81.67-.44,1.4-.65,2.19-.65,1.29,0,2.29.42,3,1.27.71.85,1.07,2.06,1.07,3.64v.7h-6.71c.02.98.31,1.76.86,2.37.55.6,1.24.9,2.08.9.6,0,1.1-.12,1.52-.37.42-.24.78-.57,1.09-.97l1.03.81c-.83,1.28-2.08,1.91-3.73,1.91Zm-.21-8.88c-.68,0-1.26.25-1.72.75s-.75,1.19-.86,2.09h4.96v-.13c-.05-.86-.28-1.53-.7-2-.42-.47-.98-.71-1.68-.71Z"/><path class="cls-1" d="m178.04,118.7c0-.46-.17-.81-.52-1.07-.35-.25-.95-.47-1.8-.65-.86-.18-1.54-.4-2.04-.66s-.88-.56-1.12-.92-.36-.77-.36-1.26c0-.81.34-1.5,1.03-2.06.69-.56,1.56-.84,2.63-.84,1.12,0,2.03.29,2.73.87.7.58,1.05,1.32,1.05,2.22h-1.7c0-.46-.2-.86-.59-1.2-.39-.34-.89-.5-1.49-.5s-1.1.13-1.45.4c-.35.27-.52.62-.52,1.05,0,.41.16.72.48.92s.91.41,1.75.59c.84.19,1.53.42,2.05.68s.91.58,1.17.95.38.82.38,1.35c0,.88-.35,1.59-1.06,2.13-.71.53-1.63.8-2.76.8-.79,0-1.49-.14-2.1-.42-.61-.28-1.09-.67-1.43-1.18-.35-.5-.52-1.05-.52-1.63h1.69c.03.57.26,1.02.68,1.35.42.33.98.5,1.68.5.64,0,1.15-.13,1.54-.39.39-.26.58-.61.58-1.04Z"/><rect class="cls-1" x="147.6" y="108.69" width="1.69" height="1.69"/></svg>
