<?xml version="1.0" encoding="UTF-8"?><svg id="Layer_1" xmlns="http://www.w3.org/2000/svg" viewBox="0 0 350 100"><defs><style>.cls-1{fill:#fff;}</style></defs><path class="cls-1" d="m67.05,56.92c0,2.77-.64,5-1.91,6.69-1.28,1.68-2.99,2.53-5.13,2.53-2.29,0-4.07-.81-5.32-2.43l-.15,2.1h-2.85v-25.77h3.1v9.61c1.25-1.55,2.98-2.33,5.18-2.33s3.93.83,5.19,2.5c1.26,1.67,1.89,3.95,1.89,6.84v.27Zm-3.1-.35c0-2.11-.41-3.75-1.23-4.9-.82-1.15-1.99-1.73-3.52-1.73-2.05,0-3.52.95-4.41,2.85v7.85c.95,1.9,2.43,2.85,4.45,2.85,1.49,0,2.65-.58,3.47-1.73.83-1.15,1.24-2.89,1.24-5.2Z"/><path class="cls-1" d="m81.53,60.98c0-.84-.32-1.49-.95-1.95-.63-.46-1.73-.86-3.31-1.2-1.57-.34-2.82-.74-3.74-1.21s-1.6-1.03-2.05-1.68-.66-1.42-.66-2.32c0-1.49.63-2.75,1.89-3.77,1.26-1.03,2.87-1.54,4.82-1.54,2.06,0,3.73.53,5.01,1.59,1.28,1.06,1.92,2.42,1.92,4.08h-3.12c0-.85-.36-1.58-1.08-2.2-.72-.61-1.63-.92-2.73-.92s-2.01.25-2.65.74c-.64.49-.96,1.14-.96,1.93,0,.75.3,1.31.89,1.69s1.66.74,3.21,1.09c1.55.35,2.8.76,3.77,1.24s1.67,1.06,2.14,1.74.7,1.5.7,2.47c0,1.62-.65,2.92-1.95,3.9-1.3.98-2.98,1.47-5.05,1.47-1.45,0-2.74-.26-3.86-.77-1.12-.51-1.99-1.23-2.63-2.16-.63-.92-.95-1.92-.95-2.99h3.1c.06,1.04.47,1.87,1.25,2.47.78.61,1.8.91,3.08.91,1.17,0,2.12-.24,2.83-.71.71-.48,1.07-1.11,1.07-1.9Z"/><path class="cls-1" d="m92.89,43.24v4.4h3.39v2.4h-3.39v11.27c0,.73.15,1.27.45,1.64s.82.55,1.54.55c.36,0,.85-.07,1.48-.2v2.5c-.82.22-1.61.33-2.38.33-1.39,0-2.43-.42-3.14-1.26-.7-.84-1.06-2.03-1.06-3.57v-11.26h-3.31v-2.4h3.31v-4.4h3.1Z"/><path class="cls-1" d="m108.68,50.42c-.47-.08-.98-.12-1.53-.12-2.04,0-3.42.87-4.14,2.6v12.88h-3.1v-18.15h3.02l.05,2.1c1.02-1.62,2.46-2.43,4.33-2.43.6,0,1.06.08,1.38.24v2.89Z"/><path class="cls-1" d="m122.06,65.79c-.18-.36-.32-1-.44-1.91-1.44,1.5-3.17,2.25-5.17,2.25-1.79,0-3.26-.51-4.4-1.52-1.15-1.01-1.72-2.3-1.72-3.85,0-1.89.72-3.36,2.16-4.4,1.44-1.05,3.46-1.57,6.06-1.57h3.02v-1.43c0-1.08-.32-1.95-.97-2.59-.65-.64-1.61-.96-2.87-.96-1.11,0-2.04.28-2.79.84-.75.56-1.12,1.24-1.12,2.03h-3.12c0-.91.32-1.78.97-2.63.64-.84,1.51-1.51,2.62-2s2.31-.74,3.63-.74c2.09,0,3.73.52,4.91,1.57s1.8,2.49,1.85,4.32v8.35c0,1.67.21,2.99.64,3.98v.27h-3.25Zm-5.15-2.37c.97,0,1.9-.25,2.77-.75s1.5-1.16,1.9-1.96v-3.72h-2.43c-3.8,0-5.7,1.11-5.7,3.34,0,.97.32,1.73.97,2.28.65.55,1.48.82,2.5.82Z"/><path class="cls-1" d="m136.83,63.59c1.11,0,2.07-.34,2.9-1.01.83-.67,1.29-1.51,1.38-2.52h2.94c-.06,1.04-.42,2.03-1.07,2.97s-1.54,1.69-2.64,2.25-2.27.84-3.5.84c-2.47,0-4.44-.82-5.9-2.47-1.46-1.65-2.19-3.91-2.19-6.77v-.52c0-1.77.32-3.34.97-4.71s1.58-2.44,2.79-3.2,2.65-1.14,4.3-1.14c2.04,0,3.73.61,5.07,1.83,1.35,1.22,2.07,2.8,2.16,4.75h-2.94c-.09-1.17-.53-2.14-1.33-2.89s-1.79-1.13-2.96-1.13c-1.58,0-2.8.57-3.67,1.7-.87,1.14-1.3,2.78-1.3,4.92v.59c0,2.09.43,3.7,1.29,4.83.86,1.13,2.09,1.69,3.69,1.69Z"/><path class="cls-1" d="m151.74,43.24v4.4h3.39v2.4h-3.39v11.27c0,.73.15,1.27.45,1.64s.82.55,1.54.55c.36,0,.85-.07,1.48-.2v2.5c-.82.22-1.61.33-2.38.33-1.39,0-2.43-.42-3.14-1.26-.7-.84-1.06-2.03-1.06-3.57v-11.26h-3.31v-2.4h3.31v-4.4h3.1Z"/><path class="cls-1" d="m221.71,65.79c-.18-.36-.32-1-.44-1.91-1.44,1.5-3.17,2.25-5.17,2.25-1.79,0-3.26-.51-4.4-1.52-1.15-1.01-1.72-2.3-1.72-3.85,0-1.89.72-3.36,2.16-4.4,1.44-1.05,3.46-1.57,6.06-1.57h3.02v-1.43c0-1.08-.32-1.95-.97-2.59-.65-.64-1.61-.96-2.87-.96-1.11,0-2.04.28-2.79.84-.75.56-1.12,1.24-1.12,2.03h-3.12c0-.91.32-1.78.97-2.63.64-.84,1.51-1.51,2.62-2s2.31-.74,3.63-.74c2.09,0,3.73.52,4.91,1.57s1.8,2.49,1.85,4.32v8.35c0,1.67.21,2.99.64,3.98v.27h-3.25Zm-5.15-2.37c.97,0,1.9-.25,2.77-.75s1.5-1.16,1.9-1.96v-3.72h-2.43c-3.8,0-5.7,1.11-5.7,3.34,0,.97.32,1.73.97,2.28.65.55,1.48.82,2.5.82Z"/><path class="cls-1" d="m236.47,63.59c1.11,0,2.07-.34,2.9-1.01.83-.67,1.29-1.51,1.38-2.52h2.94c-.06,1.04-.42,2.03-1.07,2.97s-1.54,1.69-2.64,2.25-2.27.84-3.5.84c-2.47,0-4.44-.82-5.9-2.47-1.46-1.65-2.19-3.91-2.19-6.77v-.52c0-1.77.32-3.34.97-4.71s1.58-2.44,2.79-3.2,2.65-1.14,4.3-1.14c2.04,0,3.73.61,5.07,1.83,1.35,1.22,2.07,2.8,2.16,4.75h-2.94c-.09-1.17-.53-2.14-1.33-2.89s-1.79-1.13-2.96-1.13c-1.58,0-2.8.57-3.67,1.7-.87,1.14-1.3,2.78-1.3,4.92v.59c0,2.09.43,3.7,1.29,4.83.86,1.13,2.09,1.69,3.69,1.69Z"/><path class="cls-1" d="m250.28,49.84c1.38-1.69,3.17-2.53,5.37-2.53,3.84,0,5.77,2.16,5.8,6.49v12h-3.1v-12.01c-.01-1.31-.31-2.28-.9-2.9-.59-.63-1.5-.94-2.74-.94-1.01,0-1.89.27-2.65.8-.76.54-1.35,1.24-1.78,2.11v12.94h-3.1v-25.77h3.1v9.81Z"/><path class="cls-1" d="m269.47,65.79h-3.1v-18.15h3.1v18.15Z"/><path class="cls-1" d="m277.38,47.64l.1,2.28c1.39-1.74,3.2-2.62,5.44-2.62,3.84,0,5.77,2.16,5.8,6.49v12h-3.1v-12.01c-.01-1.31-.31-2.28-.9-2.9-.59-.63-1.5-.94-2.74-.94-1.01,0-1.89.27-2.65.8-.76.54-1.35,1.24-1.78,2.11v12.94h-3.1v-18.15h2.94Z"/><path class="cls-1" d="m300.93,66.13c-2.46,0-4.46-.81-6.01-2.42-1.54-1.62-2.32-3.78-2.32-6.48v-.57c0-1.8.34-3.41,1.03-4.82.69-1.41,1.65-2.52,2.89-3.32,1.24-.8,2.58-1.2,4.02-1.2,2.36,0,4.19.78,5.5,2.33,1.31,1.56,1.96,3.78,1.96,6.68v1.29h-12.3c.04,1.79.57,3.24,1.57,4.34,1,1.1,2.27,1.65,3.82,1.65,1.1,0,2.02-.22,2.78-.67.76-.45,1.43-1.04,2-1.78l1.9,1.48c-1.52,2.34-3.8,3.51-6.85,3.51Zm-.39-16.27c-1.25,0-2.3.46-3.15,1.37s-1.38,2.19-1.58,3.83h9.09v-.23c-.09-1.58-.52-2.8-1.28-3.67-.76-.87-1.79-1.3-3.09-1.3Z"/><path class="cls-1" d="m322.17,60.98c0-.84-.32-1.49-.95-1.95-.63-.46-1.73-.86-3.31-1.2-1.57-.34-2.82-.74-3.74-1.21s-1.6-1.03-2.05-1.68-.66-1.42-.66-2.32c0-1.49.63-2.75,1.89-3.77,1.26-1.03,2.87-1.54,4.82-1.54,2.06,0,3.73.53,5.01,1.59,1.28,1.06,1.92,2.42,1.92,4.08h-3.12c0-.85-.36-1.58-1.08-2.2-.72-.61-1.63-.92-2.73-.92s-2.01.25-2.65.74c-.64.49-.96,1.14-.96,1.93,0,.75.3,1.31.89,1.69s1.66.74,3.21,1.09c1.55.35,2.8.76,3.77,1.24s1.67,1.06,2.14,1.74.7,1.5.7,2.47c0,1.62-.65,2.92-1.95,3.9-1.3.98-2.98,1.47-5.05,1.47-1.45,0-2.74-.26-3.86-.77-1.12-.51-1.99-1.23-2.63-2.16-.63-.92-.95-1.92-.95-2.99h3.1c.06,1.04.47,1.87,1.25,2.47.78.61,1.8.91,3.08.91,1.17,0,2.12-.24,2.83-.71.71-.48,1.07-1.11,1.07-1.9Z"/><polygon class="cls-1" points="31.49 33.57 23.3 55.21 27.3 55.21 33.18 39.23 43.17 66.3 47.27 66.3 34.88 33.57 31.49 33.57"/><polygon class="cls-1" points="200.6 37.9 200.38 51.97 200.38 66.3 204.29 66.3 204.29 33.57 200.6 33.57 200.6 37.9"/><polygon class="cls-1" points="188.46 60.37 177.26 33.57 172.7 33.57 172.7 55.38 176.6 55.38 176.6 51.87 176.44 41.21 187.03 66.3 189.91 66.3 195.05 54.14 191.08 54.14 188.46 60.37"/><rect class="cls-1" x="266.37" y="41.64" width="3.08" height="3.08"/></svg>
